<svg width="15" height="15" viewBox="0 0 15 15" fill="none" xmlns="http://www.w3.org/2000/svg">
<path d="M13.9923 6.69846H8.34157V0.716797C8.34157 0.539641 8.27509 0.36974 8.15675 0.244471C8.03842 0.119203 7.87792 0.0488281 7.71056 0.0488281C7.54321 0.0488281 7.38271 0.119203 7.26437 0.244471C7.14603 0.36974 7.07955 0.539641 7.07955 0.716797V6.69846H1.42886C1.26151 6.69846 1.10101 6.76883 0.98267 6.8941C0.864333 7.01937 0.797852 7.18927 0.797852 7.36643C0.797852 7.54358 0.864333 7.71348 0.98267 7.83875C1.10101 7.96402 1.26151 8.0344 1.42886 8.0344H7.07955V14.0161C7.07955 14.1932 7.14603 14.3631 7.26437 14.4884C7.38271 14.6136 7.54321 14.684 7.71056 14.684C7.87792 14.684 8.03842 14.6136 8.15675 14.4884C8.27509 14.3631 8.34157 14.1932 8.34157 14.0161V8.0344H13.9923C14.1596 8.0344 14.3201 7.96402 14.4385 7.83875C14.5568 7.71348 14.6233 7.54358 14.6233 7.36643C14.6233 7.18927 14.5568 7.01937 14.4385 6.8941C14.3201 6.76883 14.1596 6.69846 13.9923 6.69846Z" fill="white"/>
</svg>
