<svg width="15" height="15" viewBox="0 0 15 15" fill="none" xmlns="http://www.w3.org/2000/svg">
<path d="M14.3154 6.81538H8.18462V0.684619C8.18462 0.503047 8.11249 0.328911 7.9841 0.20052C7.85571 0.0721291 7.68157 0 7.5 0C7.31843 0 7.14429 0.0721291 7.0159 0.20052C6.88751 0.328911 6.81538 0.503047 6.81538 0.684619V6.81538H0.684619C0.503047 6.81538 0.328911 6.88751 0.20052 7.0159C0.0721291 7.14429 0 7.31843 0 7.5C0 7.68157 0.0721291 7.85571 0.20052 7.9841C0.328911 8.11249 0.503047 8.18462 0.684619 8.18462H6.81538V14.3154C6.81538 14.497 6.88751 14.6711 7.0159 14.7995C7.14429 14.9279 7.31843 15 7.5 15C7.68157 15 7.85571 14.9279 7.9841 14.7995C8.11249 14.6711 8.18462 14.497 8.18462 14.3154V8.18462H14.3154C14.497 8.18462 14.6711 8.11249 14.7995 7.9841C14.9279 7.85571 15 7.68157 15 7.5C15 7.31843 14.9279 7.14429 14.7995 7.0159C14.6711 6.88751 14.497 6.81538 14.3154 6.81538Z" fill="black"/>
</svg>
