<svg width="140" height="155" viewBox="0 0 140 155" fill="none" xmlns="http://www.w3.org/2000/svg">
<path d="M69.7997 155C108.349 155 139.599 124.639 139.599 87.1875C139.599 49.7357 108.349 19.375 69.7997 19.375C31.2504 19.375 0 49.7357 0 87.1875C0 124.639 31.2504 155 69.7997 155Z" fill="#0FB127"/>
<path d="M124.642 129.328C124.144 119.156 115.668 110.922 104.7 110.922H34.8999C23.9313 110.922 15.4557 119.156 14.9571 129.328C27.9199 144.828 47.3641 155 69.7997 155C92.2354 155 111.68 144.828 124.642 129.328Z" fill="#6056B6"/>
<path d="M54.8426 96.875V121.094C54.8426 129.328 61.324 135.625 69.7997 135.625C78.2754 135.625 84.7568 129.328 84.7568 121.094V96.875H54.8426Z" fill="#FCC792"/>
<path d="M54.8426 92.0312L84.7568 121.094V92.0312H54.8426Z" fill="#F9B475"/>
<path d="M34.8998 14.5312V72.6562C34.8998 91.5469 50.3555 106.562 69.7997 106.562C89.2439 106.562 104.7 91.5469 104.7 72.6562V14.5312H34.8998Z" fill="#FAD3A1"/>
<path d="M79.7711 19.375V53.2812C74.2868 53.2812 69.7997 57.6406 69.7997 62.9688V67.8125H62.8197C63.8168 70.7188 66.8083 72.6562 69.7997 72.6562V106.562C89.2439 106.562 104.7 91.5469 104.7 72.6562V19.375H79.7711Z" fill="#FCC792"/>
<path d="M89.7425 58.125C92.496 58.125 94.7282 55.9564 94.7282 53.2812C94.7282 50.6061 92.496 48.4375 89.7425 48.4375C86.9889 48.4375 84.7568 50.6061 84.7568 53.2812C84.7568 55.9564 86.9889 58.125 89.7425 58.125Z" fill="#25374B"/>
<path d="M42.3784 0C33.9027 0 27.4213 6.29688 27.4213 14.5312V67.8125H34.8999V27.6094L37.3927 28.0938L38.8884 28.5781H39.387L72.2926 37.2969C75.284 38.2656 78.774 38.75 82.264 38.75C90.7396 38.75 98.2182 36.3281 104.7 31.9688V67.8125H112.178V25.6719C118.161 18.8906 122.149 9.6875 122.149 0H42.3784Z" fill="#25374B"/>
<path d="M49.857 58.125C52.6105 58.125 54.8427 55.9564 54.8427 53.2812C54.8427 50.6061 52.6105 48.4375 49.857 48.4375C47.1034 48.4375 44.8713 50.6061 44.8713 53.2812C44.8713 55.9564 47.1034 58.125 49.857 58.125Z" fill="#25374B"/>
<path d="M82.264 41.1719H97.2211V46.0156H82.264V41.1719ZM42.3784 41.1719H57.3355V46.0156H42.3784V41.1719Z" fill="#25374B"/>
<path d="M49.8569 52.3125C50.683 52.3125 51.3526 51.6619 51.3526 50.8594C51.3526 50.0568 50.683 49.4062 49.8569 49.4062C49.0309 49.4062 48.3612 50.0568 48.3612 50.8594C48.3612 51.6619 49.0309 52.3125 49.8569 52.3125Z" fill="#E6E6E6"/>
<path d="M89.7425 52.3125C90.5685 52.3125 91.2382 51.6619 91.2382 50.8594C91.2382 50.0568 90.5685 49.4062 89.7425 49.4062C88.9164 49.4062 88.2468 50.0568 88.2468 50.8594C88.2468 51.6619 88.9164 52.3125 89.7425 52.3125Z" fill="#E6E6E6"/>
<path d="M89.7425 68.2969C91.9453 68.2969 93.7311 66.562 93.7311 64.4219C93.7311 62.2818 91.9453 60.5469 89.7425 60.5469C87.5397 60.5469 85.754 62.2818 85.754 64.4219C85.754 66.562 87.5397 68.2969 89.7425 68.2969Z" fill="#FCBD83"/>
<path d="M49.857 68.2969C52.0598 68.2969 53.8455 66.562 53.8455 64.4219C53.8455 62.2818 52.0598 60.5469 49.857 60.5469C47.6541 60.5469 45.8684 62.2818 45.8684 64.4219C45.8684 66.562 47.6541 68.2969 49.857 68.2969Z" fill="#FCC792"/>
<path d="M104.7 53.2812C110.184 53.2812 114.671 57.6406 114.671 62.9688C114.671 68.2969 110.184 72.6562 104.7 72.6562V53.2812ZM34.8999 53.2812C29.4156 53.2812 24.9285 57.6406 24.9285 62.9688C24.9285 68.2969 29.4156 72.6562 34.8999 72.6562V53.2812Z" fill="#FCC792"/>
<path d="M81.7653 79.9219C79.2725 83.7969 74.7854 86.2187 69.7997 86.2187C64.814 86.2187 60.3269 83.7969 57.834 79.9219H54.8426C57.834 84.7656 63.3183 88.6406 69.7997 88.6406C76.2811 88.6406 81.7653 85.25 84.7568 79.9219H81.7653Z" fill="#F7AC6F"/>
</svg>
