<svg width="44" height="44" viewBox="0 0 44 44" fill="none" xmlns="http://www.w3.org/2000/svg">
<path d="M40.8271 7.73438H3.1729C2.33169 7.73533 1.5252 8.06992 0.930376 8.66475C0.335549 9.25958 0.000955303 10.0661 0 10.9073L0 33.0927C0.000955303 33.9339 0.335549 34.7404 0.930376 35.3352C1.5252 35.9301 2.33169 36.2647 3.1729 36.2656H40.8271C41.6683 36.2647 42.4748 35.9301 43.0696 35.3352C43.6645 34.7404 43.999 33.9339 44 33.0927V10.9073C43.999 10.0661 43.6645 9.25958 43.0696 8.66475C42.4748 8.06992 41.6683 7.73533 40.8271 7.73438ZM28.1255 21.5293L42.3998 10.0388C42.5475 10.3044 42.625 10.6033 42.625 10.9073V33.0927C42.6249 33.3751 42.5577 33.6533 42.4291 33.9047L28.1255 21.5293ZM40.8271 9.10938C40.9819 9.10993 41.1361 9.13059 41.2856 9.17082L26.6343 20.9646L25.3366 22.0095C24.394 22.7765 23.2159 23.1953 22.0007 23.1953C20.7855 23.1953 19.6073 22.7765 18.6648 22.0095L2.71477 9.17039C2.8642 9.13033 3.01819 9.10982 3.1729 9.10938H40.8271ZM1.57094 33.9047C1.4423 33.6533 1.37515 33.3751 1.375 33.0927V10.9073C1.3748 10.6034 1.45215 10.3044 1.59973 10.0388L15.8739 21.5293L1.57094 33.9047ZM3.1729 34.8906C2.98872 34.8907 2.80564 34.8623 2.63012 34.8065L16.9629 22.4057L17.8018 23.081C18.988 24.0462 20.4706 24.5731 21.9998 24.5731C23.5291 24.5731 25.0117 24.0462 26.1979 23.081L27.0367 22.4057L41.3703 34.8065C41.1948 34.8623 41.0117 34.8907 40.8275 34.8906H3.1729Z" fill="white"/>
</svg>
