<svg width="120" height="164" viewBox="0 0 120 164" fill="none" xmlns="http://www.w3.org/2000/svg">
<path d="M25.3178 162.362C25.1178 163.166 24.304 163.656 23.5001 163.456L10.3994 160.196C9.59547 159.996 9.1059 159.183 9.30591 158.379C9.5059 157.575 10.3197 157.085 11.1237 157.285L22.7687 160.182L25.6658 148.537C25.8658 147.733 26.6797 147.244 27.4836 147.444C28.2875 147.644 28.7771 148.458 28.5771 149.261L25.3178 162.362ZM119.306 2.8466C88.9838 15.606 65.1897 27.3665 47.2377 38.9674C29.2786 50.5728 17.2655 61.9559 10.3844 73.9192C-3.27091 97.6595 2.95863 124.341 25.1476 161.227L22.5768 162.773C0.297367 125.737 -6.75335 97.697 7.78387 72.4234C14.999 59.8796 27.4503 48.1824 45.6095 36.4477C63.7757 24.7084 87.7536 12.8688 118.143 0.0814366L119.306 2.8466Z" fill="black"/>
</svg>
