<svg width="109" height="158" viewBox="0 0 109 158" fill="none" xmlns="http://www.w3.org/2000/svg">
<path d="M90.5755 156.468C90.835 157.255 91.6832 157.682 92.4699 157.423L105.29 153.194C106.077 152.934 106.504 152.086 106.245 151.299C105.985 150.512 105.137 150.085 104.35 150.345L92.9545 154.104L89.195 142.708C88.9355 141.921 88.0873 141.494 87.3006 141.754C86.5139 142.013 86.0865 142.861 86.3461 143.648L90.5755 156.468ZM0.310034 3.33036C53.4681 30.8649 84.0297 52.9242 97.3504 75.9843C110.536 98.8097 106.975 122.945 90.6604 155.323L93.3395 156.673C109.819 123.968 113.894 98.626 99.9482 74.4837C86.138 50.5762 54.8025 28.1776 1.68985 0.666501L0.310034 3.33036Z" fill="black"/>
</svg>
