<svg width="158" height="158" viewBox="0 0 158 158" fill="none" xmlns="http://www.w3.org/2000/svg">
<g clip-path="url(#clip0_39_301)">
<path d="M79.0717 157.856C117.214 157.856 148.134 126.936 148.134 88.7942C148.134 50.6521 117.214 19.7319 79.0717 19.7319C40.9297 19.7319 10.0095 50.6521 10.0095 88.7942C10.0095 126.936 40.9297 157.856 79.0717 157.856Z" fill="#5FC86F"/>
<path d="M130.868 134.178C127.415 127.765 121.002 123.325 113.603 123.325H44.5406C36.6478 123.325 30.2348 127.765 27.275 134.178C39.6076 148.484 58.353 157.856 79.0717 157.856C99.7904 157.856 118.536 148.484 130.868 134.178Z" fill="#FED049"/>
<path d="M79.0717 147.99C87.4578 147.99 93.8707 141.578 93.8707 133.191H64.2726C64.2726 141.578 70.6856 147.99 79.0717 147.99Z" fill="#E6E6E6"/>
<path d="M64.2727 108.526L44.5406 133.191H64.2727V108.526ZM93.8708 108.526L113.603 133.191H93.8708V108.526Z" fill="#FFE167"/>
<path d="M64.2726 108.526H93.8707V133.191H64.2726V108.526Z" fill="#FCC792"/>
<path d="M64.2726 103.593L93.8707 133.191V103.593H64.2726Z" fill="#F9B475"/>
<path d="M44.5406 19.7319V78.9281C44.5406 98.1669 59.8329 113.459 79.0717 113.459C98.3105 113.459 113.603 98.1669 113.603 78.9281V19.7319H44.5406Z" fill="#FAD3A1"/>
<path d="M88.9377 24.665V59.1962C83.5114 59.1962 79.0717 63.6359 79.0717 69.0622V73.9952H72.1655C73.1521 76.955 76.1119 78.9282 79.0717 78.9282V113.459C98.3105 113.459 113.603 98.167 113.603 78.9282V24.665H88.9377Z" fill="#FCC792"/>
<path d="M98.8037 64.1292C101.528 64.1292 103.737 61.9206 103.737 59.1962C103.737 56.4718 101.528 54.2632 98.8037 54.2632C96.0793 54.2632 93.8707 56.4718 93.8707 59.1962C93.8707 61.9206 96.0793 64.1292 98.8037 64.1292Z" fill="#25374B"/>
<path d="M59.3396 64.1292C62.0641 64.1292 64.2726 61.9206 64.2726 59.1962C64.2726 56.4718 62.0641 54.2632 59.3396 54.2632C56.6152 54.2632 54.4066 56.4718 54.4066 59.1962C54.4066 61.9206 56.6152 64.1292 59.3396 64.1292Z" fill="#25374B"/>
<path d="M91.4042 46.8638H106.203V51.7968H91.4042V46.8638ZM51.9401 46.8638H66.7391V51.7968H51.9401V46.8638Z" fill="#58302F"/>
<path d="M59.3396 58.2098C60.1569 58.2098 60.8195 57.5472 60.8195 56.7299C60.8195 55.9126 60.1569 55.25 59.3396 55.25C58.5223 55.25 57.8597 55.9126 57.8597 56.7299C57.8597 57.5472 58.5223 58.2098 59.3396 58.2098Z" fill="#E6E6E6"/>
<path d="M98.8038 58.2098C99.6211 58.2098 100.284 57.5472 100.284 56.7299C100.284 55.9126 99.6211 55.25 98.8038 55.25C97.9864 55.25 97.3239 55.9126 97.3239 56.7299C97.3239 57.5472 97.9864 58.2098 98.8038 58.2098Z" fill="#E6E6E6"/>
<path d="M79.0717 103.593C89.9243 103.593 98.8038 94.714 98.8038 83.8613H59.3396C59.3396 94.714 68.2191 103.593 79.0717 103.593Z" fill="#E6E6E6"/>
<path d="M98.8038 74.4885C100.983 74.4885 102.75 72.7217 102.75 70.5421C102.75 68.3626 100.983 66.5957 98.8038 66.5957C96.6242 66.5957 94.8574 68.3626 94.8574 70.5421C94.8574 72.7217 96.6242 74.4885 98.8038 74.4885Z" fill="#FCBD83"/>
<path d="M59.3396 74.4885C61.5192 74.4885 63.286 72.7217 63.286 70.5421C63.286 68.3626 61.5192 66.5957 59.3396 66.5957C57.1601 66.5957 55.3932 68.3626 55.3932 70.5421C55.3932 72.7217 57.1601 74.4885 59.3396 74.4885Z" fill="#FCC792"/>
<path d="M96.3373 0C93.8708 0 91.4043 0.493302 88.9377 1.47991C87.4578 0.493302 85.9779 0 84.0047 0C80.5516 0 77.5918 1.97321 75.6186 4.43971C71.6722 1.4799 67.2325 0 61.8062 0C51.9401 0 43.0607 5.91962 39.1143 14.7991H34.6746C34.6746 16.7723 35.1679 18.2522 36.1545 19.7321H34.6746C34.6746 22.1986 35.6612 24.6651 37.1411 26.145V69.0622H44.5406V34.5311C48.9803 40.4507 56.3798 44.3972 64.2727 44.3972C72.1655 44.3972 79.565 40.4507 84.0047 34.5311H95.3507C96.8306 37.4909 100.284 39.4641 103.737 39.4641C109.163 39.4641 113.603 35.0244 113.603 29.5981V69.0622H121.002V24.6651C121.002 10.8526 110.15 0 96.3373 0Z" fill="#793431"/>
<path d="M113.603 59.1963C119.029 59.1963 123.469 63.636 123.469 69.0623C123.469 74.4886 119.029 78.9284 113.603 78.9284V59.1963ZM44.5406 59.1963C39.1143 59.1963 34.6746 63.636 34.6746 69.0623C34.6746 74.4886 39.1143 78.9284 44.5406 78.9284V59.1963Z" fill="#FCC792"/>
</g>
<defs>
<clipPath id="clip0_39_301">
<rect width="157.857" height="157.857" fill="white" transform="translate(0.143433)"/>
</clipPath>
</defs>
</svg>
