<svg width="23" height="23" viewBox="0 0 23 23" fill="none" xmlns="http://www.w3.org/2000/svg">
<path d="M23 11.5001C23 5.14832 17.8513 0 11.5002 0C5.14878 0 0 5.14832 0 11.5001C0 17.851 5.14878 22.9997 11.5002 22.9997C17.8513 22.9997 23 17.851 23 11.5001Z" fill="#25B7D3"/>
<path d="M6.40723 8.04665C6.40723 7.4016 6.6143 6.74798 7.02854 6.08592C7.44264 5.42386 8.04712 4.87556 8.84158 4.44092C9.63608 4.00643 10.563 3.78906 11.6223 3.78906C12.6068 3.78906 13.476 3.97083 14.2298 4.33398C14.9835 4.69732 15.5657 5.19134 15.9766 5.81599C16.3874 6.44082 16.5928 7.11976 16.5928 7.85311C16.5928 8.43034 16.4757 8.93632 16.2414 9.37077C16.0071 9.8054 15.7286 10.1806 15.4062 10.4962C15.0836 10.812 14.5047 11.3434 13.6695 12.0903C13.4386 12.3009 13.2535 12.486 13.1144 12.6455C12.9752 12.8051 12.8716 12.9511 12.8037 13.0834C12.7358 13.2159 12.6831 13.3483 12.6458 13.4807C12.6084 13.6131 12.5524 13.8458 12.4778 14.1784C12.3487 14.8847 11.9447 15.2377 11.2657 15.2377C10.9126 15.2377 10.6154 15.1224 10.3745 14.8914C10.1334 14.6606 10.0129 14.3177 10.0129 13.8627C10.0129 13.2923 10.1011 12.7983 10.2777 12.3807C10.4543 11.963 10.6885 11.5963 10.9805 11.2806C11.2724 10.9649 11.6663 10.5897 12.1621 10.1551C12.5966 9.7749 12.9107 9.48796 13.1043 9.29442C13.2965 9.10261 13.4611 8.88491 13.5932 8.64761C13.7256 8.40999 13.7918 8.15202 13.7918 7.87351C13.7918 7.33031 13.5897 6.87198 13.1858 6.49844C12.7817 6.12509 12.2604 5.93823 11.6223 5.93823C10.8752 5.93823 10.3252 6.12667 9.97216 6.50354C9.61902 6.88042 9.3203 7.43553 9.07581 8.16889C8.84491 8.93632 8.40689 9.31987 7.76185 9.31987C7.38145 9.31987 7.06062 9.18585 6.79931 8.91754C6.5379 8.64932 6.40723 8.35904 6.40723 8.04665ZM11.3778 19.2101C10.9635 19.2101 10.602 19.0759 10.293 18.8078C9.98398 18.5397 9.82957 18.1645 9.82957 17.6823C9.82957 17.2545 9.97883 16.8947 10.2777 16.6026C10.5765 16.3107 10.9431 16.1646 11.3778 16.1646C11.8056 16.1646 12.1654 16.3107 12.4575 16.6026C12.7493 16.8947 12.8954 17.2545 12.8954 17.6823C12.8954 18.1577 12.7426 18.5312 12.4371 18.8027C12.1315 19.0743 11.7784 19.2101 11.3778 19.2101Z" fill="white"/>
</svg>
