<svg width="18" height="18" viewBox="0 0 18 18" fill="none" xmlns="http://www.w3.org/2000/svg">
<path d="M9 18C13.962 18 18 13.962 18 9C18 4.03801 13.962 0 9 0C4.03796 0 0 4.03801 0 9C0 13.962 4.03801 18 9 18ZM9 1.19998C13.302 1.19998 16.8 4.69797 16.8 9C16.8 13.302 13.302 16.8 9 16.8C4.69797 16.8 1.19998 13.302 1.19998 9C1.19998 4.69797 4.69802 1.19998 9 1.19998Z" fill="white"/>
<path d="M11.6249 11.8681C11.7359 11.9581 11.8679 12.0001 11.9999 12.0001C12.0898 12.0003 12.1786 11.9801 12.2596 11.9412C12.3407 11.9022 12.4119 11.8455 12.4679 11.7751C12.6749 11.5171 12.6328 11.1391 12.3749 10.9321L9.59988 8.71209V4.20009C9.59988 3.87008 9.3299 3.6001 8.99989 3.6001C8.66989 3.6001 8.3999 3.87008 8.3999 4.20009V9.00011C8.3999 9.18312 8.48392 9.35411 8.6249 9.46809L11.6249 11.8681Z" fill="white"/>
</svg>
