<svg width="21" height="21" viewBox="0 0 21 21" fill="none" xmlns="http://www.w3.org/2000/svg">
<g clip-path="url(#clip0_394_102)">
<path d="M4.06001 13.7946H3.68668C2.05335 13.7946 0.700012 12.488 0.700012 10.85V3.64462C0.700012 2.01128 2.05335 0.699951 3.69135 0.699951H10.9573C12.5953 0.699951 13.9487 2.01128 13.9487 3.64462V3.90595C16.044 3.90595 17.29 5.02128 17.29 7.20062C18.9467 7.20062 20.3 8.48862 20.3 10.1453V17.3273C20.3 18.9653 18.97 20.2953 17.332 20.2953H9.99601C8.38135 20.2953 7.05135 18.9653 7.05135 17.3273V16.9773C5.34801 16.8233 4.06001 15.862 4.06001 14.0513V13.7946ZM16.1747 7.20528V6.85528C16.1747 5.82862 15.3253 5.02128 14.3173 5.02128H7.02801C6.00135 5.02128 5.15201 5.82862 5.15201 6.85528V14.056C5.15201 15.2366 5.95935 15.7593 7.05135 15.8666V10.15C7.05135 8.53528 8.38135 7.20528 9.99601 7.20528H16.1747ZM17.332 8.29728H9.99601C8.99268 8.29728 8.16201 9.12795 8.16201 10.1546V17.3366C8.16201 18.3633 8.99268 19.194 9.99601 19.194H17.3273C18.354 19.194 19.1847 18.3633 19.1847 17.3366V10.15C19.1847 9.12328 18.3587 8.29728 17.332 8.29728ZM12.8333 3.91062V3.64928C12.8333 2.62262 11.984 1.81528 10.9573 1.81528H3.69135C2.66468 1.81528 1.81535 2.62262 1.81535 3.64928V10.85C1.81535 11.8766 2.66468 12.684 3.69135 12.684H4.06468V6.85528C4.06468 5.21728 5.41801 3.91062 7.03268 3.91062H12.8333Z" fill="white"/>
</g>
<defs>
<clipPath id="clip0_394_102">
<rect width="21" height="21" fill="white"/>
</clipPath>
</defs>
</svg>
