<svg width="21" height="21" viewBox="0 0 21 21" fill="none" xmlns="http://www.w3.org/2000/svg">
<g clip-path="url(#clip0_588_63)">
<path d="M4.05995 13.7946H3.68662C2.05328 13.7946 0.699951 12.488 0.699951 10.85V3.64462C0.699951 2.01128 2.05328 0.699951 3.69128 0.699951H10.9573C12.5953 0.699951 13.9486 2.01128 13.9486 3.64462V3.90595C16.044 3.90595 17.29 5.02128 17.29 7.20062C18.9466 7.20062 20.3 8.48862 20.3 10.1453V17.3273C20.3 18.9653 18.97 20.2953 17.332 20.2953H9.99595C8.38129 20.2953 7.05129 18.9653 7.05129 17.3273V16.9773C5.34795 16.8233 4.05995 15.862 4.05995 14.0513V13.7946ZM16.1746 7.20528V6.85528C16.1746 5.82862 15.3253 5.02128 14.3173 5.02128H7.02795C6.00129 5.02128 5.15195 5.82862 5.15195 6.85528V14.056C5.15195 15.2366 5.95929 15.7593 7.05129 15.8666V10.15C7.05129 8.53528 8.38129 7.20528 9.99595 7.20528H16.1746ZM17.332 8.29728H9.99595C8.99262 8.29728 8.16195 9.12795 8.16195 10.1546V17.3366C8.16195 18.3633 8.99262 19.194 9.99595 19.194H17.3273C18.354 19.194 19.1846 18.3633 19.1846 17.3366V10.15C19.1846 9.12328 18.3586 8.29728 17.332 8.29728ZM12.8333 3.91062V3.64928C12.8333 2.62262 11.984 1.81528 10.9573 1.81528H3.69128C2.66462 1.81528 1.81528 2.62262 1.81528 3.64928V10.85C1.81528 11.8766 2.66462 12.684 3.69128 12.684H4.06462V6.85528C4.06462 5.21728 5.41795 3.91062 7.03262 3.91062H12.8333Z" fill="black"/>
</g>
<defs>
<clipPath id="clip0_588_63">
<rect width="21" height="21" fill="white"/>
</clipPath>
</defs>
</svg>
