<svg width="27" height="27" viewBox="0 0 27 27" fill="none" xmlns="http://www.w3.org/2000/svg">
<path d="M25.6382 2.30861L23.842 0.533739C23.356 0.0477053 22.553 0.0477053 22.0458 0.533739L13.0859 9.49346L3.95711 0.364684C3.47086 -0.121561 2.66785 -0.121561 2.1609 0.364684L0.364684 2.1609C-0.121561 2.64693 -0.121561 3.44994 0.364684 3.95711L9.47254 13.065L0.533739 22.046C0.0477053 22.5321 0.0477053 23.3351 0.533739 23.8422L2.32995 25.6385C2.81599 26.1245 3.619 26.1245 4.12616 25.6385L13.0859 16.6785L22.0458 25.6385C22.5319 26.1245 23.3349 26.1245 23.842 25.6385L25.6382 23.8422C26.1243 23.3562 26.1243 22.5532 25.6382 22.046L16.6572 13.0861L25.6171 4.12638C25.8586 3.88683 25.9961 3.56193 26.0001 3.22182C26.004 2.88172 25.8741 2.55371 25.6382 2.30861Z" fill="black"/>
</svg>
