<svg width="200" height="200" viewBox="0 0 200 200" fill="none" xmlns="http://www.w3.org/2000/svg">
<path d="M48.5351 184.996C49.7248 185.756 50.9313 186.49 52.1535 187.196H147.847C149.069 186.49 150.276 185.757 151.465 184.997L175.427 163.205C188.13 146.964 195.703 126.516 195.703 104.298C195.703 51.4429 152.855 8.5957 100 8.5957C47.1453 8.5957 4.29765 51.4433 4.29765 104.298C4.29765 126.516 11.8703 146.964 24.5734 163.206L48.5351 184.996Z" fill="#459F52"/>
<path d="M175.427 163.205C174.999 161.109 174.498 159.028 173.925 156.966C173.925 156.966 178.219 117.078 148.034 114.61C145.814 114.428 144.633 113.567 142.016 112.092C138.533 110.127 135.017 108.438 131.387 107.031C128.113 121.336 115.283 132.041 100 132.041C84.7164 132.041 71.8867 121.336 68.6133 107.031C64.9832 108.439 61.4672 110.128 57.9836 112.092C55.3672 113.567 54.1863 114.428 51.966 114.61C21.7812 117.078 26.0754 156.966 26.0754 156.966C25.5019 159.028 25.0007 161.109 24.5727 163.205C31.2714 171.771 39.3735 179.139 48.5348 184.996C48.8199 181.569 48.9863 178.139 49.0816 175.122C49.0854 175.005 49.1346 174.894 49.2188 174.813C49.303 174.732 49.4155 174.687 49.5324 174.687C49.6406 174.687 49.7451 174.726 49.8267 174.797C49.9084 174.868 49.9617 174.966 49.977 175.073C50.5789 179.217 51.4258 183.247 52.1527 187.196C66.2289 195.338 82.5695 200 100 200C117.43 200 133.771 195.338 147.847 187.196C148.574 183.247 149.421 179.217 150.023 175.073C150.038 174.966 150.091 174.868 150.173 174.797C150.255 174.726 150.359 174.687 150.467 174.687C150.584 174.687 150.697 174.732 150.781 174.813C150.865 174.894 150.914 175.005 150.918 175.122C151.013 178.139 151.18 181.569 151.465 184.996C160.626 179.139 168.728 171.771 175.427 163.205Z" fill="#4FABF7"/>
<path d="M74.7371 119.772C71.825 116.087 69.6945 111.758 68.6129 107.031C64.9828 108.439 61.4668 110.128 57.9832 112.092C55.3668 113.567 54.1855 114.428 51.9656 114.61C21.7809 117.078 26.075 156.966 26.075 156.966C25.5015 159.028 25.0003 161.109 24.5723 163.205C28.1023 167.715 32.0276 171.902 36.3016 175.714C36.8602 171.042 38.909 165.444 41.184 149.143C43.8238 130.233 63.0117 122.658 74.7371 119.772Z" fill="#2E8BE6"/>
<path d="M100 124.25C111.837 124.25 121.729 115.778 123.94 104.58C121.735 103.848 119.918 102.209 119.04 100.046C117.731 96.8221 117.308 92.9396 117.204 89.9346C115.467 91.9588 113.643 93.6514 111.9 95.0049C108.495 97.6446 104.309 99.0761 100 99.0736C95.692 99.0761 91.5053 97.6446 88.1004 95.0049C86.3578 93.6518 84.534 91.9588 82.7961 89.9346C82.6926 92.9393 82.2687 96.8217 80.9598 100.046C80.0812 102.209 78.2652 103.848 76.0598 104.58C78.2707 115.778 88.1629 124.25 100 124.25Z" fill="#FFBA87"/>
<path d="M88.1 95.0049C86.3574 93.6518 84.5336 91.9588 82.7957 89.9346C82.6922 92.9393 82.2684 96.8217 80.9594 100.046C80.0809 102.209 78.2648 103.848 76.0594 104.58C77.1141 109.921 79.9191 114.639 83.8465 118.117C95.7527 118.799 98.9262 104.958 99.7352 99.0682C95.5141 99.0107 91.4258 97.5877 88.1 95.0049Z" fill="#FFA270"/>
<path d="M100 132.528C115.487 132.528 128.494 121.699 131.845 107.216C129.408 106.252 126.923 105.409 124.359 104.708C124.059 104.625 123.764 104.526 123.476 104.411C121.338 115.422 111.627 123.763 100 123.763C88.373 123.763 78.6617 115.422 76.5242 104.411C76.2371 104.525 75.9426 104.625 75.6414 104.707C73.0769 105.409 70.5922 106.252 68.1551 107.215C71.5059 121.699 84.5121 132.528 100 132.528Z" fill="#73C3F9"/>
<path d="M84.0012 117.605C80.2219 114.195 77.5312 109.6 76.5238 104.411C76.2354 104.526 75.9407 104.625 75.641 104.707C73.0769 105.409 70.5918 106.252 68.1547 107.215C69.241 111.911 71.3477 116.219 74.2191 119.902C79.8121 118.484 83.8465 118.116 83.8465 118.116L84.0012 117.605Z" fill="#4FABF7"/>
<path d="M102.563 156.511H97.4371C97.0942 156.511 96.7547 156.579 96.4379 156.71C96.1212 156.841 95.8333 157.034 95.5909 157.276C95.3484 157.518 95.1561 157.806 95.0249 158.123C94.8937 158.44 94.8262 158.779 94.8262 159.122V176.401C94.8262 177.094 95.1012 177.758 95.5909 178.247C96.0805 178.737 96.7446 179.012 97.4371 179.012H102.563C103.256 179.012 103.92 178.737 104.409 178.247C104.899 177.758 105.174 177.094 105.174 176.401V159.122C105.174 158.43 104.899 157.766 104.409 157.276C103.92 156.786 103.256 156.511 102.563 156.511Z" fill="#FFDD40"/>
<path d="M100 176.401V159.122C100 158.433 100.272 157.773 100.756 157.284C101.241 156.796 101.899 156.518 102.587 156.512C102.579 156.512 102.571 156.511 102.563 156.511H97.4367C96.7443 156.511 96.0801 156.786 95.5905 157.275C95.1009 157.765 94.8258 158.429 94.8258 159.122V176.401C94.8258 177.093 95.1009 177.757 95.5905 178.247C96.0801 178.736 96.7443 179.012 97.4367 179.012H102.563C102.571 179.012 102.579 179.01 102.587 179.01C101.899 179.004 101.241 178.727 100.756 178.238C100.272 177.749 100 177.089 100 176.401Z" fill="#FFB332"/>
<path d="M136.794 146.104H119.775C119.229 146.104 118.706 146.32 118.32 146.706C117.934 147.093 117.717 147.616 117.717 148.162V157.981C117.717 158.527 117.934 159.051 118.32 159.437L125.621 166.738C126.327 167.444 127.285 167.841 128.284 167.841C129.283 167.841 130.242 167.444 130.948 166.738L138.249 159.437C138.635 159.051 138.852 158.527 138.852 157.981V148.162C138.852 147.892 138.799 147.624 138.696 147.374C138.592 147.124 138.441 146.897 138.25 146.706C138.059 146.515 137.832 146.363 137.582 146.26C137.332 146.157 137.064 146.103 136.794 146.104Z" fill="#2E8BE6"/>
<path d="M128.888 158.406C128.502 158.02 128.285 157.496 128.285 156.95V147.131C128.285 146.755 128.393 146.407 128.57 146.104H119.775C119.229 146.104 118.706 146.32 118.32 146.706C117.934 147.093 117.717 147.616 117.717 148.162V157.981C117.717 158.527 117.934 159.051 118.32 159.437L125.621 166.738C126.327 167.444 127.285 167.841 128.284 167.841C129.283 167.841 130.242 167.444 130.948 166.738L134.084 163.602L128.888 158.406Z" fill="#1D78DB"/>
<path d="M100 154.292C97.8348 154.292 95.9148 153.076 94.9895 151.118L73.3699 105.381C73.2332 105.092 73.1548 104.779 73.1392 104.459C73.1236 104.14 73.171 103.821 73.2788 103.52C73.3866 103.219 73.5527 102.942 73.7675 102.705C73.9824 102.468 74.2417 102.276 74.5309 102.14C74.8199 102.003 75.1331 101.925 75.4524 101.909C75.7718 101.893 76.0911 101.941 76.3922 102.048C76.6932 102.156 76.9701 102.322 77.2069 102.537C77.4438 102.752 77.636 103.011 77.7727 103.3L99.3922 149.037C99.5426 149.355 99.8059 149.422 100 149.422C100.195 149.422 100.458 149.355 100.609 149.037L122.228 103.3C122.504 102.716 123 102.266 123.608 102.048C124.216 101.831 124.886 101.863 125.47 102.139C126.053 102.415 126.504 102.912 126.721 103.52C126.939 104.128 126.906 104.797 126.63 105.381L105.011 151.118C104.085 153.076 102.165 154.292 100 154.292Z" fill="#BEC8F7"/>
<path d="M100 159.051C99.3543 159.051 98.735 158.794 98.2784 158.337C97.8218 157.881 97.5652 157.262 97.5652 156.616V149.772C97.5652 149.126 97.8218 148.507 98.2784 148.05C98.735 147.593 99.3543 147.337 100 147.337C100.646 147.337 101.265 147.593 101.722 148.05C102.178 148.507 102.435 149.126 102.435 149.772V156.616C102.435 157.262 102.178 157.881 101.722 158.337C101.265 158.794 100.646 159.051 100 159.051Z" fill="#E9EFFF"/>
<path d="M101.593 166.81H98.4078C97.7621 166.81 97.1428 166.553 96.6862 166.097C96.2296 165.64 95.973 165.021 95.973 164.375C95.973 163.729 96.2296 163.11 96.6862 162.654C97.1428 162.197 97.7621 161.94 98.4078 161.94H101.593C102.238 161.94 102.858 162.197 103.314 162.654C103.771 163.11 104.027 163.729 104.027 164.375C104.027 165.021 103.771 165.64 103.314 166.097C102.858 166.553 102.238 166.81 101.593 166.81Z" fill="#FF9100"/>
<path d="M73.8879 149.143H66.0047C65.3589 149.143 64.7397 148.886 64.283 148.43C63.8264 147.973 63.5699 147.354 63.5699 146.708C63.5699 146.062 63.8264 145.443 64.283 144.987C64.7397 144.53 65.3589 144.273 66.0047 144.273H73.8879C74.5336 144.273 75.1529 144.53 75.6095 144.987C76.0661 145.443 76.3227 146.062 76.3227 146.708C76.3227 147.354 76.0661 147.973 75.6095 148.43C75.1529 148.886 74.5336 149.143 73.8879 149.143Z" fill="#73C3F9"/>
<path d="M132.125 51.9314C131.734 51.5725 131.228 51.3744 130.68 51.2881C130.505 53.2416 130.241 54.9897 129.886 56.4338C129.478 58.0916 128.14 59.16 126.642 59.4002L125.621 66.8369C125.621 67.64 125.596 68.4275 125.549 69.2018C128.884 70.2076 130.541 67.2135 130.82 65.1588C130.94 64.2743 131.137 63.4019 131.409 62.5518C132.296 59.7807 135.497 55.0213 132.125 51.9314Z" fill="#FFBA87"/>
<path d="M73.3578 59.3996C71.8609 59.1605 70.5223 58.0949 70.1141 56.4332C69.6773 54.657 69.4289 52.932 69.2894 51.293C68.7539 51.3824 68.259 51.5789 67.8746 51.9313C64.5027 55.0211 67.7035 59.7805 68.5906 62.5512C68.8629 63.402 69.0594 64.2738 69.1797 65.1582C69.459 67.2129 71.1156 70.2074 74.4508 69.2012C74.4032 68.4138 74.3792 67.6252 74.3789 66.8363L73.3578 59.3996Z" fill="#FFA270"/>
<path d="M123.437 58.5279C113.596 50.4252 101.736 50.1436 100.184 50.1436C92.3355 50.1436 83.2023 53.0607 76.5621 58.5279C75.4027 59.4822 73.941 59.6623 72.6895 59.2369L73.7344 66.8361C73.7344 83.2885 83.6887 92.7943 87.968 96.1174C95.0008 101.578 104.948 101.618 112.031 96.1174C116.311 92.7947 126.265 83.2889 126.263 66.8654L127.311 59.2361C126.061 59.6627 124.599 59.4842 123.437 58.5279Z" fill="#FFD19E"/>
<path d="M104.162 95.0278C99.8832 90.8231 89.9289 78.7974 89.9289 57.9821L89.2625 51.8521C84.6922 53.2528 80.2437 55.4966 76.5621 58.5278C75.4027 59.4817 73.941 59.6622 72.6895 59.2368L73.7344 66.836C73.7344 83.2888 83.6887 92.7942 87.968 96.1173C93.9109 100.732 101.935 101.474 108.554 98.2747C107.009 97.4517 105.53 96.3712 104.162 95.0278Z" fill="#FFBA87"/>
<path d="M156.475 27.0347C150.937 30.3081 143.741 36.7058 145.016 47.4745C148.011 72.7647 128.089 90.7323 147.36 97.3409C166.63 103.95 178.48 110.125 182.972 122.401C184.88 127.616 188.62 129.382 192.292 129.689C194.513 121.602 195.703 113.089 195.703 104.297C195.702 72.5659 180.255 44.4464 156.475 27.0347ZM43.5254 27.0347C49.0633 30.3081 56.2594 36.7058 54.984 47.4745C51.9891 72.7647 71.9109 90.7323 52.6402 97.3409C33.3691 103.95 21.5203 110.125 17.0281 122.401C15.1199 127.616 11.3797 129.382 7.70781 129.689C5.4875 121.602 4.29726 113.089 4.29726 104.297C4.29765 72.5659 19.7449 44.4464 43.5254 27.0347Z" fill="#5DC36C"/>
<path d="M103.901 4.55117C104.267 2.16406 102.427 0 100 0C97.5762 0 95.732 2.16016 96.0988 4.55117C96.5883 4.54726 103.547 4.54844 103.901 4.55117Z" fill="#E9EFFF"/>
<path d="M101.184 0.184375C100.801 0.0630383 100.402 0.000863685 100 0C97.5762 0 95.732 2.16016 96.0988 4.55117C96.3809 4.54883 98.8121 4.54844 100.889 4.54883C99.3356 3.56523 99.3633 0.903515 101.184 0.184375Z" fill="#BEC8F7"/>
<path d="M80.5113 17.7775C83.9965 9.61465 89.7855 4.62715 96.1016 4.28809H95.8023C87.1617 4.28809 79.0957 8.6334 74.3586 15.8592C72.2027 19.1475 68.6406 29.8994 68.6406 42.0182V47.4174L68.8664 47.5467C69.6086 47.1244 72.1656 45.7436 76.2246 44.2982C76.6629 32.0549 78.9285 21.485 80.5113 17.7775Z" fill="#E80054"/>
<path d="M125.641 15.8592C120.904 8.63301 112.837 4.28809 104.197 4.28809H103.898C110.214 4.62715 116.003 9.61465 119.488 17.7775C121.071 21.4854 123.337 32.0553 123.775 44.2986C127.834 45.7439 130.391 47.1252 131.134 47.5471L131.359 47.4178V42.0186C131.359 29.8994 127.797 19.1475 125.641 15.8592Z" fill="#FF4155"/>
<path d="M100 40.2943C110.222 40.2943 118.448 42.3877 123.907 44.3451C123.461 31.8408 121.096 21.2119 119.608 17.7264C116.378 10.1611 111.125 5.28496 105.341 4.3166C104.96 4.29868 104.579 4.28917 104.197 4.28809H95.8027C95.4203 4.28809 95.0395 4.2998 94.6594 4.3166C88.8754 5.28496 83.6219 10.1611 80.3918 17.7264C78.9035 21.2123 76.5391 31.8412 76.093 44.3451C81.5516 42.3877 89.7781 40.2943 100 40.2943Z" fill="#E80054"/>
<path d="M89.4527 39.994C88.098 38.8486 88.0793 36.8631 88.0793 36.8631C88.0793 13.467 94.7172 6.41856 96.8875 4.73926C97.0457 4.61675 97.1771 4.46322 97.2738 4.28809H95.8023C95.4199 4.28809 95.0391 4.2998 94.659 4.3166C88.875 5.28496 83.6215 10.1611 80.3914 17.7264C78.9031 21.2123 76.5383 31.8412 76.0926 44.3451C79.6211 43.0799 84.3121 41.7615 89.9445 40.9846C89.9339 40.7948 89.8848 40.6091 89.8002 40.4388C89.7157 40.2685 89.5975 40.1172 89.4527 39.994Z" fill="#CC0053"/>
<path d="M102.435 13.4088V4.28809H97.5652V13.4088C97.5767 14.047 97.8382 14.6552 98.2936 15.1024C98.7489 15.5497 99.3617 15.8003 100 15.8003C100.638 15.8003 101.251 15.5497 101.706 15.1024C102.162 14.6552 102.423 14.047 102.435 13.4088ZM100 42.4686C99.3543 42.4686 98.735 42.212 98.2784 41.7554C97.8218 41.2988 97.5652 40.6795 97.5652 40.0338V33.6924C97.5652 33.0466 97.8218 32.4274 98.2784 31.9707C98.735 31.5141 99.3543 31.2576 100 31.2576C100.646 31.2576 101.265 31.5141 101.722 31.9707C102.178 32.4274 102.435 33.0466 102.435 33.6924V40.0338C102.435 40.6795 102.178 41.2988 101.722 41.7554C101.265 42.212 100.646 42.4686 100 42.4686Z" fill="#FF4155"/>
<path d="M100 40.0342C80.8023 40.0342 68.6406 47.4178 68.6406 47.4178C68.6406 51.2115 69.0687 54.2213 69.6414 56.5498C70.432 59.765 74.3156 61.0084 76.8719 58.9041C87.3633 50.2662 100 50.6322 100 50.6322C100 50.6322 112.637 50.2666 123.128 58.9041C125.684 61.0084 129.568 59.765 130.359 56.5498C130.931 54.2213 131.359 51.2119 131.359 47.4178C131.359 47.4182 119.198 40.0342 100 40.0342Z" fill="#E9EFFF"/>
<path d="M89.4461 51.6042C86.4281 48.0089 88.3852 43.894 89.7141 41.8757C89.8241 41.7079 89.8979 41.519 89.9307 41.321C89.9636 41.123 89.9547 40.9204 89.9047 40.7261C76.6406 42.562 68.641 47.4175 68.641 47.4175C68.641 51.2112 69.0687 54.221 69.6414 56.5495C70.432 59.7647 74.3156 61.0081 76.8719 58.9038C81.1422 55.3878 85.7676 53.3644 89.7519 52.1999C89.6963 51.9808 89.5917 51.7771 89.4461 51.6042Z" fill="#D3DCFB"/>
<path d="M104.892 18.2188C104.331 16.8164 104.479 15.6633 104.701 14.9426C104.757 14.7602 104.821 14.5953 104.886 14.45C104.924 14.3625 104.946 14.2682 104.948 14.1724C104.95 14.0767 104.934 13.9815 104.899 13.8922C104.865 13.8029 104.813 13.7212 104.747 13.652C104.68 13.5828 104.601 13.5273 104.514 13.4887C103.093 12.8569 101.555 12.5313 99.9996 12.5332C98.4447 12.5312 96.9067 12.8567 95.486 13.4887C95.3984 13.5273 95.3192 13.5828 95.2531 13.6521C95.187 13.7213 95.1352 13.8029 95.1006 13.8922C95.0661 13.9815 95.0495 14.0767 95.0518 14.1725C95.0541 14.2682 95.0753 14.3625 95.1141 14.45C95.1789 14.5953 95.2426 14.7602 95.2988 14.9426C95.7016 16.2481 95.4168 17.4445 95.107 18.2188C94.1184 20.6906 90.7445 26.3301 91.9238 31.2875C93.95 33.4289 96.8188 34.7652 99.9996 34.7652C103.18 34.7652 106.049 33.4289 108.075 31.2871C109.255 26.3317 105.883 20.6957 104.892 18.2188Z" fill="#E9EFFF"/>
<path d="M108.076 31.2871C108.877 27.9195 107.577 24.2395 106.351 21.4484C106.082 21.4673 105.828 21.5738 105.626 21.7516C100.575 26.2852 95.7836 22.975 94.2918 21.7094C94.1108 21.558 93.8903 21.4616 93.6562 21.4316C92.4281 24.2238 91.1215 27.9129 91.9242 31.2867C93.9504 33.4281 96.8191 34.7645 100 34.7645C103.181 34.7652 106.05 33.4289 108.076 31.2871Z" fill="#D3DCFB"/>
<path d="M111.116 23.6494C111.116 19.6432 108.996 16.1322 105.818 14.1764C105.728 14.1215 105.628 14.0866 105.524 14.0741C105.42 14.0615 105.315 14.0717 105.215 14.1038C105.115 14.1359 105.023 14.1892 104.946 14.26C104.869 14.3309 104.808 14.4176 104.768 14.5143C104.435 15.3135 104.164 16.6209 104.815 18.2502C105.818 20.758 109.232 26.449 107.962 31.4057C109.913 29.4026 111.116 26.6666 111.116 23.6494Z" fill="#BEC8F7"/>
<path d="M107.962 31.4049C109.913 29.4022 111.116 26.6662 111.116 23.649C111.116 22.0709 110.783 20.5717 110.19 19.2119C109.388 21.6889 107.651 21.6752 106.73 21.4682C106.577 21.4365 106.42 21.4335 106.266 21.4596C107.509 24.283 108.83 28.0154 107.962 31.4049Z" fill="#A6B7F4"/>
<path d="M94.1824 14.1762C91.0035 16.1324 88.884 19.643 88.884 23.6492C88.884 26.6664 90.0867 29.4023 92.0379 31.4051C90.7683 26.4484 94.1816 20.757 95.1848 18.2496C95.8363 16.6203 95.5652 15.3133 95.2324 14.5137C95.1919 14.417 95.131 14.3303 95.0537 14.2594C94.9765 14.1885 94.8849 14.1352 94.7851 14.1032C94.6853 14.0711 94.5798 14.061 94.4758 14.0736C94.3717 14.0862 94.2716 14.1212 94.1824 14.1762Z" fill="#BEC8F7"/>
<path d="M92.0379 31.405C91.168 28.0093 92.4961 24.269 93.7414 21.4437C93.5782 21.4072 93.409 21.4071 93.2457 21.4433C91.1383 21.9397 90.2949 20.6304 89.9805 19.812C89.9204 19.6631 89.8322 19.5272 89.7207 19.4116C89.1665 20.7555 88.8822 22.1954 88.884 23.6491C88.8802 26.5475 90.0124 29.3319 92.0379 31.405Z" fill="#A6B7F4"/>
<path d="M161.693 156.512C161.289 154.845 160.718 153.569 160.067 152.594C158.369 150.051 154.37 151.399 154.533 154.453C155.103 165.149 150.468 174.687 150.468 174.687C150.585 174.687 150.697 174.732 150.781 174.813C150.865 174.894 150.915 175.005 150.918 175.122C151.014 178.139 151.18 181.57 151.465 184.997C156.299 181.905 160.846 178.386 165.052 174.483C163.934 167.768 162.623 160.352 161.693 156.512Z" fill="#2E8BE6"/>
</svg>
