<svg width="30" height="30" viewBox="0 0 30 30" fill="none" xmlns="http://www.w3.org/2000/svg">
<g clip-path="url(#clip0_983_55)">
<path d="M17.5 17V15.323C18.1944 14.9223 18.7822 14.3604 19.2139 13.6849C19.6456 13.0094 19.9085 12.24 19.9805 11.4415C20.3833 11.3436 20.7455 11.1225 21.0167 10.809C21.2879 10.4956 21.4546 10.1053 21.4936 9.69263C21.5326 9.27995 21.4418 8.86539 21.2341 8.5067C21.0263 8.14801 20.7119 7.86305 20.3345 7.6915C20.4327 7.13271 20.488 6.56723 20.5 6V5.5C20.5 4.04131 19.9205 2.64236 18.8891 1.61091C17.8576 0.579463 16.4587 0 15 0C13.5413 0 12.1424 0.579463 11.1109 1.61091C10.0795 2.64236 9.5 4.04131 9.5 5.5V6C9.51189 6.56773 9.56722 7.13372 9.6655 7.693C9.28815 7.86454 8.97369 8.14951 8.76593 8.5082C8.55817 8.86689 8.46745 9.28145 8.5064 9.69413C8.54536 10.1068 8.71206 10.4971 8.98327 10.8105C9.25448 11.124 9.61671 11.3451 10.0195 11.443C10.0917 12.2412 10.3548 13.0103 10.7865 13.6856C11.2182 14.3608 11.8058 14.9224 12.5 15.323V17C10.7767 17.002 9.12455 17.6874 7.906 18.906C6.68744 20.1246 6.00198 21.7767 6 23.5V28C6 28.5304 6.21071 29.0391 6.58579 29.4142C6.96086 29.7893 7.46957 30 8 30H22C22.5304 30 23.0391 29.7893 23.4142 29.4142C23.7893 29.0391 24 28.5304 24 28V23.5C23.998 21.7767 23.3126 20.1246 22.094 18.906C20.8754 17.6874 19.2233 17.002 17.5 17ZM15 1C16.1492 1.00142 17.2544 1.44248 18.0888 2.23273C18.9232 3.02298 19.4237 4.10254 19.4875 5.25C16.5797 4.248 13.4203 4.248 10.5125 5.25C10.5763 4.10254 11.0768 3.02298 11.9112 2.23273C12.7456 1.44248 13.8508 1.00142 15 1ZM19.488 6.3225C19.4617 6.76291 19.4091 7.20136 19.3305 7.6355C19.3183 7.70222 19.2907 7.76517 19.2498 7.8193C19.2089 7.87344 19.156 7.91727 19.0951 7.94729C19.0343 7.97732 18.9673 7.9927 18.8995 7.99221C18.8317 7.99173 18.7649 7.97539 18.7045 7.9445C17.5587 7.34912 16.291 7.02591 15 7C13.709 7.02591 12.4413 7.34912 11.2955 7.9445C11.2351 7.97528 11.1684 7.99155 11.1007 7.99201C11.0329 7.99247 10.966 7.97711 10.9052 7.94716C10.8444 7.9172 10.7914 7.87348 10.7505 7.81946C10.7096 7.76544 10.6819 7.70262 10.6695 7.636C10.591 7.20135 10.5384 6.7624 10.512 6.3215C13.4035 5.22481 16.5965 5.22481 19.488 6.3215V6.3225ZM11 11C11 10.8674 10.9473 10.7402 10.8536 10.6464C10.7598 10.5527 10.6326 10.5 10.5 10.5C10.2697 10.5011 10.0462 10.4225 9.86741 10.2774C9.68862 10.1323 9.56562 9.92971 9.51935 9.70415C9.47309 9.47858 9.5064 9.24395 9.61363 9.04018C9.72086 8.83641 9.89538 8.67609 10.1075 8.5865C10.3198 8.79513 10.5924 8.93158 10.8866 8.97646C11.1808 9.02134 11.4817 8.97237 11.7465 8.8365C12.7525 8.31175 13.8657 8.02553 15 8C16.1344 8.02569 17.2476 8.31208 18.2535 8.837C18.5177 8.97533 18.8192 9.02568 19.114 8.98071C19.4088 8.93574 19.6816 8.79781 19.8925 8.587C20.1043 8.67679 20.2785 8.83712 20.3855 9.04078C20.4925 9.24443 20.5257 9.47884 20.4794 9.70419C20.4332 9.92954 20.3104 10.1319 20.1318 10.277C19.9533 10.4221 19.73 10.5009 19.5 10.5C19.3674 10.5 19.2402 10.5527 19.1464 10.6464C19.0527 10.7402 19 10.8674 19 11C19 12.0609 18.5786 13.0783 17.8284 13.8284C17.0783 14.5786 16.0609 15 15 15C13.9391 15 12.9217 14.5786 12.1716 13.8284C11.4214 13.0783 11 12.0609 11 11ZM15 16C15.509 15.9993 16.0149 15.9206 16.5 15.7665V17.5C16.5 17.8978 16.342 18.2794 16.0607 18.5607C15.7794 18.842 15.3978 19 15 19C14.6022 19 14.2206 18.842 13.9393 18.5607C13.658 18.2794 13.5 17.8978 13.5 17.5V15.7665C13.9851 15.9206 14.491 15.9993 15 16ZM12.55 18C12.6648 18.5651 12.9714 19.0732 13.4179 19.4382C13.8644 19.8031 14.4233 20.0025 15 20.0025C15.5767 20.0025 16.1356 19.8031 16.5821 19.4382C17.0286 19.0732 17.3352 18.5651 17.45 18H17.5C17.8356 18.0012 18.1703 18.0332 18.5 18.0955V18.5C18.4993 19.1655 18.3081 19.8169 17.949 20.3772C17.5899 20.9376 17.0779 21.3834 16.4735 21.662C16.2535 21.3963 15.9641 21.1969 15.6375 21.0858C15.3109 20.9748 14.9599 20.9565 14.6235 21.033C14.1966 21.115 13.8084 21.3346 13.518 21.658C12.9158 21.3784 12.406 20.9327 12.0485 20.3733C11.691 19.8138 11.5007 19.1639 11.5 18.5V18.0955C11.8297 18.0332 12.1644 18.0012 12.5 18H12.55ZM14.6605 23.937C14.4327 23.8568 14.242 23.6963 14.1243 23.4854C14.0065 23.2746 13.9698 23.028 14.021 22.792C14.0715 22.5494 14.2103 22.3341 14.4105 22.188C14.6107 22.0419 14.8581 21.9754 15.1045 22.0013C15.351 22.0272 15.5791 22.1437 15.7446 22.3282C15.91 22.5128 16.001 22.7522 16 23V26H15.5C15.3674 26 15.2402 25.9473 15.1464 25.8536C15.0527 25.7598 15 25.6326 15 25.5V24.41C14.9999 24.3056 14.9672 24.2039 14.9064 24.1191C14.8456 24.0343 14.7598 23.9706 14.661 23.937H14.6605ZM23 28C23 28.2652 22.8946 28.5196 22.7071 28.7071C22.5196 28.8946 22.2652 29 22 29H20.5V24.5C20.5 24.3674 20.4473 24.2402 20.3536 24.1464C20.2598 24.0527 20.1326 24 20 24C19.8674 24 19.7402 24.0527 19.6464 24.1464C19.5527 24.2402 19.5 24.3674 19.5 24.5V29H10.5V24.5C10.5 24.3674 10.4473 24.2402 10.3536 24.1464C10.2598 24.0527 10.1326 24 10 24C9.86739 24 9.74021 24.0527 9.64645 24.1464C9.55268 24.2402 9.5 24.3674 9.5 24.5V29H8C7.73478 29 7.48043 28.8946 7.29289 28.7071C7.10536 28.5196 7 28.2652 7 28V23.5C7.00179 22.3941 7.33664 21.3143 7.96094 20.4014C8.58523 19.4885 9.47001 18.7848 10.5 18.382V18.5C10.5004 19.3471 10.7403 20.1768 11.192 20.8935C11.6437 21.6101 12.2889 22.1843 13.053 22.55C13.049 22.568 13.042 22.5855 13.0385 22.604C12.9536 23.0148 13.001 23.4419 13.1737 23.8241C13.3464 24.2064 13.6356 24.5242 14 24.732V25.5C14 25.8978 14.158 26.2794 14.4393 26.5607C14.7206 26.842 15.1022 27 15.5 27H16C16.2652 27 16.5196 26.8946 16.7071 26.7071C16.8946 26.5196 17 26.2652 17 26V23C17.0001 22.8486 16.9834 22.6977 16.95 22.55C17.7136 22.184 18.3582 21.6095 18.8094 20.8929C19.2605 20.1763 19.5 19.3468 19.5 18.5V18.382C20.53 18.7848 21.4148 19.4885 22.0391 20.4014C22.6634 21.3143 22.9982 22.3941 23 23.5V28Z" fill="black"/>
</g>
<defs>
<clipPath id="clip0_983_55">
<rect width="30" height="30" fill="white"/>
</clipPath>
</defs>
</svg>
