<svg width="281" height="430" viewBox="0 0 281 430" fill="none" xmlns="http://www.w3.org/2000/svg">
<path d="M280.667 327.169V342.031C280.283 342.473 174.637 427.398 174.637 427.398C171.885 429.609 168.046 430.317 164.462 429.875L164.526 415.101C168.11 415.632 171.885 414.747 174.637 412.536C174.637 412.536 280.283 327.611 280.667 327.169Z" fill="#BFBFBF"/>
<path d="M272.054 339.431V343.748L263.736 350.444V346.127L272.054 339.431ZM261.963 347.569V351.886L253.645 358.583V354.266L261.963 347.569Z" fill="#787677"/>
<path d="M4.23927 281.452L158.038 412.519C159.862 413.961 162.152 414.668 164.501 414.969V429.884C162.14 429.583 159.849 428.875 158.038 427.416L4.23927 296.358C1.92285 294.527 0.80304 292.147 0.80304 289.776V274.87C0.80304 277.25 1.92285 279.629 4.23927 281.452Z" fill="#B0AFB0"/>
<path d="M275.267 318.217C279.874 321.888 279.893 327.824 275.324 331.486L174.624 412.519C170.055 416.199 162.645 416.199 158.051 412.519L4.22646 281.514C-0.329593 277.878 -0.355188 271.942 4.22006 268.271L98.8797 191.6C103.455 187.928 110.858 187.928 115.421 191.564L275.267 318.217Z" fill="#E8E8E8"/>
<path d="M98.6429 8.43664C100.499 6.96815 103.077 7.15393 105.918 9.43627L261.496 133.638C267.185 138.212 271.747 149.093 271.677 158.143L271.35 334.671L280.674 327.169L281 150.641C281 141.591 276.508 130.719 270.819 126.146L115.178 1.94345C112.401 -0.338897 109.822 -0.52467 107.966 0.934971L98.6429 8.43664Z" fill="#787677"/>
<path d="M261.509 133.656C267.165 138.168 271.715 149.12 271.696 158.108L271.331 334.698L95.277 194.174L95.6418 17.5841C95.661 8.59623 100.236 4.93386 105.893 9.44548L261.509 133.656Z" fill="#4F4D4D"/>
<path d="M265.079 158.08C265.092 152.33 261.816 144.457 258.207 141.573L102.252 17.1143L101.887 188.91L264.74 318.888L265.079 158.08Z" fill="#1D742A"/>
<path d="M265.079 158.08C265.092 152.33 261.816 144.457 258.207 141.573L102.252 17.1143C102.252 17.2646 264.747 318.888 264.747 318.888L265.079 158.08Z" fill="#196525"/>
<path d="M110.276 219.111V220.651L100.121 228.807V227.268L110.276 219.111Z" fill="#686868"/>
<path d="M100.127 227.268V228.807L89.9339 220.669V219.138L100.127 227.268Z" fill="#4F4D4D"/>
<path d="M110.276 219.111L100.127 227.267L89.9339 219.138L100.089 210.981L110.276 219.111Z" fill="#929393"/>
<path d="M123.016 229.285V230.824L112.868 238.98V237.441L123.016 229.285Z" fill="#686868"/>
<path d="M112.868 237.441V238.98L102.674 230.841V229.311L112.868 237.441Z" fill="#4F4D4D"/>
<path d="M123.016 229.285L112.868 237.441L102.681 229.302L112.829 221.155L123.016 229.285Z" fill="#929393"/>
<path d="M135.763 239.458V240.998L125.608 249.154V247.615L135.763 239.458Z" fill="#686868"/>
<path d="M125.608 247.615V249.154L115.389 240.998V239.458L125.608 247.615Z" fill="#4F4D4D"/>
<path d="M135.763 239.459L125.608 247.615L115.395 239.459L125.544 231.302L135.763 239.459Z" fill="#929393"/>
<path d="M148.478 249.604V251.144L138.323 259.3V257.761L148.478 249.604Z" fill="#686868"/>
<path d="M138.323 257.761V259.3L128.136 251.162V249.631L138.323 257.761Z" fill="#4F4D4D"/>
<path d="M148.478 249.604L138.323 257.76L128.136 249.622L138.284 241.474L148.478 249.604Z" fill="#929393"/>
<path d="M161.218 259.778V261.308L151.063 269.465V267.934L161.218 259.778Z" fill="#686868"/>
<path d="M151.069 267.934V269.464L140.876 261.335V259.795L151.069 267.934Z" fill="#4F4D4D"/>
<path d="M161.218 259.777L151.069 267.934L140.882 259.795L151.031 251.639L161.218 259.777Z" fill="#929393"/>
<path d="M173.933 269.924V271.464L163.778 279.62V278.081L173.933 269.924Z" fill="#686868"/>
<path d="M163.784 278.072V279.611L153.591 271.482V269.942L163.784 278.072Z" fill="#4F4D4D"/>
<path d="M173.933 269.925L163.784 278.081L153.591 269.942L163.746 261.795L173.933 269.925Z" fill="#929393"/>
<path d="M186.673 280.098V281.629L176.518 289.785V288.246L186.673 280.098Z" fill="#686868"/>
<path d="M176.524 288.246V289.785L166.331 281.647V280.116L176.524 288.246Z" fill="#4F4D4D"/>
<path d="M186.673 280.098L176.524 288.245L166.337 280.115L176.486 271.959L186.673 280.098Z" fill="#929393"/>
<path d="M212.135 300.408L212.128 301.947L202.005 310.086V308.547L212.135 300.408Z" fill="#686868"/>
<path d="M202.011 308.547V310.078L179.071 291.783L179.078 290.244L202.011 308.547Z" fill="#4F4D4D"/>
<path d="M212.135 300.409L202.011 308.548L179.078 290.236L189.201 282.106L212.135 300.409Z" fill="#929393"/>
<path d="M224.875 310.582V312.121L214.72 320.278V318.738L224.875 310.582Z" fill="#686868"/>
<path d="M214.726 318.738V320.278L204.501 312.121V310.582L214.726 318.738Z" fill="#4F4D4D"/>
<path d="M224.875 310.583L214.726 318.739L204.507 310.583L214.656 302.426L224.875 310.583Z" fill="#929393"/>
<path d="M237.59 320.729V322.268L227.434 330.425V328.885L237.59 320.729Z" fill="#686868"/>
<path d="M227.434 328.885V330.424L217.247 322.286V320.755L227.434 328.885Z" fill="#4F4D4D"/>
<path d="M237.59 320.729L227.434 328.885L217.247 320.747L227.402 312.599L237.59 320.729Z" fill="#929393"/>
<path d="M250.33 330.902V332.442L240.175 340.598V339.059L250.33 330.902Z" fill="#686868"/>
<path d="M240.181 339.058V340.598L229.988 332.459V330.929L240.181 339.058Z" fill="#4F4D4D"/>
<path d="M250.33 330.902L240.181 339.059L229.994 330.92L240.143 322.772L250.33 330.902Z" fill="#929393"/>
<path d="M97.0687 229.728V231.267L86.9456 239.397V237.857L97.0687 229.728Z" fill="#686868"/>
<path d="M86.9456 237.857V239.397L76.7521 231.258V229.728L86.9456 237.857Z" fill="#4F4D4D"/>
<path d="M97.0687 229.726L86.9456 237.865L76.7585 229.726L86.8816 221.588L97.0687 229.726Z" fill="#929393"/>
<path d="M109.809 239.9V241.431L99.6859 249.569V248.03L109.809 239.9Z" fill="#686868"/>
<path d="M99.6923 248.03L99.6859 249.569L89.4988 241.431V239.9L99.6923 248.03Z" fill="#4F4D4D"/>
<path d="M109.809 239.9L99.6859 248.03L89.4988 239.891L99.6219 231.762L109.809 239.9Z" fill="#929393"/>
<path d="M122.556 250.064V251.604L112.426 259.742V258.203L122.556 250.064Z" fill="#686868"/>
<path d="M112.426 258.204V259.743L102.207 251.587L102.213 250.048L112.426 258.204Z" fill="#4F4D4D"/>
<path d="M122.556 250.065L112.433 258.204L102.214 250.047L112.337 241.909L122.556 250.065Z" fill="#929393"/>
<path d="M135.27 260.212L135.264 261.751L125.141 269.89V268.351L135.27 260.212Z" fill="#686868"/>
<path d="M125.147 268.341V269.889L114.954 261.751V260.22L125.147 268.341Z" fill="#4F4D4D"/>
<path d="M135.271 260.211L125.147 268.35L114.954 260.211L125.077 252.082L135.271 260.211Z" fill="#929393"/>
<path d="M148.004 270.385V271.924L137.888 280.063V278.523L148.004 270.385Z" fill="#686868"/>
<path d="M137.888 278.515V280.054L127.694 271.924V270.385L137.888 278.515Z" fill="#4F4D4D"/>
<path d="M148.004 270.385L137.888 278.523L127.701 270.385L137.824 262.255L148.004 270.385Z" fill="#929393"/>
<path d="M160.725 280.531V282.07L150.596 290.209V288.669L160.725 280.531Z" fill="#686868"/>
<path d="M150.602 288.669V290.2L140.409 282.07V280.531L150.602 288.669Z" fill="#4F4D4D"/>
<path d="M160.725 280.531L150.602 288.67L140.415 280.531L150.538 272.401L160.725 280.531Z" fill="#929393"/>
<path d="M173.472 290.705L173.466 292.244L163.343 300.382V298.834L173.472 290.705Z" fill="#686868"/>
<path d="M163.343 298.834V300.374L153.156 292.235V290.705L163.343 298.834Z" fill="#4F4D4D"/>
<path d="M173.472 290.705L163.343 298.843L153.156 290.705L163.279 282.566L173.472 290.705Z" fill="#929393"/>
<path d="M186.18 300.852V302.391L176.057 310.529V308.981L186.18 300.852Z" fill="#686868"/>
<path d="M176.057 308.981V310.52L165.857 302.399V300.86L176.057 308.981Z" fill="#4F4D4D"/>
<path d="M186.18 300.852L176.057 308.99L165.87 300.852L175.993 292.713L186.18 300.852Z" fill="#929393"/>
<path d="M198.921 311.024V312.564L188.798 320.693V319.154L198.921 311.024Z" fill="#686868"/>
<path d="M188.804 319.154L188.798 320.693L178.61 312.555V311.024L188.804 319.154Z" fill="#4F4D4D"/>
<path d="M198.921 311.024L188.798 319.163L178.61 311.024L188.734 302.886L198.921 311.024Z" fill="#929393"/>
<path d="M211.667 321.197V322.728L201.538 330.866V329.327L211.667 321.197Z" fill="#686868"/>
<path d="M201.544 329.327V330.866L191.325 322.71V321.171L201.544 329.327Z" fill="#4F4D4D"/>
<path d="M211.667 321.198L201.544 329.328L191.325 321.172L201.448 313.033L211.667 321.198Z" fill="#929393"/>
<path d="M224.382 331.344V332.883L214.253 341.013V339.474L224.382 331.344Z" fill="#686868"/>
<path d="M214.259 339.474V341.013L204.065 332.875V331.344L214.259 339.474Z" fill="#4F4D4D"/>
<path d="M224.382 331.344L214.259 339.483L204.065 331.344L214.189 323.206L224.382 331.344Z" fill="#929393"/>
<path d="M237.122 341.509V343.048L226.999 351.187V349.647L237.122 341.509Z" fill="#686868"/>
<path d="M226.999 349.639V351.187L216.806 343.048V341.518L226.999 349.639Z" fill="#4F4D4D"/>
<path d="M237.122 341.509L226.999 349.647L216.812 341.509L226.935 333.379L237.122 341.509Z" fill="#929393"/>
<path d="M83.8869 240.361V241.9L60.5564 260.645V259.106L83.8869 240.361Z" fill="#686868"/>
<path d="M60.5563 259.106V260.645L50.3372 252.489V250.95L60.5563 259.106Z" fill="#4F4D4D"/>
<path d="M83.8869 240.36L60.5563 259.105L50.3436 250.949L73.6742 232.204L83.8869 240.36Z" fill="#929393"/>
<path d="M96.6016 250.507V252.046L86.4785 260.185V258.637L96.6016 250.507Z" fill="#686868"/>
<path d="M86.4784 258.637V260.176L76.2913 252.037V250.507L86.4784 258.637Z" fill="#4F4D4D"/>
<path d="M96.6016 250.507L86.4784 258.645L76.2913 250.507L86.4145 242.368L96.6016 250.507Z" fill="#929393"/>
<path d="M109.348 260.68V262.219L99.2188 270.349V268.81L109.348 260.68Z" fill="#686868"/>
<path d="M99.2252 268.81V270.349L89.0061 262.193V260.654L99.2252 268.81Z" fill="#4F4D4D"/>
<path d="M109.348 260.681L99.2252 268.819L89.0061 260.654L99.1292 252.524L109.348 260.681Z" fill="#929393"/>
<path d="M122.057 270.827V272.366L111.933 280.496V278.957L122.057 270.827Z" fill="#686868"/>
<path d="M111.94 278.957V280.496L101.746 272.358V270.827L111.94 278.957Z" fill="#4F4D4D"/>
<path d="M122.057 270.827L111.94 278.965L101.746 270.827L111.869 262.688L122.057 270.827Z" fill="#929393"/>
<path d="M134.803 280.991V282.53L124.68 290.669V289.13L134.803 280.991Z" fill="#686868"/>
<path d="M124.68 289.13V290.67L114.487 282.531V281L124.68 289.13Z" fill="#4F4D4D"/>
<path d="M134.803 280.991L124.68 289.13L114.493 280.991L124.616 272.861L134.803 280.991Z" fill="#929393"/>
<path d="M147.518 291.146V292.686L137.395 300.815V299.276L147.518 291.146Z" fill="#686868"/>
<path d="M137.395 299.276V300.815L127.201 292.677V291.146L137.395 299.276Z" fill="#4F4D4D"/>
<path d="M147.518 291.147L137.395 299.286L127.208 291.147L137.331 283.009L147.518 291.147Z" fill="#929393"/>
<path d="M160.258 301.319V302.85L150.135 310.988V309.449L160.258 301.319Z" fill="#686868"/>
<path d="M150.135 309.449V310.988L139.948 302.85V301.311L150.135 309.449Z" fill="#4F4D4D"/>
<path d="M160.258 301.32L150.135 309.449L139.948 301.311L150.071 293.181L160.258 301.32Z" fill="#929393"/>
<path d="M172.973 311.467V312.998L162.85 321.136V319.597L172.973 311.467Z" fill="#686868"/>
<path d="M162.85 319.597V321.136L152.663 312.998V311.467L162.85 319.597Z" fill="#4F4D4D"/>
<path d="M172.973 311.467L162.85 319.597L152.663 311.458L162.786 303.329L172.973 311.467Z" fill="#929393"/>
<path d="M83.3943 261.123V262.662L73.2711 270.792V269.253L83.3943 261.123Z" fill="#686868"/>
<path d="M73.271 269.253V270.792L63.0839 262.653V261.123L73.271 269.253Z" fill="#4F4D4D"/>
<path d="M83.3942 261.123L73.271 269.253L63.0839 261.114L73.2071 252.984L83.3942 261.123Z" fill="#929393"/>
<path d="M96.1345 271.287V272.826L86.0114 280.964V279.425L96.1345 271.287Z" fill="#686868"/>
<path d="M86.0178 279.426V280.956L75.7986 272.8V271.27L86.0178 279.426Z" fill="#4F4D4D"/>
<path d="M96.1345 271.287L86.0178 279.425L75.7986 271.269L85.9218 263.13L96.1345 271.287Z" fill="#929393"/>
<path d="M146.993 311.927V313.467L136.896 321.57V320.039L146.993 311.927Z" fill="#686868"/>
<path d="M136.902 320.039V321.57L88.5389 282.973V281.434L136.902 320.039Z" fill="#4F4D4D"/>
<path d="M146.993 311.926L136.902 320.038L88.5389 281.433L98.6365 273.33L146.993 311.926Z" fill="#929393"/>
<path d="M159.766 322.074V323.613L149.642 331.752V330.203L159.766 322.074Z" fill="#686868"/>
<path d="M149.642 330.203V331.743L139.449 323.604V322.074L149.642 330.203Z" fill="#4F4D4D"/>
<path d="M159.766 322.074L149.642 330.212L139.455 322.074L149.579 313.944L159.766 322.074Z" fill="#929393"/>
<path d="M185.713 321.631V323.17L162.383 341.915V340.376L185.713 321.631Z" fill="#686868"/>
<path d="M162.389 340.377L162.383 341.916L152.164 333.759V332.22L162.389 340.377Z" fill="#4F4D4D"/>
<path d="M185.713 321.631L162.389 340.386L152.17 332.22L175.501 313.484L185.713 321.631Z" fill="#929393"/>
<path d="M198.46 331.804V333.343L188.337 341.482V339.934L198.46 331.804Z" fill="#686868"/>
<path d="M188.337 339.935V341.474L178.118 333.318V331.778L188.337 339.935Z" fill="#4F4D4D"/>
<path d="M198.46 331.805L188.337 339.944L178.118 331.788L188.241 323.649L198.46 331.805Z" fill="#929393"/>
<path d="M211.175 341.952V343.491L201.045 351.63V350.09L211.175 341.952Z" fill="#686868"/>
<path d="M201.052 350.081V351.621L190.858 343.491V341.952L201.052 350.081Z" fill="#4F4D4D"/>
<path d="M211.175 341.952L201.052 350.09L190.864 341.952L200.981 333.822L211.175 341.952Z" fill="#929393"/>
<path d="M185.246 342.42V343.95L175.123 352.089V350.55L185.246 342.42Z" fill="#686868"/>
<path d="M175.129 350.55V352.089L164.91 343.933V342.385L175.129 350.55Z" fill="#4F4D4D"/>
<path d="M185.246 342.42L175.129 350.549L164.91 342.393L175.033 334.254L185.246 342.42Z" fill="#929393"/>
<path d="M197.961 352.558V354.106L187.838 362.236V360.697L197.961 352.558Z" fill="#686868"/>
<path d="M187.844 360.697V362.236L177.651 354.097V352.567L187.844 360.697Z" fill="#4F4D4D"/>
<path d="M197.961 352.558L187.844 360.697L177.657 352.558L187.774 344.438L197.961 352.558Z" fill="#929393"/>
<path d="M223.915 352.124V353.663L200.584 372.409V370.869L223.915 352.124Z" fill="#686868"/>
<path d="M200.584 370.87V372.409L190.365 364.253V362.714L200.584 370.87Z" fill="#4F4D4D"/>
<path d="M223.915 352.124L200.584 370.869L190.365 362.713L213.696 343.968L223.915 352.124Z" fill="#929393"/>
<path d="M70.1356 319.96L91.8792 302.453C92.2676 302.159 92.7033 302.004 93.1462 302.004C93.589 302.004 94.0248 302.159 94.4132 302.453L138.137 337.378C138.751 337.891 138.937 338.829 138.63 339.599C138.608 339.399 138.552 339.21 138.466 339.046C138.381 338.883 138.268 338.751 138.137 338.661L94.4132 303.736C94.0248 303.441 93.589 303.287 93.1462 303.287C92.7033 303.287 92.2676 303.441 91.8792 303.736L70.142 321.163C69.886 321.322 69.7708 321.587 69.6428 321.924C69.3997 321.242 69.5788 320.384 70.1356 319.96Z" fill="#B0AFB0"/>
<path d="M91.8792 303.735C92.2676 303.441 92.7033 303.287 93.1462 303.287C93.5891 303.287 94.0248 303.441 94.4132 303.735L138.137 338.66C138.444 338.917 138.566 339.173 138.63 339.598C138.595 339.78 138.533 339.951 138.449 340.099C138.364 340.246 138.258 340.368 138.137 340.456L116.394 357.954C116.017 358.25 115.592 358.405 115.159 358.405C114.726 358.405 114.3 358.25 113.924 357.954L70.1932 323.038C69.886 322.772 69.6365 322.348 69.6365 321.923C69.7645 321.587 69.886 321.322 70.1292 321.153L91.8792 303.735Z" fill="#B9B9BA"/>
</svg>
