<svg width="31" height="31" viewBox="0 0 31 31" fill="none" xmlns="http://www.w3.org/2000/svg">
<path d="M28.4173 19.6979H27.7508L24.1832 11.7981L26.1388 12.5318C26.3793 12.6222 26.6459 12.6134 26.8799 12.5073C27.1139 12.4012 27.2961 12.2065 27.3866 11.966C27.477 11.7255 27.4682 11.459 27.3621 11.225C27.256 10.991 27.0613 10.8087 26.8208 10.7183L17.7611 7.32117V4.52083C17.7611 4.26391 17.659 4.0175 17.4773 3.83582C17.2957 3.65415 17.0492 3.55208 16.7923 3.55208C16.5354 3.55208 16.289 3.65415 16.1073 3.83582C15.9256 4.0175 15.8236 4.26391 15.8236 4.52083V6.59396L6.15415 2.96825C5.91367 2.87781 5.6471 2.88661 5.41311 2.99271C5.17911 3.09881 4.99684 3.29352 4.9064 3.534C4.81596 3.77449 4.82476 4.04105 4.93086 4.27505C5.03696 4.50904 5.23167 4.69131 5.47215 4.78175L7.33603 5.48054L3.21948 14.5313H2.58398C2.32706 14.5313 2.08065 14.6333 1.89897 14.815C1.7173 14.9967 1.61523 15.2431 1.61523 15.5C1.61523 17.2985 2.32969 19.0233 3.60142 20.2951C4.87315 21.5668 6.59799 22.2813 8.39648 22.2813C10.195 22.2813 11.9198 21.5668 13.1916 20.2951C14.4633 19.0233 15.1777 17.2985 15.1777 15.5C15.1777 15.2431 15.0757 14.9967 14.894 14.815C14.7123 14.6333 14.4659 14.5313 14.209 14.5313H13.5425L9.88707 6.43767L21.4824 10.7854L17.4278 19.6979H16.7923C16.5354 19.6979 16.289 19.8 16.1073 19.9817C15.9256 20.1633 15.8236 20.4097 15.8236 20.6667C15.8236 22.4652 16.538 24.19 17.8098 25.4617C19.0815 26.7335 20.8063 27.4479 22.6048 27.4479C24.4033 27.4479 26.1282 26.7335 27.3999 25.4617C28.6716 24.19 29.3861 22.4652 29.3861 20.6667C29.3861 20.4097 29.284 20.1633 29.1023 19.9817C28.9207 19.8 28.6742 19.6979 28.4173 19.6979ZM8.39648 20.3438C7.2803 20.3423 6.19875 19.9561 5.33408 19.2502C4.46942 18.5444 3.87451 17.562 3.64961 16.4688H13.1434C12.9185 17.562 12.3236 18.5444 11.4589 19.2502C10.5942 19.9561 9.51267 20.3423 8.39648 20.3438ZM5.34815 14.5313L8.3939 7.83525L11.4164 14.5313H5.34815ZM22.6022 13.0019L25.6247 19.6979H19.5565L22.6022 13.0019ZM22.6048 25.5104C21.4886 25.5089 20.4071 25.1227 19.5424 24.4169C18.6778 23.7111 18.0828 22.7287 17.8579 21.6354H27.3517C27.1268 22.7287 26.5319 23.7111 25.6672 24.4169C24.8026 25.1227 23.721 25.5089 22.6048 25.5104Z" fill="white"/>
</svg>
