<svg width="14" height="18" viewBox="0 0 14 18" fill="none" xmlns="http://www.w3.org/2000/svg">
<path d="M13.4615 1.8H9.69231V0.6C9.69231 0.44087 9.63558 0.288258 9.5346 0.175736C9.43362 0.0632141 9.29666 0 9.15385 0H4.84615C4.70335 0 4.56639 0.0632141 4.4654 0.175736C4.36442 0.288258 4.30769 0.44087 4.30769 0.6V1.8H0.538462C0.395653 1.8 0.258693 1.86321 0.157712 1.97574C0.0567306 2.08826 0 2.24087 0 2.4V4.2C0 4.35913 0.0567306 4.51174 0.157712 4.62426C0.258693 4.73679 0.395653 4.8 0.538462 4.8H1.07692V15.6C1.07692 16.9236 2.04292 18 3.23077 18H10.7692C11.9571 18 12.9231 16.9236 12.9231 15.6V4.8H13.4615C13.6043 4.8 13.7413 4.73679 13.8423 4.62426C13.9433 4.51174 14 4.35913 14 4.2V2.4C14 2.24087 13.9433 2.08826 13.8423 1.97574C13.7413 1.86321 13.6043 1.8 13.4615 1.8ZM5.38462 1.2H8.61539V1.8H5.38462V1.2ZM11.8462 15.6C11.8462 16.2618 11.3632 16.8 10.7692 16.8H3.23077C2.63685 16.8 2.15385 16.2618 2.15385 15.6V4.8H11.8462V15.6ZM12.9231 3.6H1.07692V3H12.9231V3.6ZM6.46154 15V6.6C6.46154 6.44087 6.51827 6.28826 6.61925 6.17574C6.72023 6.06321 6.85719 6 7 6C7.14281 6 7.27977 6.06321 7.38075 6.17574C7.48173 6.28826 7.53846 6.44087 7.53846 6.6V15C7.53846 15.1591 7.48173 15.3117 7.38075 15.4243C7.27977 15.5368 7.14281 15.6 7 15.6C6.85719 15.6 6.72023 15.5368 6.61925 15.4243C6.51827 15.3117 6.46154 15.1591 6.46154 15ZM3.76923 15V6.6C3.76923 6.44087 3.82596 6.28826 3.92694 6.17574C4.02792 6.06321 4.16488 6 4.30769 6C4.4505 6 4.58746 6.06321 4.68844 6.17574C4.78942 6.28826 4.84615 6.44087 4.84615 6.6V15C4.84615 15.1591 4.78942 15.3117 4.68844 15.4243C4.58746 15.5368 4.4505 15.6 4.30769 15.6C4.16488 15.6 4.02792 15.5368 3.92694 15.4243C3.82596 15.3117 3.76923 15.1591 3.76923 15ZM9.15385 15V6.6C9.15385 6.44087 9.21058 6.28826 9.31156 6.17574C9.41254 6.06321 9.5495 6 9.69231 6C9.83512 6 9.97208 6.06321 10.0731 6.17574C10.174 6.28826 10.2308 6.44087 10.2308 6.6V15C10.2308 15.1591 10.174 15.3117 10.0731 15.4243C9.97208 15.5368 9.83512 15.6 9.69231 15.6C9.5495 15.6 9.41254 15.5368 9.31156 15.4243C9.21058 15.3117 9.15385 15.1591 9.15385 15Z" fill="black"/>
</svg>
