<svg width="16" height="20" viewBox="0 0 16 20" fill="none" xmlns="http://www.w3.org/2000/svg">
<path d="M15.2098 2H10.951V0.666667C10.951 0.489856 10.887 0.320286 10.7729 0.195262C10.6588 0.0702379 10.504 0 10.3427 0H5.47552C5.31417 0 5.15942 0.0702379 5.04533 0.195262C4.93123 0.320286 4.86713 0.489856 4.86713 0.666667V2H0.608392C0.447036 2 0.292289 2.07024 0.178194 2.19526C0.0640982 2.32029 0 2.48986 0 2.66667V4.66667C0 4.84348 0.0640982 5.01305 0.178194 5.13807C0.292289 5.2631 0.447036 5.33333 0.608392 5.33333H1.21678V17.3333C1.21678 18.804 2.30824 20 3.65035 20H12.1678C13.5099 20 14.6014 18.804 14.6014 17.3333V5.33333H15.2098C15.3711 5.33333 15.5259 5.2631 15.64 5.13807C15.7541 5.01305 15.8182 4.84348 15.8182 4.66667V2.66667C15.8182 2.48986 15.7541 2.32029 15.64 2.19526C15.5259 2.07024 15.3711 2 15.2098 2ZM6.08392 1.33333H9.73427V2H6.08392V1.33333ZM13.3846 17.3333C13.3846 18.0687 12.8389 18.6667 12.1678 18.6667H3.65035C2.97929 18.6667 2.43357 18.0687 2.43357 17.3333V5.33333H13.3846V17.3333ZM14.6014 4H1.21678V3.33333H14.6014V4ZM7.3007 16.6667V7.33333C7.3007 7.15652 7.3648 6.98695 7.47889 6.86193C7.59299 6.73691 7.74774 6.66667 7.90909 6.66667C8.07045 6.66667 8.22519 6.73691 8.33929 6.86193C8.45339 6.98695 8.51748 7.15652 8.51748 7.33333V16.6667C8.51748 16.8435 8.45339 17.013 8.33929 17.1381C8.22519 17.2631 8.07045 17.3333 7.90909 17.3333C7.74774 17.3333 7.59299 17.2631 7.47889 17.1381C7.3648 17.013 7.3007 16.8435 7.3007 16.6667ZM4.25874 16.6667V7.33333C4.25874 7.15652 4.32284 6.98695 4.43694 6.86193C4.55103 6.73691 4.70578 6.66667 4.86713 6.66667C5.02849 6.66667 5.18324 6.73691 5.29733 6.86193C5.41143 6.98695 5.47552 7.15652 5.47552 7.33333V16.6667C5.47552 16.8435 5.41143 17.013 5.29733 17.1381C5.18324 17.2631 5.02849 17.3333 4.86713 17.3333C4.70578 17.3333 4.55103 17.2631 4.43694 17.1381C4.32284 17.013 4.25874 16.8435 4.25874 16.6667ZM10.3427 16.6667V7.33333C10.3427 7.15652 10.4068 6.98695 10.5209 6.86193C10.6349 6.73691 10.7897 6.66667 10.951 6.66667C11.1124 6.66667 11.2672 6.73691 11.3812 6.86193C11.4953 6.98695 11.5594 7.15652 11.5594 7.33333V16.6667C11.5594 16.8435 11.4953 17.013 11.3812 17.1381C11.2672 17.2631 11.1124 17.3333 10.951 17.3333C10.7897 17.3333 10.6349 17.2631 10.5209 17.1381C10.4068 17.013 10.3427 16.8435 10.3427 16.6667Z" fill="white"/>
</svg>
