<svg width="17" height="17" viewBox="0 0 17 17" fill="none" xmlns="http://www.w3.org/2000/svg">
<path d="M0.540128 17C0.469155 17.0001 0.398871 16.9861 0.333319 16.9589C0.267767 16.9317 0.208242 16.8918 0.158169 16.8415C0.0922206 16.7756 0.044472 16.6938 0.0195818 16.604C-0.0053085 16.5141 -0.00649052 16.4194 0.016151 16.329L1.03102 12.2555C1.05471 12.1604 1.1038 12.0734 1.17304 12.004L12.5978 0.579562C13.3705 -0.193187 14.6283 -0.193187 15.4011 0.579562L16.4204 1.59877C17.1932 2.37158 17.1932 3.6294 16.4204 4.40205L4.99577 15.8265C4.92646 15.8959 4.83946 15.945 4.74421 15.9685L0.670691 16.9834C0.628105 16.9946 0.58418 17.0002 0.540128 17ZM2.04313 12.6621L1.28195 15.7169L4.33687 14.9558L15.6563 3.63731C16.0074 3.28625 16.0074 2.71393 15.6563 2.36287L14.6371 1.34366C14.2853 0.99192 13.7129 0.992562 13.3625 1.34366L2.04313 12.6621Z" fill="#565656"/>
<path d="M13.4904 6.89788C13.3601 6.89788 13.2297 6.84828 13.1306 6.7486L10.2509 3.86934C10.0519 3.67036 10.0519 3.34799 10.2509 3.14914C10.4497 2.95029 10.7721 2.95029 10.971 3.14914L13.8509 6.02917C14.0497 6.22802 14.0497 6.55038 13.8509 6.74924C13.7503 6.84828 13.6201 6.89788 13.4904 6.89788ZM4.38867 16C4.25833 16 4.12811 15.9504 4.02904 15.8506L1.14913 12.9707C0.950289 12.7717 0.950289 12.4493 1.14913 12.2505C1.34798 12.0516 1.67036 12.0516 1.86933 12.2505L4.74911 15.1305C4.94795 15.3294 4.94795 15.6518 4.74911 15.8506C4.70185 15.8981 4.64567 15.9357 4.58381 15.9613C4.52196 15.987 4.45563 16.0001 4.38867 16Z" fill="#565656"/>
</svg>
