<svg width="22" height="22" viewBox="0 0 22 22" fill="none" xmlns="http://www.w3.org/2000/svg">
<path d="M1.61168 21.7038C1.52797 21.7039 1.44507 21.6863 1.36775 21.652C1.29044 21.6178 1.22023 21.5675 1.16117 21.5042C1.08338 21.4212 1.02706 21.3182 0.997706 21.2051C0.968348 21.092 0.966954 20.9727 0.993659 20.8588L2.19069 15.7293C2.21863 15.6095 2.27652 15.5 2.3582 15.4125L15.8336 1.02621C16.7449 0.0531138 18.2285 0.0531138 19.1401 1.02621L20.3422 2.30965C21.2538 3.28282 21.2538 4.86675 20.3422 5.83971L6.86706 20.2261C6.78531 20.3135 6.68269 20.3753 6.57034 20.4049L1.76568 21.6829C1.71545 21.697 1.66364 21.7041 1.61168 21.7038ZM3.38445 16.2412L2.48665 20.0881L6.0899 19.1296L19.441 4.8767C19.8551 4.43462 19.8551 3.71393 19.441 3.27185L18.2388 1.9884C17.8239 1.54547 17.1488 1.54628 16.7356 1.9884L3.38445 16.2412Z" fill="white"/>
<path d="M16.8866 8.98266C16.7328 8.98266 16.579 8.9202 16.4622 8.79468L13.0656 5.16894C12.8309 4.91837 12.8309 4.51243 13.0656 4.26202C13.3001 4.01162 13.6804 4.01162 13.9149 4.26202L17.3117 7.88872C17.5463 8.13913 17.5463 8.54507 17.3117 8.79548C17.1931 8.9202 17.0395 8.98266 16.8866 8.98266ZM6.15119 20.4446C5.99745 20.4446 5.84386 20.3821 5.72701 20.2565L2.3302 16.6299C2.09566 16.3794 2.09566 15.9734 2.3302 15.723C2.56473 15.4726 2.94498 15.4726 3.17966 15.723L6.57632 19.3497C6.81086 19.6001 6.81086 20.0061 6.57632 20.2565C6.52058 20.3162 6.45432 20.3636 6.38136 20.3959C6.3084 20.4282 6.23017 20.4447 6.15119 20.4446Z" fill="white"/>
</svg>
