<svg width="15" height="29" viewBox="0 0 15 29" fill="none" xmlns="http://www.w3.org/2000/svg">
<path d="M2.60009 28.5998C2.39358 28.5995 2.18869 28.5634 1.99455 28.493C1.93607 28.4716 1.87487 28.4509 1.81231 28.4315C0.733491 28.0969 0.51453 27.2075 0.66957 26.4887C0.73757 26.1671 0.79571 25.8992 0.84467 25.6238L2.59601 15.7389L3.31919 11.4084C3.39979 10.925 3.44524 10.4363 3.45519 9.94637L3.57419 4.03343C3.58135 3.66678 3.70438 3.3118 3.92566 3.01937C4.14694 2.72693 4.45511 2.51205 4.80601 2.40551L11.3592 0.399506C11.6526 0.307471 11.964 0.288103 12.2666 0.343066C13.1629 0.513066 13.4906 1.24543 13.5886 1.55143C13.6282 1.67225 13.6498 1.79828 13.6525 1.92543C13.6603 2.33751 13.4927 2.74721 13.1683 3.10965C12.8716 3.43709 12.4951 3.68213 12.0756 3.82093L7.69771 5.29653C7.55654 5.34289 7.4356 5.43635 7.35513 5.56126C7.27466 5.68617 7.23956 5.83494 7.25571 5.98265L7.53961 8.61255C7.54196 8.63359 7.54856 8.65394 7.55903 8.67236C7.56949 8.69077 7.58359 8.70686 7.60047 8.71965L13.7616 13.3532C13.7837 13.3696 13.8044 13.3877 13.8235 13.4076C14.1768 13.7686 14.6429 14.739 13.8803 15.8267C13.871 15.8401 13.861 15.853 13.8504 15.8654L10.1263 20.2735L11.8988 25.9753C11.9677 26.1929 12.0066 26.4188 12.0144 26.6468C12.0439 27.746 11.3398 28.2292 10.7278 28.3091C10.7067 28.3118 10.6822 28.3159 10.6509 28.3223C10.4968 28.3537 10.34 28.3699 10.1828 28.3706C9.29877 28.3706 8.78027 27.8093 8.58137 27.2218L8.56029 27.1595C8.52391 27.0518 8.48923 26.9498 8.45285 26.8484L6.03171 20.1566L4.38339 27.0164C4.30069 27.3692 4.13467 27.697 3.89923 27.9725C3.46607 28.4716 2.98123 28.5998 2.60009 28.5998ZM11.9331 1.39979C11.8465 1.40048 11.7604 1.414 11.6778 1.43991L5.12425 3.44591C4.99272 3.48553 4.87713 3.56581 4.79406 3.67521C4.71099 3.78461 4.6647 3.91751 4.66185 4.05485L4.54251 9.96779C4.53146 10.5106 4.48113 11.052 4.39189 11.5875L3.66837 15.9205V15.9259L1.91601 25.8118C1.86399 26.1055 1.80483 26.3833 1.73343 26.7162C1.63585 27.1694 1.86943 27.3081 2.13429 27.3904C2.21555 27.4156 2.29545 27.4428 2.37229 27.471C2.63409 27.5682 2.87141 27.4965 3.07779 27.2588C3.19832 27.1157 3.28326 26.946 3.32565 26.7638L5.39761 18.1393C5.42495 18.0256 5.48822 17.9237 5.57803 17.8488C5.66784 17.7739 5.77941 17.7299 5.89619 17.7234C6.01297 17.7168 6.12875 17.7481 6.22635 17.8126C6.32395 17.877 6.39817 17.9712 6.43801 18.0812L9.47591 26.4792C9.51637 26.5917 9.55445 26.7039 9.59117 26.8124L9.61191 26.8739C9.78531 27.386 10.2773 27.2881 10.4388 27.2561C10.4942 27.2452 10.5408 27.2371 10.587 27.2313C10.825 27.2 10.9359 27.0191 10.927 26.6771C10.9215 26.5487 10.8987 26.4216 10.859 26.2993L9.00161 20.3204L8.99651 20.3038L8.21077 17.7755C7.95747 17.3611 6.90585 15.387 8.16997 12.9843C8.20649 12.9148 8.25761 12.854 8.31983 12.8062C8.38204 12.7583 8.45387 12.7245 8.53039 12.707C8.60691 12.6895 8.68631 12.6888 8.76313 12.7049C8.83995 12.7211 8.91237 12.7536 8.97543 12.8003L10.96 14.2701C11.0715 14.3526 11.1645 14.4576 11.2328 14.5783C11.3012 14.699 11.3434 14.8327 11.3568 14.9708C11.3702 15.1088 11.3544 15.2482 11.3104 15.3797C11.2665 15.5113 11.1954 15.6322 11.1018 15.7345L9.32155 17.6817L9.74417 19.0417L13.0021 15.1834C13.1765 14.9274 13.2401 14.6839 13.1853 14.4588C13.1614 14.3607 13.1183 14.2683 13.0585 14.1868L6.94801 9.58733C6.81219 9.48499 6.69875 9.35594 6.61467 9.20813C6.53059 9.06031 6.47764 8.89685 6.45909 8.72781L6.17553 6.09757C6.13146 5.70349 6.2242 5.30624 6.43819 4.97241C6.65218 4.63857 6.97443 4.38844 7.35091 4.26395L11.7288 2.78835C11.9699 2.70954 12.1867 2.56983 12.3581 2.38273C12.4982 2.22599 12.5679 2.07843 12.5655 1.94379C12.5643 1.92409 12.5604 1.90465 12.5539 1.88599C12.4941 1.70103 12.3605 1.46881 12.0626 1.40999C12.0199 1.40252 11.9765 1.39911 11.9331 1.39979ZM8.87309 14.0797C8.58063 14.8872 8.5726 15.7702 8.85031 16.5828L10.2236 15.0804L8.87309 14.0797Z" fill="white"/>
<path d="M10.6823 9.76753C10.3435 9.76763 10.0086 9.69541 9.69999 9.55571C8.48279 9.00525 8.35189 7.69863 8.45287 7.08085C8.61981 5.98537 9.26887 5.39377 9.78533 5.09049C10.1053 4.90002 10.4629 4.78144 10.8333 4.74298C11.2037 4.70453 11.5781 4.74711 11.9304 4.86779C12.7698 5.15883 13.272 5.84155 13.3441 6.78981C13.4014 7.50888 13.1763 8.22198 12.7165 8.77779C12.3926 9.17157 11.9653 9.46713 11.4826 9.63119C11.2252 9.72066 10.9547 9.76674 10.6823 9.76753ZM9.52727 7.25323C9.50576 7.44575 9.51726 7.64053 9.56127 7.82919C9.64491 8.18279 9.83769 8.42317 10.1498 8.56461C10.4597 8.70083 10.8096 8.7148 11.1293 8.60371C11.4222 8.50376 11.6815 8.32422 11.878 8.08521C12.1559 7.74441 12.2922 7.30987 12.2588 6.87141C12.2072 6.19141 11.843 5.98741 11.5737 5.89459C11.3701 5.82586 11.154 5.80224 10.9404 5.82537C10.7267 5.84851 10.5206 5.91783 10.3365 6.02855C9.88189 6.29579 9.60989 6.70583 9.52829 7.24779C9.52761 7.25153 9.52761 7.25051 9.52727 7.25323Z" fill="white"/>
</svg>
