<svg width="18" height="24" viewBox="0 0 18 24" fill="none" xmlns="http://www.w3.org/2000/svg">
<path d="M14.4681 0H3.62169C1.69082 0 0.0882454 1.54723 0.0882454 3.46571L2.58199e-06 23.1957C-0.000356722 23.3374 0.03679 23.4767 0.107651 23.5994C0.178511 23.722 0.280548 23.8236 0.403345 23.8937C0.526142 23.9639 0.665302 24.0001 0.806619 23.9987C0.947936 23.9973 1.08635 23.9583 1.20773 23.8857L9.00374 19.1983L16.793 23.8857C16.9138 23.9586 17.0518 23.998 17.1927 23.9999C17.3337 24.0019 17.4726 23.9662 17.5954 23.8967C17.7181 23.8271 17.8202 23.7261 17.8913 23.604C17.9624 23.4819 17.9999 23.3431 18 23.2017V3.46571C18 1.54723 16.3982 0 14.4681 0ZM16.4042 21.7835L9.40906 17.5798C9.28536 17.5058 9.14402 17.4667 9 17.4667C8.85598 17.4667 8.71464 17.5058 8.59094 17.5798L1.60183 21.7797L1.68409 3.46646C1.68409 2.43222 2.5224 1.60198 3.62094 1.60198H14.4666C15.5659 1.60198 16.4027 2.43222 16.4027 3.46646V21.7842L16.4042 21.7835Z" fill="white"/>
</svg>
