<svg width="22" height="29" viewBox="0 0 22 29" fill="none" xmlns="http://www.w3.org/2000/svg">
<path d="M17.6832 0H4.42651C2.06656 0 0.107855 1.86957 0.107855 4.18773L3.15577e-06 28.0281C-0.000435994 28.1994 0.0449656 28.3677 0.131573 28.5159C0.21818 28.6641 0.342892 28.7868 0.492977 28.8716C0.643062 28.9564 0.813147 29.0001 0.985868 28.9984C1.15859 28.9967 1.32776 28.9496 1.47611 28.8619L11.0046 23.1979L20.5248 28.8619C20.6725 28.95 20.841 28.9976 21.0133 28.9999C21.1856 29.0022 21.3554 28.9592 21.5055 28.8751C21.6555 28.7911 21.7803 28.6691 21.8672 28.5215C21.9541 28.374 21.9999 28.2062 22 28.0354V4.18773C22 1.86957 20.0422 0 17.6832 0ZM20.0495 26.3217L11.5 21.2422C11.3488 21.1528 11.176 21.1056 11 21.1056C10.824 21.1056 10.6512 21.1528 10.5 21.2422L1.95779 26.3172L2.05833 4.18863C2.05833 2.93893 3.08293 1.93573 4.42559 1.93573H17.6813C19.0249 1.93573 20.0477 2.93893 20.0477 4.18863V26.3226L20.0495 26.3217Z" fill="black"/>
</svg>
