<svg width="19" height="26" viewBox="0 0 19 26" fill="none" xmlns="http://www.w3.org/2000/svg">
<path d="M1 1H18L17.5 23.5L9.5 19L1 24V1Z" fill="#FA9746"/>
<path d="M15.2718 0H3.82289C1.78476 0 0.0931479 1.67617 0.0931479 3.75451L2.72544e-06 25.1287C-0.00037654 25.2822 0.0388339 25.4331 0.113631 25.566C0.188428 25.6988 0.296134 25.8089 0.425753 25.8849C0.555372 25.9609 0.702263 26.0001 0.851431 25.9986C1.0006 25.9971 1.1467 25.9548 1.27483 25.8762L9.50395 20.7981L17.726 25.8762C17.8535 25.9551 17.9991 25.9978 18.1479 25.9999C18.2967 26.002 18.4433 25.9634 18.5729 25.8881C18.7025 25.8127 18.8103 25.7033 18.8853 25.571C18.9603 25.4388 18.9999 25.2884 19 25.1352V3.75451C19 1.67617 17.3092 0 15.2718 0ZM17.3155 23.5988L9.93178 19.0448C9.80122 18.9646 9.65202 18.9223 9.5 18.9223C9.34798 18.9223 9.19879 18.9646 9.06822 19.0448L1.69082 23.5947L1.77765 3.75533C1.77765 2.6349 2.66253 1.73548 3.8221 1.73548H15.2703C16.4306 1.73548 17.3139 2.6349 17.3139 3.75533V23.5996L17.3155 23.5988Z" fill="black"/>
</svg>
