<svg width="26" height="32" viewBox="0 0 26 32" fill="none" xmlns="http://www.w3.org/2000/svg">
<path d="M25.6713 9.02106L16.9431 0.292937C16.8503 0.200069 16.74 0.1264 16.6187 0.0761374C16.4974 0.025875 16.3673 3.4224e-06 16.236 0L3.20138 0C1.43613 0 0 1.43613 0 3.20138V28.7986C0 30.5639 1.43613 32 3.20138 32H22.7627C24.5279 32 25.9641 30.5639 25.9641 28.7986V9.72812C25.9641 9.59681 25.9382 9.46678 25.888 9.34546C25.8378 9.22414 25.7641 9.11391 25.6713 9.02106ZM17.236 3.41425L22.5499 8.72819H17.236V3.41425ZM22.7628 30H3.20138C2.53894 30 2 29.4611 2 28.7986V3.20138C2 2.53894 2.53894 2 3.20138 2H15.236V9.72812C15.236 10.2804 15.6838 10.7281 16.236 10.7281H23.9641V28.7986C23.9641 29.4611 23.4252 30 22.7628 30ZM20.1321 16.6141C20.1321 17.1664 19.6843 17.6141 19.1321 17.6141H6.83206C6.27981 17.6141 5.83206 17.1664 5.83206 16.6141C5.83206 16.0619 6.27981 15.6141 6.83206 15.6141H19.1321C19.6844 15.6141 20.1321 16.0618 20.1321 16.6141ZM20.1321 23.4391C20.1321 23.9913 19.6843 24.4391 19.1321 24.4391H6.83206C6.27981 24.4391 5.83206 23.9913 5.83206 23.4391C5.83206 22.8868 6.27981 22.4391 6.83206 22.4391H19.1321C19.6844 22.4391 20.1321 22.8868 20.1321 23.4391Z" fill="black"/>
</svg>
