<svg width="30" height="30" viewBox="0 0 30 30" fill="none" xmlns="http://www.w3.org/2000/svg">
<path d="M29.0185 15.8332V8.3965C29.0185 4.87109 26.1504 2.00293 22.6249 2.00293C19.6801 2.00293 17.1945 4.00426 16.4554 6.71809C15.3642 6.55672 14.2304 6.57846 13.1499 6.7843C13.0937 6.795 13.0402 6.81666 12.9923 6.84806C12.9445 6.87945 12.9034 6.91995 12.8712 6.96726C12.839 7.01456 12.8165 7.06774 12.8049 7.12375C12.7933 7.17976 12.7928 7.23752 12.8035 7.29371C12.8474 7.53148 13.0823 7.68582 13.3129 7.64012C14.2835 7.45531 15.3025 7.4334 16.2841 7.57367C16.249 7.84656 16.2313 8.12142 16.2313 8.39656V11.124C16.1893 11.1222 13.8953 11.1208 13.8953 11.1208C12.4676 11.1208 11.2737 12.1401 11.0026 13.4892C10.7897 13.3979 10.5717 13.3186 10.3499 13.2518V12.6458C10.78 12.164 11.0946 11.5904 11.2697 10.9687C11.6964 10.7534 12.1284 10.2821 12.3842 9.73906C12.743 9.0002 12.6253 8.25172 11.8905 7.89975C11.7375 7.82768 11.5825 7.78678 11.4302 7.77682V5.93146C11.4302 4.30449 10.1065 2.98086 8.47957 2.98086H6.27029C4.64332 2.98086 3.31969 4.30449 3.31969 5.93146V7.77682C3.16729 7.78672 3.0123 7.82762 2.85926 7.89975C2.12443 8.25195 2.00689 8.99996 2.36561 9.73906C2.62131 10.2821 3.05326 10.7533 3.48006 10.9687C3.65523 11.5904 3.96984 12.164 4.39998 12.6459V13.2519C1.79842 14.0332 0 16.4364 0 19.1734C0 19.5192 0.281367 19.8006 0.627188 19.8006H5.7576C6.34377 21.4146 7.33957 22.8421 8.656 23.9542C8.0008 24.9425 7.62498 26.1221 7.62498 27.3705C7.62498 27.7163 7.90635 27.9976 8.25217 27.9976H21.7478C22.0937 27.9976 22.375 27.7162 22.375 27.3704C22.375 24.6336 20.5765 22.2303 17.9749 21.4489V20.7856C18.2393 20.4897 18.4608 20.1581 18.633 19.8005H23.3111C22.9777 20.6264 22.5231 21.3956 21.9554 22.0936C21.9035 22.1574 21.8707 22.2347 21.8609 22.3164C21.8511 22.3982 21.8646 22.481 21.9 22.5554C21.9353 22.6297 21.9909 22.6925 22.0605 22.7365C22.1301 22.7806 22.2107 22.804 22.293 22.8041C22.3578 22.8042 22.4218 22.7898 22.4803 22.762C22.5388 22.7342 22.5904 22.6936 22.6312 22.6433C23.3283 21.7865 23.8693 20.8313 24.2433 19.8006H29.3727C29.7185 19.8006 29.9999 19.5192 29.9999 19.1734C30 17.9576 29.6433 16.8061 29.0185 15.8332ZM17.1026 8.3965C17.1026 5.3515 19.5799 2.87416 22.625 2.87416C25.67 2.87416 28.1473 5.35145 28.1473 8.3965V14.762C27.4478 14.0737 26.5811 13.5472 25.6 13.2523V12.4222C26.2965 11.6403 26.681 10.6295 26.6803 9.58238V7.51367C26.6803 6.53504 25.884 5.73881 24.9053 5.73881H20.3238C19.3451 5.73881 18.5489 6.53504 18.5489 7.51367V9.58238C18.5481 10.6404 18.9406 11.6609 19.6501 12.4457V13.2514C19.4282 13.3183 19.2103 13.3976 18.9973 13.4891C18.7927 12.4709 18.0625 11.6409 17.1027 11.2948L17.1026 8.3965ZM24.3054 12.4046L23.2505 13.1137C23.0627 13.2406 22.8412 13.3085 22.6145 13.3085C22.3879 13.3085 22.1664 13.2406 21.9786 13.1137L20.9237 12.4046C20.4605 12.0939 20.081 11.6738 19.8188 11.1816C19.5566 10.6894 19.4196 10.1401 19.4201 9.58238V7.51367C19.4201 7.01539 19.8255 6.60998 20.3238 6.60998H24.9053C25.4036 6.60998 25.8091 7.01533 25.8091 7.51367V9.58238C25.8095 10.1401 25.6725 10.6894 25.4103 11.1816C25.148 11.6738 24.7685 12.0939 24.3054 12.4046ZM20.5213 13.1838L21.4926 13.8368C21.8334 14.0658 22.224 14.1803 22.6145 14.1803C23.005 14.1803 23.3957 14.0658 23.7364 13.8368L24.7287 13.1698V13.856C24.7287 15.016 23.785 15.9597 22.6249 15.9597C21.4649 15.9597 20.5212 15.016 20.5212 13.856V13.1838H20.5213ZM18.4444 18.3557C18.2666 18.4164 18.1338 18.5628 18.0889 18.7474C17.8905 19.5719 17.3895 20.2916 16.6853 20.764L15.6334 21.471C15.4463 21.5974 15.2257 21.6649 15 21.6649C14.7742 21.6649 14.5536 21.5974 14.3665 21.471L13.3147 20.764C12.6104 20.2915 12.1095 19.5717 11.911 18.7471C11.8662 18.5626 11.7333 18.4163 11.5557 18.3557C11.3346 18.2802 10.9767 17.9454 10.7788 17.5077C10.5394 16.9782 10.9447 16.695 11.1466 16.8257C11.2802 16.9121 11.4509 16.9164 11.59 16.8399C11.6584 16.8023 11.7155 16.747 11.7552 16.6799C11.795 16.6127 11.816 16.5361 11.816 16.4581V15.3607C11.816 14.8002 12.2719 14.3442 12.8324 14.3442H17.1676C17.728 14.3442 18.184 14.8002 18.184 15.3607V16.458C18.184 16.5361 18.2049 16.6127 18.2446 16.6799C18.2844 16.7471 18.3414 16.8023 18.4098 16.8399C18.4783 16.8775 18.5555 16.896 18.6335 16.8935C18.7115 16.891 18.7874 16.8675 18.8533 16.8256C19.1178 16.7146 19.5332 16.8746 19.2212 17.5076C19.0165 17.9422 18.6655 18.2801 18.4444 18.3557ZM12.8963 21.5325L13.8806 22.1941C14.2206 22.4226 14.6104 22.5369 15 22.5369C15.3897 22.5369 15.7795 22.4226 16.1194 22.1941L17.1038 21.5325V22.053C17.1038 23.213 16.16 24.1567 15.0001 24.1567C13.8401 24.1567 12.8963 23.213 12.8963 22.053V21.5325ZM13.8953 11.992H16.1046C17.144 11.992 18.0077 12.7586 18.1601 13.756C17.8622 13.5708 17.5183 13.4727 17.1676 13.4731H12.8324C12.4816 13.4727 12.1377 13.5707 11.8399 13.756C11.9923 12.7585 12.856 11.992 13.8953 11.992ZM5.27133 13.3928L6.25564 14.0544C6.59566 14.283 6.98531 14.3972 7.37502 14.3972C7.76467 14.3971 8.15449 14.2829 8.49439 14.0544L9.47877 13.3927V13.9133C9.47877 15.0733 8.535 16.017 7.37502 16.017C6.21504 16.017 5.27133 15.0733 5.27133 13.9133V13.3928ZM6.27041 3.85215H8.47969C9.51908 3.85215 10.3828 4.61873 10.5352 5.61617C10.2373 5.43089 9.89339 5.33287 9.54258 5.33322H5.20746C4.85667 5.33287 4.51281 5.4309 4.21494 5.61617C4.36734 4.61873 5.23107 3.85215 6.27041 3.85215ZM3.93088 10.216C3.70969 10.1404 3.35859 9.80246 3.15393 9.36793C3.05502 9.15787 3.0191 8.97934 3.05273 8.86508C3.04043 8.74514 3.3198 8.50555 3.52172 8.6859C3.64031 8.79184 3.82582 8.77654 3.96516 8.70014C4.03357 8.66256 4.09063 8.6073 4.13037 8.54012C4.17012 8.47295 4.19109 8.39633 4.19109 8.31828V7.22088C4.19109 6.66043 4.64707 6.20445 5.20752 6.20445H9.54264C10.1031 6.20445 10.5591 6.66043 10.5591 7.22088V8.31828C10.5591 8.39633 10.58 8.47295 10.6198 8.54012C10.6595 8.6073 10.7166 8.66256 10.785 8.70014C10.9243 8.77654 11.1184 8.80068 11.2284 8.6859C11.3805 8.52729 11.6589 8.69065 11.6974 8.86508C11.7231 8.98139 11.6951 9.15787 11.5962 9.36793C11.3916 9.80252 11.0405 10.1404 10.8197 10.2159C10.6417 10.2766 10.5088 10.423 10.464 10.6077C10.2656 11.4321 9.76458 12.1519 9.06041 12.6243L8.00848 13.3313C7.82143 13.4577 7.60084 13.5252 7.37508 13.5252C7.14932 13.5252 6.92873 13.4577 6.74168 13.3313L5.68981 12.6243C4.98561 12.1518 4.48461 11.432 4.28607 10.6076C4.24143 10.4231 4.10859 10.2767 3.93088 10.216ZM4.41147 14.1638C4.5392 15.6872 5.81912 16.8882 7.37502 16.8882C8.93092 16.8882 10.2108 15.6874 10.3386 14.1641C10.5458 14.2375 10.7483 14.3238 10.9447 14.4225V15.9167C10.7923 15.9266 10.6373 15.9675 10.4843 16.0396C9.94623 16.293 9.53402 16.9093 9.99065 17.879C10.1898 18.3018 10.496 18.6806 10.8233 18.9295H0.876797C0.975527 16.7642 2.38225 14.8796 4.41147 14.1638ZM6.69041 19.8006H11.3671C11.5392 20.1581 11.7607 20.4897 12.0251 20.7856V21.4492C10.9032 21.7863 9.93076 22.4255 9.18732 23.2634C8.08359 22.3225 7.23041 21.1371 6.69041 19.8006ZM21.4983 27.1264H8.50178C8.60074 24.9618 10.0101 23.0742 12.0408 22.3593C12.1946 23.8563 13.463 25.0279 15 25.0279C16.537 25.0279 17.8055 23.8562 17.9592 22.3591C19.9908 23.0738 21.3995 24.9598 21.4983 27.1264ZM19.1767 18.9294C19.504 18.6805 19.8102 18.3017 20.0094 17.8788C20.466 16.9092 20.0538 16.2929 19.5157 16.0395C19.3626 15.9674 19.2077 15.9265 19.0553 15.9165V14.4223C19.2532 14.3231 19.4571 14.2363 19.6659 14.1626C19.8199 15.6594 21.0882 16.8309 22.625 16.8309C24.162 16.8309 25.4303 15.6594 25.5843 14.1626C27.6144 14.8775 29.0243 16.7662 29.1233 18.9294H19.1767Z" fill="black"/>
<path d="M5.88338 9.15152C6.16307 9.15152 6.3898 8.92479 6.3898 8.6451C6.3898 8.36541 6.16307 8.13867 5.88338 8.13867C5.60369 8.13867 5.37695 8.36541 5.37695 8.6451C5.37695 8.92479 5.60369 9.15152 5.88338 9.15152Z" fill="black"/>
<path d="M8.81893 9.15152C9.09862 9.15152 9.32535 8.92479 9.32535 8.6451C9.32535 8.36541 9.09862 8.13867 8.81893 8.13867C8.53923 8.13867 8.3125 8.36541 8.3125 8.6451C8.3125 8.92479 8.53923 9.15152 8.81893 9.15152Z" fill="black"/>
<path d="M6.2379 11.1743C6.51018 11.4458 6.92479 11.6014 7.37538 11.6014C7.82602 11.6014 8.24063 11.4458 8.51292 11.1742C8.59321 11.0923 8.63798 10.9821 8.63749 10.8674C8.63701 10.7527 8.59132 10.6428 8.51034 10.5616C8.42936 10.4804 8.31961 10.4344 8.20493 10.4336C8.09024 10.4328 7.97986 10.4772 7.89774 10.5573C7.81776 10.6371 7.63295 10.7302 7.37538 10.7302C7.11786 10.7302 6.93299 10.6371 6.85301 10.5573C6.77089 10.4773 6.6605 10.4328 6.54581 10.4336C6.43112 10.4344 6.32139 10.4805 6.24041 10.5617C6.15943 10.6429 6.11376 10.7528 6.11328 10.8675C6.11281 10.9822 6.15759 11.0924 6.2379 11.1743Z" fill="black"/>
<path d="M13.5084 17.2912C13.7881 17.2912 14.0148 17.0644 14.0148 16.7847C14.0148 16.5051 13.7881 16.2783 13.5084 16.2783C13.2287 16.2783 13.002 16.5051 13.002 16.7847C13.002 17.0644 13.2287 17.2912 13.5084 17.2912Z" fill="black"/>
<path d="M16.4439 17.2912C16.7236 17.2912 16.9504 17.0644 16.9504 16.7847C16.9504 16.5051 16.7236 16.2783 16.4439 16.2783C16.1642 16.2783 15.9375 16.5051 15.9375 16.7847C15.9375 17.0644 16.1642 17.2912 16.4439 17.2912Z" fill="black"/>
<path d="M15.5227 18.6965C15.4427 18.7763 15.2579 18.8694 15.0004 18.8694C14.7428 18.8694 14.558 18.7763 14.478 18.6965C14.3959 18.6165 14.2855 18.572 14.1708 18.5728C14.0561 18.5737 13.9464 18.6197 13.8654 18.7009C13.7844 18.7821 13.7388 18.892 13.7383 19.0067C13.7378 19.1214 13.7826 19.2316 13.8629 19.3135C14.1351 19.5849 14.5498 19.7406 15.0004 19.7406C15.451 19.7406 15.8655 19.5849 16.1378 19.3135C16.1783 19.2731 16.2105 19.2252 16.2325 19.1723C16.2544 19.1195 16.2658 19.0629 16.2659 19.0057C16.266 18.9485 16.2548 18.8918 16.233 18.8389C16.2112 18.786 16.1791 18.738 16.1387 18.6975C16.0984 18.6569 16.0504 18.6247 15.9976 18.6028C15.9448 18.5808 15.8881 18.5694 15.8309 18.5693C15.7737 18.5692 15.7171 18.5804 15.6642 18.6023C15.6113 18.6241 15.5632 18.6561 15.5227 18.6965Z" fill="black"/>
<path d="M21.1334 9.09391C21.4131 9.09391 21.6398 8.86717 21.6398 8.58748C21.6398 8.30779 21.4131 8.08105 21.1334 8.08105C20.8537 8.08105 20.627 8.30779 20.627 8.58748C20.627 8.86717 20.8537 9.09391 21.1334 9.09391Z" fill="black"/>
<path d="M24.0689 9.09391C24.3486 9.09391 24.5754 8.86717 24.5754 8.58748C24.5754 8.30779 24.3486 8.08105 24.0689 8.08105C23.7892 8.08105 23.5625 8.30779 23.5625 8.58748C23.5625 8.86717 23.7892 9.09391 24.0689 9.09391Z" fill="black"/>
<path d="M23.1477 10.4997C23.0678 10.5795 22.883 10.6726 22.6254 10.6726C22.3679 10.6726 22.183 10.5795 22.103 10.4997C22.0209 10.4196 21.9105 10.3752 21.7958 10.376C21.6811 10.3768 21.5714 10.4228 21.4904 10.504C21.4094 10.5853 21.3638 10.6951 21.3633 10.8098C21.3628 10.9245 21.4076 11.0348 21.4879 11.1167C21.7602 11.3881 22.1748 11.5438 22.6254 11.5438C23.076 11.5438 23.4906 11.3881 23.7629 11.1166C23.8427 11.0346 23.8871 10.9245 23.8864 10.8101C23.8857 10.6957 23.84 10.5861 23.7592 10.5051C23.6784 10.4241 23.569 10.3781 23.4546 10.3771C23.3402 10.3761 23.2299 10.4201 23.1477 10.4997Z" fill="black"/>
</svg>
