<svg width="85" height="85" viewBox="0 0 85 85" fill="none" xmlns="http://www.w3.org/2000/svg">
<g clip-path="url(#clip0_39_472)">
<path d="M31.9033 74.375C14.2623 74.375 -0.0389557 60.0737 -0.0389557 42.5C-0.0389557 24.9263 14.2623 10.625 31.836 10.625C40.3502 10.625 48.3544 13.9435 54.3717 19.9644C57.1152 22.7127 59.3376 25.9358 60.9308 29.4773C61.2215 30.1193 61.2453 30.8505 60.9969 31.5101C60.7485 32.1696 60.2483 32.7035 59.6062 32.9942C59.2884 33.1381 58.9452 33.218 58.5964 33.2294C58.2477 33.2407 57.9001 33.1832 57.5735 33.0602C56.9139 32.8118 56.3801 32.3116 56.0894 31.6696C54.7599 28.7111 52.9047 26.0183 50.614 23.7221C48.155 21.2463 45.229 19.2833 42.0055 17.947C38.7821 16.6107 35.3255 15.9276 31.836 15.9375C17.1877 15.9375 5.27354 27.8517 5.27354 42.5C5.27354 57.1483 17.1877 69.0625 31.836 69.0625C33.3023 69.0625 34.5277 70.2525 34.5277 71.7188C34.5277 73.185 33.3696 74.375 31.9033 74.375Z" fill="white"/>
<path d="M30.2033 61.8728C30.1182 61.8727 30.0332 61.8692 29.9483 61.8622C25.1225 61.4226 20.6368 59.1899 17.3767 55.6046C14.1167 52.0193 12.3192 47.3421 12.3392 42.4963C12.3435 38.6458 13.488 34.8827 15.6282 31.6817C17.7684 28.4807 20.8085 25.9851 24.3652 24.5096C27.9218 23.0342 31.8358 22.6449 35.6134 23.3909C39.391 24.1369 42.8631 25.9848 45.5919 28.7015C46.8221 29.9357 47.8778 31.3323 48.7298 32.8524C49.0755 33.4657 49.1633 34.1913 48.974 34.8694C48.7847 35.5476 48.3338 36.1227 47.7204 36.4684C47.1071 36.8141 46.3815 36.9019 45.7034 36.7126C45.0252 36.5233 44.45 36.0724 44.1044 35.459C43.4899 34.3649 42.7311 33.3583 41.8483 32.4663C39.8644 30.4869 37.3383 29.1397 34.5892 28.5949C31.8401 28.0501 28.9913 28.3321 26.4023 29.4052C23.8134 30.4784 21.6004 32.2947 20.043 34.6246C18.4856 36.9546 17.6534 39.6938 17.6517 42.4963C17.6371 46.0188 18.9436 49.4187 21.3132 52.025C23.6828 54.6313 26.9433 56.2546 30.4513 56.5745C31.1263 56.6442 31.7491 56.9696 32.1918 57.4841C32.6345 57.9985 32.8635 58.6629 32.8318 59.3408C32.8 60.0188 32.51 60.6588 32.0212 61.1297C31.5325 61.6005 30.882 61.8664 30.2033 61.8728Z" fill="white"/>
<path d="M31.875 45.1563C31.3493 45.1565 30.8353 45.0007 30.3981 44.7086C29.961 44.4166 29.6203 44.0013 29.4193 43.5155C29.2183 43.0297 29.166 42.4952 29.269 41.9796C29.372 41.4641 29.6257 40.9907 29.9979 40.6194L53.0188 17.5986C53.2655 17.3518 53.5584 17.1561 53.8808 17.0226C54.2032 16.889 54.5487 16.8203 54.8976 16.8203C55.2466 16.8203 55.5921 16.889 55.9145 17.0226C56.2368 17.1561 56.5297 17.3518 56.7765 17.5986C57.0232 17.8453 57.2189 18.1382 57.3525 18.4606C57.486 18.783 57.5547 19.1285 57.5547 19.4774C57.5547 19.8263 57.486 20.1719 57.3525 20.4942C57.2189 20.8166 57.0232 21.1095 56.7765 21.3563L33.7556 44.3771C33.509 44.6246 33.2159 44.8208 32.8932 44.9545C32.5704 45.0883 32.2244 45.1568 31.875 45.1563Z" fill="white"/>
<path d="M64.6354 21.25H55.7813C55.0768 21.25 54.4012 20.9702 53.903 20.472C53.4049 19.9739 53.125 19.2983 53.125 18.5938V9.73961C53.125 9.03482 53.4048 8.35836 53.9042 7.86253L60.9875 0.779195C61.3596 0.409898 61.8326 0.158812 62.347 0.0574801C62.8614 -0.0438514 63.3942 0.00909202 63.8786 0.209659C64.363 0.410226 64.7773 0.74947 65.0695 1.18477C65.3617 1.62007 65.5187 2.13201 65.5208 2.65628V8.85419H71.7188C72.2438 8.85466 72.7569 9.01069 73.1933 9.3026C73.6297 9.5945 73.9698 10.0092 74.1706 10.4943C74.3715 10.9793 74.4241 11.5131 74.3218 12.028C74.2195 12.543 73.9669 13.0161 73.5958 13.3875L66.5125 20.4709C66.2664 20.7181 65.9739 20.9142 65.6518 21.0479C65.3296 21.1816 64.9842 21.2503 64.6354 21.25ZM58.4375 15.9375H63.534L65.3048 14.1667H62.8646C62.1601 14.1667 61.4845 13.8868 60.9863 13.3887C60.4882 12.8906 60.2083 12.2149 60.2083 11.5104V9.07024L58.4375 10.8411V15.9375ZM61.9792 85C49.2858 85 38.9583 74.6725 38.9583 61.9792C38.9583 49.2859 49.2858 38.9584 61.9792 38.9584C74.6725 38.9584 85 49.2859 85 61.9792C85 74.6725 74.6725 85 61.9792 85ZM61.9792 44.2709C52.2148 44.2709 44.2708 52.2148 44.2708 61.9792C44.2708 71.7436 52.2148 79.6875 61.9792 79.6875C71.7436 79.6875 79.6875 71.7436 79.6875 61.9792C79.6875 52.2148 71.7436 44.2709 61.9792 44.2709Z" fill="white"/>
<path d="M58.4375 70.8336C57.8032 70.8337 57.19 70.6062 56.7092 70.1925L50.5113 64.88C50.2464 64.6528 50.0288 64.3757 49.8711 64.0644C49.7133 63.7531 49.6184 63.4139 49.5918 63.0659C49.5651 62.718 49.6073 62.3682 49.7158 62.0365C49.8244 61.7048 49.9972 61.3978 50.2244 61.1329C50.4516 60.8681 50.7287 60.6505 51.04 60.4928C51.3513 60.335 51.6906 60.2401 52.0385 60.2135C52.3865 60.1868 52.7362 60.229 53.0679 60.3375C53.3996 60.4461 53.7066 60.6189 53.9715 60.8461L58.2321 64.4975L68 53.9752C68.4791 53.4586 69.1437 53.1535 69.8477 53.1269C70.5518 53.1003 71.2376 53.3545 71.7542 53.8336C72.2708 54.3126 72.5759 54.9773 72.6025 55.6813C72.6291 56.3854 72.3749 57.0711 71.8958 57.5877L60.3854 69.9836C60.1367 70.2517 59.8354 70.4656 59.5002 70.6119C59.165 70.7581 58.8032 70.8336 58.4375 70.8336Z" fill="white"/>
</g>
<defs>
<clipPath id="clip0_39_472">
<rect width="85" height="85" fill="white"/>
</clipPath>
</defs>
</svg>
