<svg width="23" height="23" viewBox="0 0 23 23" fill="none" xmlns="http://www.w3.org/2000/svg">
<path fill-rule="evenodd" clip-rule="evenodd" d="M11.5 23C5.15883 23 0 17.8412 0 11.5C0 5.15883 5.15883 0 11.5 0C17.8412 0 23 5.15878 23 11.5C23 17.8412 17.8412 23 11.5 23ZM15.9891 8.36445C15.8676 8.24309 15.7029 8.17491 15.5312 8.17491C15.3595 8.17491 15.1948 8.24309 15.0733 8.36445L10.1761 13.2614L7.92691 11.0116C7.8669 10.9507 7.79541 10.9022 7.71657 10.869C7.63772 10.8359 7.5531 10.8186 7.46756 10.8183C7.38203 10.818 7.29728 10.8347 7.2182 10.8673C7.13913 10.8999 7.0673 10.9478 7.00686 11.0084C6.94641 11.0689 6.89855 11.1408 6.86602 11.2199C6.8335 11.299 6.81697 11.3838 6.81738 11.4693C6.81778 11.5548 6.83512 11.6394 6.86839 11.7182C6.90166 11.797 6.95021 11.8685 7.01123 11.9284L9.71831 14.6355C9.83988 14.757 10.0047 14.8252 10.1765 14.8252C10.3483 14.8252 10.5131 14.757 10.6347 14.6355L15.9894 9.28086C16.0496 9.22071 16.0974 9.14927 16.13 9.07064C16.1626 8.99201 16.1793 8.90772 16.1793 8.8226C16.1793 8.73748 16.1625 8.6532 16.1298 8.57459C16.0972 8.49598 16.0494 8.42457 15.9891 8.36445Z" fill="#5EAC24"/>
</svg>
