<svg width="28" height="28" viewBox="0 0 28 28" fill="none" xmlns="http://www.w3.org/2000/svg">
<path d="M14 0C10.2882 0.00410265 6.72966 1.48042 4.10504 4.10504C1.48042 6.72966 0.00410265 10.2882 0 14C0.769 32.573 27.234 32.5675 28 14C27.9959 10.2882 26.5196 6.72966 23.895 4.10504C21.2703 1.48042 17.7118 0.00410265 14 0ZM14 27C10.5534 26.996 7.24911 25.6251 4.812 23.188C2.37488 20.7509 1.00397 17.4466 1 14C1.714 -3.246 26.2885 -3.241 27 14C26.996 17.4466 25.6251 20.7509 23.188 23.188C20.7509 25.6251 17.4466 26.996 14 27Z" fill="black"/>
<path d="M13.5 10.6314C12.8242 10.6648 12.1901 10.9453 11.736 11.4116C11.2818 11.8779 11.0445 12.4921 11.0759 13.1203V20.5015C11.1625 23.7829 15.8368 23.7868 15.9241 20.5015V13.1203C15.9555 12.4921 15.7182 11.8779 15.264 11.4116C14.8099 10.9453 14.1758 10.6648 13.5 10.6314ZM14.5385 20.5015C14.5115 22.0794 12.4892 22.0839 12.4615 20.5015V13.1203C12.4885 11.5423 14.5108 11.5385 14.5385 13.1203V20.5015ZM13.5 4.96399C12.837 4.96399 12.2011 5.20875 11.7322 5.64442C11.2634 6.0801 11 6.671 11 7.28714C11 7.90328 11.2634 8.49418 11.7322 8.92986C12.2011 9.36553 12.837 9.61029 13.5 9.61029C14.163 9.61029 14.7989 9.36553 15.2678 8.92986C15.7366 8.49418 16 7.90328 16 7.28714C16 6.671 15.7366 6.0801 15.2678 5.64442C14.7989 5.20875 14.163 4.96399 13.5 4.96399ZM13.5 8.32269C13.2044 8.32269 12.921 8.21359 12.712 8.01939C12.503 7.82518 12.3856 7.56179 12.3856 7.28714C12.3856 7.0125 12.503 6.7491 12.712 6.5549C12.921 6.36069 13.2044 6.25159 13.5 6.25159C13.7956 6.25159 14.079 6.36069 14.288 6.5549C14.497 6.7491 14.6144 7.0125 14.6144 7.28714C14.6144 7.56179 14.497 7.82518 14.288 8.01939C14.079 8.21359 13.7956 8.32269 13.5 8.32269Z" fill="black"/>
</svg>
