<svg width="21" height="21" viewBox="0 0 21 21" fill="none" xmlns="http://www.w3.org/2000/svg">
<path d="M10.5 0C4.69695 0 0 4.69613 0 10.5C0 16.3031 4.69613 21 10.5 21C16.3031 21 21 16.3039 21 10.5C21 4.69695 16.3039 0 10.5 0ZM10.5 19.3594C5.6036 19.3594 1.64062 15.3969 1.64062 10.5C1.64062 5.6036 5.60314 1.64062 10.5 1.64062C15.3964 1.64062 19.3594 5.60314 19.3594 10.5C19.3594 15.3964 15.3969 19.3594 10.5 19.3594ZM12.9335 15.3398C12.9335 15.7929 12.5663 16.1602 12.1132 16.1602H8.88677C8.43367 16.1602 8.06646 15.7929 8.06646 15.3398C8.06646 14.8867 8.43367 14.5195 8.88677 14.5195H9.67969V9.70709H8.88677C8.43367 9.70709 8.06646 9.33987 8.06646 8.88677C8.06646 8.43367 8.43367 8.06646 8.88677 8.06646H10.5C10.9531 8.06646 11.3203 8.43367 11.3203 8.88677V14.5195H12.1132C12.5663 14.5195 12.9335 14.8867 12.9335 15.3398ZM9.47461 5.07232C9.47461 4.50594 9.93362 4.04693 10.5 4.04693C11.0664 4.04693 11.5254 4.50594 11.5254 5.07232C11.5254 5.63854 11.0664 6.09771 10.5 6.09771C9.93362 6.09771 9.47461 5.63854 9.47461 5.07232Z" fill="white"/>
</svg>
