<svg width="31" height="31" viewBox="0 0 31 31" fill="none" xmlns="http://www.w3.org/2000/svg">
<g clip-path="url(#clip0_850_253)">
<path d="M28.8589 2.14309C26.0009 -0.714927 21.3501 -0.713799 18.4915 2.14309L13.3079 7.32677C13.2001 7.43081 13.1142 7.55526 13.0551 7.69287C12.996 7.83047 12.9649 7.97847 12.9636 8.12823C12.9623 8.27799 12.9908 8.4265 13.0475 8.56511C13.1042 8.70372 13.188 8.82965 13.2939 8.93555C13.3998 9.04145 13.5257 9.1252 13.6643 9.18191C13.8029 9.23862 13.9514 9.26716 14.1012 9.26585C14.251 9.26455 14.399 9.23344 14.5366 9.17433C14.6742 9.11522 14.7986 9.02929 14.9027 8.92157L20.0863 3.73789C20.5571 3.26654 21.1166 2.89317 21.7325 2.63937C22.3484 2.38557 23.0085 2.25638 23.6747 2.25926C25.0354 2.25926 26.3099 2.78485 27.2635 3.73846C28.2171 4.69207 28.7427 5.96656 28.7427 7.32733C28.7457 7.99354 28.6164 8.65371 28.3625 9.26964C28.1086 9.88557 27.7351 10.445 27.2635 10.9156L20.4856 17.6953C18.5062 19.6735 15.2867 19.6735 13.3073 17.6953C13.2033 17.5875 13.0788 17.5016 12.9412 17.4425C12.8036 17.3834 12.6556 17.3523 12.5058 17.351C12.3561 17.3497 12.2076 17.3782 12.0689 17.4349C11.9303 17.4916 11.8044 17.5754 11.6985 17.6813C11.5926 17.7872 11.5089 17.9131 11.4522 18.0517C11.3954 18.1903 11.3669 18.3388 11.3682 18.4886C11.3695 18.6384 11.4006 18.7864 11.4597 18.924C11.5188 19.0616 11.6048 19.186 11.7125 19.2901C13.1415 20.7191 15.0188 21.4336 16.8962 21.4336C18.7735 21.4336 20.6508 20.7191 22.0798 19.2901L28.8589 12.511C30.2388 11.1316 30.999 9.29038 30.999 7.32733C30.999 5.36371 30.2388 3.52303 28.8589 2.14309Z" fill="black"/>
<path d="M15.3009 22.8787L10.9146 27.2649C10.4439 27.7365 9.88439 28.1101 9.26836 28.364C8.65233 28.6179 7.99206 28.7471 7.32576 28.7441C6.65947 28.7471 5.99922 28.6178 5.3832 28.3639C4.76718 28.11 4.20762 27.7365 3.73689 27.2649C1.75804 25.2861 1.75804 22.066 3.73689 20.0872L10.1172 13.7069C10.588 13.2354 11.1476 12.862 11.7636 12.6082C12.3796 12.3544 13.0399 12.2253 13.7061 12.2282C15.0663 12.2282 16.3408 12.7538 17.2944 13.7069C17.3985 13.8146 17.5229 13.9005 17.6605 13.9596C17.7981 14.0187 17.9461 14.0498 18.0959 14.0511C18.2456 14.0524 18.3942 14.0239 18.5328 13.9672C18.6714 13.9105 18.7973 13.8267 18.9032 13.7208C19.0091 13.6149 19.0928 13.489 19.1496 13.3504C19.2063 13.2118 19.2348 13.0633 19.2335 12.9135C19.2322 12.7638 19.2011 12.6158 19.142 12.4782C19.0829 12.3405 18.9969 12.2161 18.8892 12.1121C16.0318 9.2546 11.381 9.25403 8.52186 12.1121L2.14152 18.493C0.762136 19.8723 0.00195312 21.7136 0.00195312 23.6766C0.00195312 25.6391 0.762136 27.4804 2.14208 28.8598C2.82157 29.5415 3.62954 30.0817 4.51924 30.4491C5.40893 30.8164 6.36265 31.0036 7.3252 30.9999C9.28825 30.9999 11.1295 30.2397 12.5089 28.8598L16.8952 24.4735C17.0978 24.2603 17.2091 23.9764 17.2054 23.6823C17.2017 23.3881 17.0832 23.1071 16.8753 22.8991C16.6673 22.6911 16.3864 22.5725 16.0922 22.5687C15.7981 22.5649 15.5142 22.6761 15.3009 22.8787Z" fill="black"/>
</g>
<defs>
<clipPath id="clip0_850_253">
<rect width="31" height="31" fill="white"/>
</clipPath>
</defs>
</svg>
