<svg width="49" height="65" viewBox="0 0 49 65" fill="none" xmlns="http://www.w3.org/2000/svg">
<path d="M3.52789 32.915C3.52789 29.6517 4.00456 26.7733 4.95789 24.28C5.94789 21.7867 7.26789 19.715 8.91789 18.065C10.6046 16.3783 12.5479 15.1133 14.7479 14.27C16.9846 13.4267 19.3496 13.005 21.8429 13.005C24.2996 13.005 26.6096 13.4267 28.7729 14.27C30.9729 15.1133 32.8979 16.3783 34.5479 18.065C36.1979 19.715 37.4996 21.7867 38.4529 24.28C39.4429 26.7733 39.9379 29.6517 39.9379 32.915C39.9379 36.1783 39.4429 39.0567 38.4529 41.55C37.4996 44.0433 36.1979 46.1333 34.5479 47.82C32.8979 49.47 30.9729 50.7167 28.7729 51.56C26.6096 52.4033 24.2996 52.825 21.8429 52.825C19.3496 52.825 16.9846 52.4033 14.7479 51.56C12.5479 50.7167 10.6046 49.47 8.91789 47.82C7.26789 46.1333 5.94789 44.0433 4.95789 41.55C4.00456 39.0567 3.52789 36.1783 3.52789 32.915ZM9.13789 32.915C9.13789 35.225 9.43122 37.3333 10.0179 39.24C10.6046 41.11 11.4296 42.705 12.4929 44.025C13.5929 45.345 14.9129 46.3717 16.4529 47.105C18.0296 47.8017 19.7896 48.15 21.7329 48.15C23.6762 48.15 25.4179 47.8017 26.9579 47.105C28.4979 46.3717 29.7996 45.345 30.8629 44.025C31.9629 42.705 32.8062 41.11 33.3929 39.24C33.9796 37.3333 34.2729 35.225 34.2729 32.915C34.2729 30.605 33.9796 28.515 33.3929 26.645C32.8062 24.7383 31.9629 23.125 30.8629 21.805C29.7996 20.485 28.4979 19.4767 26.9579 18.78C25.4179 18.0467 23.6762 17.68 21.7329 17.68C19.7896 17.68 18.0296 18.0467 16.4529 18.78C14.9129 19.4767 13.5929 20.485 12.4929 21.805C11.4296 23.125 10.6046 24.7383 10.0179 26.645C9.43122 28.515 9.13789 30.605 9.13789 32.915Z" fill="#05D825"/>
<path d="M48.3629 41.915C48.3629 45.215 47.8496 48.0933 46.8229 50.55C45.7962 52.97 44.3479 54.9867 42.4779 56.6C40.6079 58.1767 38.3712 59.3683 35.7679 60.175C33.1646 60.945 30.3046 61.33 27.1879 61.33C25.6479 61.33 23.9429 61.2567 22.0729 61.11C20.2396 61 18.5712 60.7617 17.0679 60.395V23.435C18.5712 23.0683 20.2396 22.83 22.0729 22.72C23.9429 22.5733 25.6479 22.5 27.1879 22.5C30.3046 22.5 33.1646 22.9033 35.7679 23.71C38.3712 24.48 40.6079 25.6717 42.4779 27.285C44.3479 28.8617 45.7962 30.8783 46.8229 33.335C47.8496 35.755 48.3629 38.615 48.3629 41.915ZM27.6279 56.655C32.6879 56.655 36.4646 55.3717 38.9579 52.805C41.4512 50.2017 42.6979 46.5717 42.6979 41.915C42.6979 37.2583 41.4512 33.6467 38.9579 31.08C36.4646 28.4767 32.6879 27.175 27.6279 27.175C26.1246 27.175 24.9512 27.1933 24.1079 27.23C23.3012 27.2667 22.7329 27.3033 22.4029 27.34V56.49C22.7329 56.5267 23.3012 56.5633 24.1079 56.6C24.9512 56.6367 26.1246 56.655 27.6279 56.655Z" fill="#2CF84B"/>
</svg>
