<svg width="26" height="30" viewBox="0 0 26 30" fill="none" xmlns="http://www.w3.org/2000/svg">
<path d="M19.4902 16.8431C18.9897 16.8431 18.584 17.2488 18.584 17.7493V21.2869C18.584 21.9702 18.0281 22.526 17.3449 22.526H12.5928V8.36888C12.5928 7.24921 12.0367 6.28603 11.067 5.72614L4.28838 1.8125H17.3449C18.0281 1.8125 18.584 2.36831 18.584 3.05157V7.0867C18.584 7.58724 18.9897 7.99296 19.4902 7.99296C19.9907 7.99296 20.3965 7.58724 20.3965 7.0867V3.05157C20.3965 1.36895 19.0275 0 17.3449 0H3.05157C1.36895 0 0 1.36895 0 3.05157V22.1936C0 23.3133 0.556098 24.2765 1.52579 24.8364L8.01544 28.5831C8.50034 28.863 9.02076 29.0031 9.54123 29.003C10.0616 29.0029 10.5822 28.863 11.067 28.5831C12.0366 28.0233 12.5927 27.0601 12.5927 25.9404V24.3385H17.3448C19.0275 24.3385 20.3964 22.9695 20.3964 21.2869V17.7493C20.3965 17.2488 19.9907 16.8431 19.4902 16.8431ZM10.7803 25.9404C10.7803 26.4018 10.5603 26.7828 10.1608 27.0134C9.76128 27.2441 9.32123 27.2441 8.92175 27.0134L2.43204 23.2667C2.03249 23.0361 1.8125 22.6549 1.8125 22.1936V3.05157C1.8125 2.86919 1.85209 2.69587 1.92318 2.53982L10.1608 7.29582C10.5603 7.52646 10.7803 7.9076 10.7803 8.36888V25.9404ZM25.625 12.8101L22.6801 15.7549C22.5031 15.9319 22.2712 16.0204 22.0393 16.0204C21.8074 16.0204 21.5755 15.9319 21.3985 15.7549C21.0446 15.401 21.0446 14.8272 21.3985 14.4733L22.7964 13.0755H14.4702C13.9697 13.0755 13.564 12.6698 13.564 12.1692C13.564 11.6687 13.9697 11.263 14.4702 11.263H22.7963L21.3985 9.86515C21.0446 9.51126 21.0446 8.93744 21.3985 8.58355C21.7524 8.2296 22.3263 8.2296 22.6802 8.58355L25.625 11.5284C25.9789 11.8824 25.9789 12.4562 25.625 12.8101Z" fill="white"/>
</svg>
