<svg width="42" height="49" viewBox="0 0 42 49" fill="none" xmlns="http://www.w3.org/2000/svg">
<path d="M2.436 25.426C2.436 22.934 2.8 20.736 3.528 18.832C4.284 16.928 5.292 15.346 6.552 14.086C7.84 12.798 9.324 11.832 11.004 11.188C12.712 10.544 14.518 10.222 16.422 10.222C18.298 10.222 20.062 10.544 21.714 11.188C23.394 11.832 24.864 12.798 26.124 14.086C27.384 15.346 28.378 16.928 29.106 18.832C29.862 20.736 30.24 22.934 30.24 25.426C30.24 27.918 29.862 30.116 29.106 32.02C28.378 33.924 27.384 35.52 26.124 36.808C24.864 38.068 23.394 39.02 21.714 39.664C20.062 40.308 18.298 40.63 16.422 40.63C14.518 40.63 12.712 40.308 11.004 39.664C9.324 39.02 7.84 38.068 6.552 36.808C5.292 35.52 4.284 33.924 3.528 32.02C2.8 30.116 2.436 27.918 2.436 25.426ZM6.72 25.426C6.72 27.19 6.944 28.8 7.392 30.256C7.84 31.684 8.47 32.902 9.282 33.91C10.122 34.918 11.13 35.702 12.306 36.262C13.51 36.794 14.854 37.06 16.338 37.06C17.822 37.06 19.152 36.794 20.328 36.262C21.504 35.702 22.498 34.918 23.31 33.91C24.15 32.902 24.794 31.684 25.242 30.256C25.69 28.8 25.914 27.19 25.914 25.426C25.914 23.662 25.69 22.066 25.242 20.638C24.794 19.182 24.15 17.95 23.31 16.942C22.498 15.934 21.504 15.164 20.328 14.632C19.152 14.072 17.822 13.792 16.338 13.792C14.854 13.792 13.51 14.072 12.306 14.632C11.13 15.164 10.122 15.934 9.282 16.942C8.47 17.95 7.84 19.182 7.392 20.638C6.944 22.066 6.72 23.662 6.72 25.426Z" fill="#149326"/>
<path d="M38.51 31.426C38.51 33.946 38.118 36.144 37.334 38.02C36.55 39.868 35.444 41.408 34.016 42.64C32.588 43.844 30.88 44.754 28.892 45.37C26.904 45.958 24.72 46.252 22.34 46.252C21.164 46.252 19.862 46.196 18.434 46.084C17.034 46 15.76 45.818 14.612 45.538V17.314C15.76 17.034 17.034 16.852 18.434 16.768C19.862 16.656 21.164 16.6 22.34 16.6C24.72 16.6 26.904 16.908 28.892 17.524C30.88 18.112 32.588 19.022 34.016 20.254C35.444 21.458 36.55 22.998 37.334 24.874C38.118 26.722 38.51 28.906 38.51 31.426ZM22.676 42.682C26.54 42.682 29.424 41.702 31.328 39.742C33.232 37.754 34.184 34.982 34.184 31.426C34.184 27.87 33.232 25.112 31.328 23.152C29.424 21.164 26.54 20.17 22.676 20.17C21.528 20.17 20.632 20.184 19.988 20.212C19.372 20.24 18.938 20.268 18.686 20.296V42.556C18.938 42.584 19.372 42.612 19.988 42.64C20.632 42.668 21.528 42.682 22.676 42.682Z" fill="#36CF4C"/>
</svg>
