<svg width="200" height="200" viewBox="0 0 200 200" fill="none" xmlns="http://www.w3.org/2000/svg">
<path d="M100 200C155.228 200 200 155.228 200 100C200 44.7715 155.228 0 100 0C44.7715 0 0 44.7715 0 100C0 155.228 44.7715 200 100 200Z" fill="#008413"/>
<path d="M155.555 159.093C151.852 152.313 144.973 147.619 137.037 147.619H62.9629C54.4972 147.619 47.6189 152.313 44.4443 159.093C57.6718 174.218 77.7777 184.127 99.9999 184.127C122.222 184.127 142.328 174.218 155.555 159.093Z" fill="#FED049"/>
<path d="M100 173.016C108.995 173.016 115.873 166.137 115.873 157.143H84.127C84.127 166.137 91.0053 173.016 100 173.016Z" fill="#E6E6E6"/>
<path d="M84.8071 131.746L63.4919 157.143H84.8071V131.746ZM116.78 131.746L138.095 157.143H116.78V131.746Z" fill="#FFE167"/>
<path d="M84.127 131.746H115.873V157.143H84.127V131.746Z" fill="#FCC792"/>
<path d="M84.127 125.397L115.873 157.143V125.397H84.127Z" fill="#F9B475"/>
<path d="M63.4919 34.9209V99.0813C63.4919 119.933 80.0112 136.508 100.794 136.508C121.576 136.508 138.095 119.933 138.095 99.0813V34.9209H63.4919Z" fill="#FAD3A1"/>
<path d="M110.695 41.27V78.3071C104.667 78.3071 99.7354 83.069 99.7354 88.8891V94.1801H92.0635C93.1595 97.3547 96.4475 99.4711 99.7354 99.4711V136.508C121.107 136.508 138.095 120.106 138.095 99.4711V41.27H110.695Z" fill="#FCC792"/>
<path d="M121.429 82.5399C124.497 82.5399 126.984 80.4079 126.984 77.778C126.984 75.1481 124.497 73.0161 121.429 73.0161C118.36 73.0161 115.873 75.1481 115.873 77.778C115.873 80.4079 118.36 82.5399 121.429 82.5399Z" fill="#25374B"/>
<path d="M78.5714 82.5399C81.6397 82.5399 84.127 80.4079 84.127 77.778C84.127 75.1481 81.6397 73.0161 78.5714 73.0161C75.5032 73.0161 73.0159 75.1481 73.0159 77.778C73.0159 80.4079 75.5032 82.5399 78.5714 82.5399Z" fill="#25374B"/>
<path d="M114.142 65.0791H130.159V69.841H114.142V65.0791ZM71.4287 65.0791H87.446V69.841H71.4287V65.0791Z" fill="#58302F"/>
<path d="M78.9589 76.8671C79.8387 76.8671 80.5519 76.1539 80.5519 75.2741C80.5519 74.3944 79.8387 73.6812 78.9589 73.6812C78.0792 73.6812 77.366 74.3944 77.366 75.2741C77.366 76.1539 78.0792 76.8671 78.9589 76.8671Z" fill="#E6E6E6"/>
<path d="M121.438 76.8671C122.318 76.8671 123.031 76.1539 123.031 75.2741C123.031 74.3944 122.318 73.6812 121.438 73.6812C120.558 73.6812 119.845 74.3944 119.845 75.2741C119.845 76.1539 120.558 76.8671 121.438 76.8671Z" fill="#E6E6E6"/>
<path d="M100.199 125.718C111.88 125.718 121.438 116.16 121.438 104.479H78.959C78.959 116.16 88.5168 125.718 100.199 125.718Z" fill="#E6E6E6"/>
<path d="M121.429 93.6509C123.62 93.6509 125.397 91.8742 125.397 89.6826C125.397 87.491 123.62 85.7144 121.429 85.7144C119.237 85.7144 117.46 87.491 117.46 89.6826C117.46 91.8742 119.237 93.6509 121.429 93.6509Z" fill="#FCBD83"/>
<path d="M78.5713 93.6509C80.7629 93.6509 82.5395 91.8742 82.5395 89.6826C82.5395 87.491 80.7629 85.7144 78.5713 85.7144C76.3797 85.7144 74.603 87.491 74.603 89.6826C74.603 91.8742 76.3797 93.6509 78.5713 93.6509Z" fill="#FCC792"/>
<path d="M119.274 14.2856C116.599 14.2856 113.923 14.8185 111.247 15.8843C109.642 14.8185 108.036 14.2856 105.896 14.2856C102.15 14.2856 98.9387 16.4172 96.7981 19.0816C92.5169 15.8843 87.7006 14.2856 81.814 14.2856C71.111 14.2856 61.4784 20.6802 57.1972 30.272H52.3809C52.3809 32.4036 52.916 34.0022 53.9863 35.6008H52.3809C52.3809 38.2652 53.4512 40.9296 55.0566 42.5283V88.8888H63.0838V51.5872C67.9001 57.9818 75.9273 62.2448 84.4897 62.2448C93.0521 62.2448 101.079 57.9818 105.896 51.5872H118.204C119.809 54.7845 123.555 56.916 127.301 56.916C133.188 56.916 138.004 52.1201 138.004 46.2584V88.8888H146.032V40.9296C146.032 26.009 134.258 14.2856 119.274 14.2856Z" fill="#793431"/>
<path d="M137.037 77.7778C142.857 77.7778 147.619 82.4207 147.619 88.0953C147.619 93.7699 142.857 98.4128 137.037 98.4128V77.7778ZM62.9629 77.7778C57.1428 77.7778 52.3809 82.4207 52.3809 88.0953C52.3809 93.7699 57.1428 98.4128 62.9629 98.4128V77.7778Z" fill="#FCC792"/>
</svg>
