<svg width="16" height="16" viewBox="0 0 16 16" fill="none" xmlns="http://www.w3.org/2000/svg">
<path fill-rule="evenodd" clip-rule="evenodd" d="M3.71604 1.24215C4.99773 0.429761 6.48417 -0.00107136 8.00164 2.00071e-06C9.05204 2.42748e-05 10.0921 0.206965 11.0626 0.609004C12.033 1.01104 12.9147 1.60031 13.6573 2.34314C15.1574 3.84356 16 5.87835 16 7.99999C16 10.1216 15.1574 12.1564 13.6573 13.6569C12.9147 14.3997 12.033 14.9889 11.0626 15.391C10.0921 15.793 9.05204 15.9999 8.00164 16H0.73128C0.624112 16.0004 0.518175 15.9771 0.421046 15.9318C0.323917 15.8865 0.237997 15.8204 0.16943 15.738C0.100864 15.6556 0.0513469 15.5591 0.0244201 15.4554C-0.00250668 15.3517 -0.00617748 15.2433 0.0136703 15.138C0.0401979 14.997 0.107778 14.8671 0.20792 14.7645L1.83214 13.0921C0.865532 11.922 0.25175 10.5011 0.0624616 8.99523C-0.126826 7.48937 0.116192 5.96073 0.763141 4.58781C1.41004 3.21499 2.43421 2.05459 3.71604 1.24215ZM2.4435 14.5438H8.00164C9.51292 14.5432 10.9774 14.0192 12.1461 13.0608C13.3147 12.1024 14.1155 10.7687 14.4121 9.28656C14.7088 7.8044 14.4832 6.26522 13.7735 4.93061C13.0639 3.59608 11.9141 2.54851 10.5194 1.966C9.12485 1.38354 7.57167 1.3021 6.12388 1.73559C4.6761 2.16907 3.42305 3.09068 2.5778 4.34372C1.73255 5.59683 1.34726 7.10395 1.48743 8.60897C1.6276 10.114 2.28457 11.524 3.3467 12.5995C3.47975 12.7355 3.55427 12.9182 3.55427 13.1084C3.55427 13.2986 3.47975 13.4813 3.3467 13.6172L2.4435 14.5438ZM4.14476 6.98254C4.37976 6.82535 4.66197 6.75448 4.94334 6.78197C5.22472 6.80946 5.48787 6.93362 5.688 7.13331C5.83033 7.27531 5.93546 7.45022 5.99409 7.64253C6.05272 7.83485 6.06303 8.03866 6.02413 8.23591C5.98522 8.43317 5.89829 8.61779 5.77103 8.77344C5.64377 8.9291 5.4801 9.05098 5.29451 9.12831C5.07113 9.22135 4.82516 9.246 4.58775 9.19915C4.35034 9.1523 4.13218 9.03605 3.96088 8.86512C3.83277 8.73734 3.73461 8.58273 3.67347 8.41244C3.61234 8.24214 3.58975 8.0604 3.60734 7.88031C3.62493 7.70023 3.68225 7.5263 3.77519 7.37105C3.86812 7.2158 3.99435 7.08311 4.14476 6.98254ZM7.99548 6.77618C7.75341 6.77586 7.51671 6.84741 7.31535 6.98176C7.11399 7.11611 6.95704 7.3072 6.8644 7.53083C6.77172 7.75446 6.74747 8.00056 6.79472 8.23798C6.84197 8.4754 6.9586 8.69346 7.12985 8.86456C7.30107 9.03567 7.51923 9.15209 7.75669 9.19906C7.99415 9.24603 8.24021 9.22144 8.46368 9.12841C8.68717 9.0354 8.87803 8.87816 9.01208 8.67659C9.14614 8.47503 9.21736 8.23822 9.21672 7.99615C9.21551 7.67272 9.0864 7.36291 8.85759 7.13433C8.62882 6.90574 8.31888 6.77698 7.99548 6.77618ZM10.4858 6.98254C10.7208 6.82535 11.003 6.75447 11.2844 6.78196C11.5658 6.80945 11.8289 6.93361 12.029 7.13331C12.2582 7.36203 12.3874 7.67233 12.3882 7.99615C12.3889 8.23817 12.3177 8.47495 12.1837 8.67648C12.0497 8.878 11.859 9.03525 11.6356 9.12831C11.4122 9.22136 11.1662 9.24603 10.9287 9.19918C10.6913 9.15234 10.4731 9.03609 10.3018 8.86515C10.1304 8.69421 10.0137 8.47628 9.96628 8.23894C9.91889 8.00161 9.94299 7.75554 10.0355 7.53192C10.1279 7.30823 10.2846 7.11702 10.4858 6.98254Z" fill="black"/>
</svg>
