<svg width="26" height="8" viewBox="0 0 26 8" fill="none" xmlns="http://www.w3.org/2000/svg">
<path d="M13 0C12.2592 0 11.535 0.234596 10.919 0.674121C10.303 1.11365 9.82288 1.73836 9.53937 2.46927C9.25586 3.20017 9.18168 4.00444 9.32621 4.78036C9.47074 5.55628 9.82749 6.26901 10.3513 6.82842C10.8752 7.38783 11.5426 7.7688 12.2692 7.92314C12.9958 8.07748 13.749 7.99827 14.4334 7.69552C15.1179 7.39277 15.7029 6.88008 16.1145 6.22228C16.5261 5.56448 16.7458 4.79112 16.7458 4C16.7446 2.93952 16.3496 1.92282 15.6474 1.17295C14.9452 0.423073 13.9931 0.00124543 13 0ZM13 6.58823C12.5206 6.58823 12.052 6.43644 11.6535 6.15204C11.2549 5.86764 10.9442 5.46341 10.7608 4.99047C10.5773 4.51754 10.5293 3.99713 10.6228 3.49506C10.7164 2.99299 10.9472 2.53181 11.2862 2.16984C11.6251 1.80787 12.057 1.56136 12.5272 1.4615C12.9973 1.36163 13.4846 1.41288 13.9275 1.60878C14.3704 1.80468 14.7489 2.13642 15.0153 2.56205C15.2816 2.98769 15.4237 3.48809 15.4237 4C15.4229 4.68617 15.1673 5.344 14.7129 5.8292C14.2586 6.31439 13.6426 6.58736 13 6.58823ZM3.74576 0C3.00492 0 2.28072 0.234596 1.66473 0.674121C1.04874 1.11365 0.568639 1.73836 0.285131 2.46927C0.00162298 3.20017 -0.0725556 4.00444 0.0719755 4.78036C0.216507 5.55628 0.573256 6.26901 1.09711 6.82842C1.62096 7.38783 2.2884 7.7688 3.015 7.92314C3.74161 8.07748 4.49476 7.99827 5.17921 7.69552C5.86365 7.39277 6.44866 6.88008 6.86025 6.22228C7.27184 5.56448 7.49153 4.79112 7.49153 4C7.49036 2.93952 7.09534 1.92282 6.39313 1.17295C5.69092 0.423073 4.73884 0.00124543 3.74576 0ZM3.74576 6.58823C3.2664 6.58823 2.79779 6.43644 2.39921 6.15204C2.00063 5.86764 1.68998 5.46341 1.50653 4.99047C1.32308 4.51754 1.27509 3.99713 1.36861 3.49506C1.46213 2.99299 1.69296 2.53181 2.03193 2.16984C2.37089 1.80787 2.80276 1.56136 3.27292 1.4615C3.74308 1.36163 4.23041 1.41288 4.67329 1.60878C5.11616 1.80468 5.4947 2.13642 5.76102 2.56205C6.02734 2.98769 6.16949 3.48809 6.16949 4C6.16868 4.68617 5.91306 5.344 5.4587 5.8292C5.00434 6.31439 4.38833 6.58736 3.74576 6.58823ZM22.2542 0C21.5134 0 20.7892 0.234596 20.1732 0.674121C19.5572 1.11365 19.0771 1.73836 18.7936 2.46927C18.5101 3.20017 18.4359 4.00444 18.5805 4.78036C18.725 5.55628 19.0817 6.26901 19.6056 6.82842C20.1294 7.38783 20.7969 7.7688 21.5235 7.92314C22.2501 8.07748 23.0032 7.99827 23.6877 7.69552C24.3721 7.39277 24.9571 6.88008 25.3687 6.22228C25.7803 5.56448 26 4.79112 26 4C25.9988 2.93952 25.6038 1.92282 24.9016 1.17295C24.1994 0.423073 23.2473 0.00124543 22.2542 0ZM22.2542 6.58823C21.7749 6.58823 21.3063 6.43644 20.9077 6.15204C20.5091 5.86764 20.1985 5.46341 20.015 4.99047C19.8316 4.51754 19.7836 3.99713 19.8771 3.49506C19.9706 2.99299 20.2014 2.53181 20.5404 2.16984C20.8794 1.80787 21.3112 1.56136 21.7814 1.4615C22.2515 1.36163 22.7389 1.41288 23.1818 1.60878C23.6246 1.80468 24.0032 2.13642 24.2695 2.56205C24.5358 2.98769 24.678 3.48809 24.678 4C24.6772 4.68617 24.4215 5.344 23.9672 5.8292C23.5128 6.31439 22.8968 6.58736 22.2542 6.58823Z" fill="white"/>
</svg>
