<svg width="21" height="6" viewBox="0 0 21 6" fill="none" xmlns="http://www.w3.org/2000/svg">
<path d="M10.5 0C9.90163 0 9.31669 0.175947 8.81917 0.505591C8.32164 0.835235 7.93386 1.30377 7.70487 1.85195C7.47589 2.40013 7.41597 3.00333 7.53271 3.58527C7.64945 4.16721 7.93759 4.70176 8.3607 5.12132C8.78382 5.54088 9.32289 5.8266 9.90977 5.94235C10.4966 6.05811 11.105 5.9987 11.6578 5.77164C12.2106 5.54458 12.6831 5.16006 13.0155 4.66671C13.348 4.17336 13.5254 3.59334 13.5254 3C13.5245 2.20464 13.2054 1.44212 12.6383 0.879711C12.0711 0.317305 11.3021 0.000934073 10.5 0ZM10.5 4.94118C10.1128 4.94118 9.73433 4.82733 9.4124 4.61403C9.09047 4.40073 8.83956 4.09756 8.69139 3.74286C8.54322 3.38815 8.50445 2.99785 8.57999 2.62129C8.65552 2.24474 8.84197 1.89886 9.11575 1.62738C9.38953 1.3559 9.73834 1.17102 10.1181 1.09612C10.4978 1.02122 10.8914 1.05966 11.2492 1.20659C11.6069 1.35351 11.9126 1.60232 12.1277 1.92154C12.3428 2.24076 12.4576 2.61607 12.4576 3C12.457 3.51463 12.2505 4.008 11.8835 4.3719C11.5165 4.7358 11.019 4.94052 10.5 4.94118ZM3.02542 0C2.42705 0 1.84212 0.175947 1.34459 0.505591C0.847061 0.835235 0.459285 1.30377 0.230298 1.85195C0.00131087 2.40013 -0.0586026 3.00333 0.058134 3.58527C0.174871 4.16721 0.463014 4.70176 0.886127 5.12132C1.30924 5.54088 1.84832 5.8266 2.43519 5.94235C3.02207 6.05811 3.63038 5.9987 4.1832 5.77164C4.73603 5.54458 5.20853 5.16006 5.54097 4.66671C5.87341 4.17336 6.05085 3.59334 6.05085 3C6.04991 2.20464 5.73085 1.44212 5.16368 0.879711C4.59651 0.317305 3.82753 0.000934073 3.02542 0ZM3.02542 4.94118C2.63824 4.94118 2.25976 4.82733 1.93783 4.61403C1.6159 4.40073 1.36498 4.09756 1.21681 3.74286C1.06865 3.38815 1.02988 2.99785 1.10541 2.62129C1.18095 2.24474 1.36739 1.89886 1.64117 1.62738C1.91495 1.3559 2.26377 1.17102 2.64351 1.09612C3.02325 1.02122 3.41687 1.05966 3.77458 1.20659C4.13229 1.35351 4.43803 1.60232 4.65313 1.92154C4.86824 2.24076 4.98305 2.61607 4.98305 3C4.98239 3.51463 4.77593 4.008 4.40895 4.3719C4.04196 4.7358 3.54442 4.94052 3.02542 4.94118ZM17.9746 0C17.3762 0 16.7913 0.175947 16.2937 0.505591C15.7962 0.835235 15.4084 1.30377 15.1794 1.85195C14.9505 2.40013 14.8905 3.00333 15.0073 3.58527C15.124 4.16721 15.4122 4.70176 15.8353 5.12132C16.2584 5.54088 16.7975 5.8266 17.3843 5.94235C17.9712 6.05811 18.5795 5.9987 19.1324 5.77164C19.6852 5.54458 20.1577 5.16006 20.4901 4.66671C20.8226 4.17336 21 3.59334 21 3C20.9991 2.20464 20.68 1.44212 20.1128 0.879711C19.5457 0.317305 18.7767 0.000934073 17.9746 0ZM17.9746 4.94118C17.5874 4.94118 17.2089 4.82733 16.887 4.61403C16.565 4.40073 16.3141 4.09756 16.166 3.74286C16.0178 3.38815 15.979 2.99785 16.0546 2.62129C16.1301 2.24474 16.3165 1.89886 16.5903 1.62738C16.8641 1.3559 17.2129 1.17102 17.5927 1.09612C17.9724 1.02122 18.366 1.05966 18.7237 1.20659C19.0814 1.35351 19.3872 1.60232 19.6023 1.92154C19.8174 2.24076 19.9322 2.61607 19.9322 3C19.9315 3.51463 19.7251 4.008 19.3581 4.3719C18.9911 4.7358 18.4936 4.94052 17.9746 4.94118Z" fill="black"/>
</svg>
