<svg width="67" height="44" viewBox="0 0 67 44" fill="none" xmlns="http://www.w3.org/2000/svg">
<path d="M25.5176 4.4H65.0371C66.1221 4.4 67 3.41601 67 2.2C67 0.983987 66.1221 0 65.0371 0H25.5176C24.4326 0 23.5547 0.983987 23.5547 2.2C23.5547 3.41601 24.4326 4.4 25.5176 4.4ZM65.0371 13.2H33.3691C32.2842 13.2 31.4062 14.184 31.4062 15.4C31.4062 16.616 32.2842 17.6 33.3691 17.6H65.0371C66.1221 17.6 67 16.616 67 15.4C67 14.184 66.1221 13.2 65.0371 13.2ZM65.0371 26.4H33.3691C32.2842 26.4 31.4062 27.384 31.4062 28.6C31.4062 29.816 32.2842 30.8 33.3691 30.8H65.0371C66.1221 30.8 67 29.816 67 28.6C67 27.384 66.1221 26.4 65.0371 26.4ZM65.0371 39.6H25.5176C24.4326 39.6 23.5547 40.584 23.5547 41.8C23.5547 43.016 24.4326 44 25.5176 44H65.0371C66.1221 44 67 43.016 67 41.8C67 40.584 66.1221 39.6 65.0371 39.6ZM26.903 20.4418L19.0538 11.6445C18.2871 10.7851 17.0448 10.7851 16.2781 11.6445C15.5114 12.5038 15.5114 13.8961 16.2781 14.7554L20.779 19.8H1.96289C0.877936 19.8 0 20.784 0 22C0 23.216 0.877936 24.2 1.96289 24.2H20.779L16.2781 29.2446C15.5114 30.1039 15.5114 31.4962 16.2781 32.3555C17.0448 33.2149 18.2869 33.215 19.0538 32.3555L26.903 23.5582C27.6628 22.7088 27.6747 21.3044 26.903 20.4418Z" fill="#F5F5F5"/>
</svg>
