<svg width="26" height="25" viewBox="0 0 26 25" fill="none" xmlns="http://www.w3.org/2000/svg">
<path fill-rule="evenodd" clip-rule="evenodd" d="M3.33002e-10 21.1289V1.73171C3.33002e-10 1.27243 0.182456 0.831949 0.507228 0.507228C0.668023 0.346416 0.85892 0.218852 1.06902 0.131821C1.27912 0.0447904 1.5043 -2.62051e-06 1.73171 1.14984e-10H22.1624C22.6217 1.14984e-10 23.0622 0.182456 23.3869 0.507228C23.5477 0.668023 23.6752 0.85892 23.7623 1.06902C23.8493 1.27912 23.8941 1.5043 23.8941 1.73171V8.15984H24.2176C25.174 8.15984 25.9493 8.93513 25.9493 9.89156V21.1289C25.9493 21.6355 25.8496 22.1371 25.6557 22.6051C25.4618 23.0731 25.1777 23.4983 24.8195 23.8565C24.4613 24.2147 24.0361 24.4989 23.568 24.6927C23.1 24.8866 22.5984 24.9864 22.0918 24.9864H3.85753C3.35095 24.9864 2.84933 24.8866 2.38131 24.6928C1.91329 24.4989 1.48804 24.2148 1.12983 23.8566C0.771625 23.4984 0.487482 23.0731 0.293624 22.6051C0.0997671 22.1371 -6.6557e-06 21.6355 3.33002e-10 21.1289ZM23.4379 18.8031C23.3169 18.8031 23.2009 18.7551 23.1154 18.6696C23.0299 18.584 22.9818 18.468 22.9818 18.3471V1.73171C22.9818 1.51439 22.8955 1.30598 22.7418 1.15226C22.5882 0.998601 22.3797 0.912279 22.1624 0.912281H1.73171C1.6241 0.912274 1.51754 0.933465 1.41812 0.974643C1.3187 1.01582 1.22836 1.07618 1.15227 1.15227C1.07618 1.22836 1.01582 1.3187 0.974643 1.41812C0.933465 1.51754 0.912274 1.6241 0.912281 1.73171V21.1289C0.912294 21.91 1.2226 22.6591 1.77494 23.2115C2.32728 23.7638 3.07641 24.0741 3.85753 24.0741H22.0918C22.873 24.0741 23.6221 23.7638 24.1744 23.2114C24.7267 22.6591 25.037 21.91 25.037 21.1289V9.89156C25.037 9.43901 24.6702 9.07213 24.2176 9.07213H23.8941V18.3471C23.8941 18.468 23.846 18.584 23.7605 18.6695C23.675 18.7551 23.559 18.8031 23.4381 18.8031H23.4379ZM2.77359 18.8031H21.1206C21.3723 18.8031 21.5767 18.5987 21.5767 18.347C21.5767 18.0952 21.3723 17.8908 21.1206 17.8908H2.77359C2.5218 17.8908 2.31745 18.0952 2.31745 18.347C2.31745 18.5987 2.5218 18.8031 2.77359 18.8031ZM2.77359 15.6355H21.1206C21.3723 15.6355 21.5767 15.4311 21.5767 15.1793C21.5767 14.9276 21.3723 14.7232 21.1206 14.7232H2.77359C2.5218 14.7232 2.31745 14.9276 2.31745 15.1793C2.31745 15.4311 2.5218 15.6355 2.77359 15.6355ZM2.77359 12.4678H21.1206C21.3723 12.4678 21.5767 12.2634 21.5767 12.0117C21.5767 11.76 21.3723 11.5556 21.1206 11.5556H2.77359C2.5218 11.5556 2.31745 11.76 2.31745 12.0117C2.31745 12.2634 2.5218 12.4678 2.77359 12.4678ZM21.1206 3.33662C21.1206 2.62747 20.5457 2.05263 19.8366 2.05263H4.05752C3.34842 2.05263 2.77359 2.62747 2.77359 3.33662V7.56007C2.77359 8.26922 3.34842 8.84406 4.05752 8.84406H19.8366C20.5457 8.84406 21.1206 8.26922 21.1206 7.56007V3.33662ZM20.2083 3.33662C20.2083 3.23803 20.1691 3.14349 20.0994 3.07378C20.0297 3.00407 19.9352 2.96491 19.8366 2.96491H4.05752C4.00871 2.96491 3.96038 2.97453 3.91528 2.99321C3.87019 3.01189 3.82922 3.03927 3.7947 3.07379C3.76019 3.1083 3.73282 3.14928 3.71414 3.19438C3.69547 3.23947 3.68586 3.28781 3.68587 3.33662V7.56007C3.68586 7.60888 3.69547 7.65721 3.71414 7.70231C3.73282 7.74741 3.76019 7.78839 3.7947 7.8229C3.82922 7.85742 3.87019 7.8848 3.91528 7.90348C3.96038 7.92216 4.00871 7.93177 4.05752 7.93177H19.8366C19.9352 7.93177 20.0297 7.89261 20.0994 7.82291C20.1691 7.7532 20.2083 7.65865 20.2083 7.56007V3.33662Z" fill="black"/>
</svg>
