<svg width="23" height="23" viewBox="0 0 23 23" fill="none" xmlns="http://www.w3.org/2000/svg">
<g clip-path="url(#clip0_311_590)">
<path d="M11.5 0C5.15865 0 0 5.15865 0 11.5C0 17.8414 5.15865 23 11.5 23C17.8414 23 23 17.8414 23 11.5C23 5.15865 17.8414 0 11.5 0Z" fill="#F44336"/>
<path d="M15.7348 14.3797C16.1094 14.7545 16.1094 15.3601 15.7348 15.7349C15.6459 15.824 15.5402 15.8947 15.4239 15.9429C15.3076 15.9911 15.183 16.0158 15.0571 16.0156C14.8118 16.0156 14.5665 15.9218 14.3796 15.7349L11.4998 12.855L8.62012 15.7349C8.53124 15.824 8.42563 15.8947 8.30935 15.9429C8.19307 15.9911 8.06843 16.0158 7.94256 16.0157C7.81669 16.0158 7.69202 15.9911 7.57573 15.9429C7.45944 15.8947 7.35382 15.824 7.26492 15.7349C6.89027 15.3601 6.89027 14.7545 7.26492 14.3797L10.1448 11.5L7.26487 8.62024C6.89022 8.24542 6.89022 7.63982 7.26487 7.26504C7.6397 6.89039 8.24529 6.89039 8.62012 7.26504L11.4998 10.1449L14.3796 7.265C14.7544 6.89035 15.36 6.89035 15.7348 7.265C16.1094 7.63982 16.1094 8.24542 15.7348 8.62024L12.8549 11.5L15.7348 14.3797Z" fill="#FAFAFA"/>
</g>
<defs>
<clipPath id="clip0_311_590">
<rect width="23" height="23" fill="white"/>
</clipPath>
</defs>
</svg>
