<svg width="32" height="32" viewBox="0 0 32 32" fill="none" xmlns="http://www.w3.org/2000/svg">
<path d="M16 11.75C15.1594 11.75 14.3377 11.9993 13.6388 12.4663C12.9399 12.9333 12.3952 13.597 12.0735 14.3736C11.7518 15.1502 11.6677 16.0047 11.8317 16.8291C11.9957 17.6536 12.4004 18.4108 12.9948 19.0052C13.5892 19.5996 14.3464 20.0043 15.1709 20.1683C15.9953 20.3323 16.8498 20.2482 17.6264 19.9265C18.403 19.6048 19.0668 19.0601 19.5337 18.3612C20.0007 17.6623 20.25 16.8406 20.25 16C20.2487 14.8732 19.8005 13.793 19.0037 12.9963C18.207 12.1995 17.1268 11.7513 16 11.75ZM16 18.75C15.4561 18.75 14.9244 18.5887 14.4722 18.2865C14.0199 17.9844 13.6675 17.5549 13.4593 17.0524C13.2512 16.5499 13.1967 15.9969 13.3028 15.4635C13.409 14.9301 13.6709 14.4401 14.0555 14.0555C14.4401 13.6709 14.9301 13.4089 15.4635 13.3028C15.997 13.1967 16.5499 13.2512 17.0524 13.4593C17.5549 13.6675 17.9844 14.0199 18.2865 14.4722C18.5887 14.9244 18.75 15.4561 18.75 16C18.7491 16.7291 18.459 17.428 17.9435 17.9435C17.428 18.459 16.7291 18.7491 16 18.75ZM5.5 11.75C4.65943 11.75 3.83774 11.9993 3.13883 12.4663C2.43992 12.9333 1.89519 13.597 1.57351 14.3736C1.25184 15.1502 1.16768 16.0047 1.33166 16.8291C1.49565 17.6536 1.90043 18.4108 2.4948 19.0052C3.08917 19.5996 3.84645 20.0043 4.67087 20.1683C5.49529 20.3323 6.34982 20.2482 7.12641 19.9265C7.90299 19.6048 8.56675 19.0601 9.03375 18.3612C9.50074 17.6623 9.75 16.8406 9.75 16C9.74868 14.8732 9.30049 13.793 8.50374 12.9963C7.707 12.1995 6.62677 11.7513 5.5 11.75ZM5.5 18.75C4.9561 18.75 4.42442 18.5887 3.97218 18.2865C3.51995 17.9844 3.16747 17.5549 2.95933 17.0524C2.75119 16.5499 2.69673 15.9969 2.80284 15.4635C2.90895 14.9301 3.17086 14.4401 3.55546 14.0555C3.94005 13.6709 4.43006 13.4089 4.9635 13.3028C5.49695 13.1967 6.04988 13.2512 6.55238 13.4593C7.05488 13.6675 7.48437 14.0199 7.78654 14.4722C8.08872 14.9244 8.25 15.4561 8.25 16C8.24908 16.7291 7.95905 17.428 7.44352 17.9435C6.928 18.459 6.22906 18.7491 5.5 18.75ZM26.5 11.75C25.6594 11.75 24.8377 11.9993 24.1388 12.4663C23.4399 12.9333 22.8952 13.597 22.5735 14.3736C22.2518 15.1502 22.1677 16.0047 22.3317 16.8291C22.4957 17.6536 22.9004 18.4108 23.4948 19.0052C24.0892 19.5996 24.8464 20.0043 25.6709 20.1683C26.4953 20.3323 27.3498 20.2482 28.1264 19.9265C28.903 19.6048 29.5668 19.0601 30.0337 18.3612C30.5007 17.6623 30.75 16.8406 30.75 16C30.7487 14.8732 30.3005 13.793 29.5037 12.9963C28.707 12.1995 27.6268 11.7513 26.5 11.75ZM26.5 18.75C25.9561 18.75 25.4244 18.5887 24.9722 18.2865C24.5199 17.9844 24.1675 17.5549 23.9593 17.0524C23.7512 16.5499 23.6967 15.9969 23.8028 15.4635C23.909 14.9301 24.1709 14.4401 24.5555 14.0555C24.9401 13.6709 25.4301 13.4089 25.9635 13.3028C26.497 13.1967 27.0499 13.2512 27.5524 13.4593C28.0549 13.6675 28.4844 14.0199 28.7865 14.4722C29.0887 14.9244 29.25 15.4561 29.25 16C29.2491 16.7291 28.959 17.428 28.4435 17.9435C27.928 18.459 27.2291 18.7491 26.5 18.75Z" fill="black"/>
</svg>
