<svg width="30" height="10" viewBox="0 0 30 10" fill="none" xmlns="http://www.w3.org/2000/svg">
<path d="M15 0.75C14.1594 0.75 13.3377 0.999258 12.6388 1.46625C11.9399 1.93325 11.3952 2.59701 11.0735 3.3736C10.7518 4.15018 10.6677 5.00471 10.8317 5.82913C10.9957 6.65355 11.4004 7.41083 11.9948 8.0052C12.5892 8.59958 13.3464 9.00435 14.1709 9.16834C14.9953 9.33232 15.8498 9.24816 16.6264 8.92649C17.403 8.60482 18.0668 8.06008 18.5337 7.36117C19.0007 6.66226 19.25 5.84057 19.25 5C19.2487 3.87324 18.8005 2.793 18.0037 1.99626C17.207 1.19951 16.1268 0.751323 15 0.75ZM15 7.75C14.4561 7.75 13.9244 7.58872 13.4722 7.28654C13.0199 6.98437 12.6675 6.55488 12.4593 6.05238C12.2512 5.54988 12.1967 4.99695 12.3028 4.4635C12.409 3.93005 12.6709 3.44005 13.0555 3.05546C13.4401 2.67086 13.9301 2.40895 14.4635 2.30284C14.997 2.19673 15.5499 2.25119 16.0524 2.45933C16.5549 2.66747 16.9844 3.01995 17.2865 3.47218C17.5887 3.92442 17.75 4.4561 17.75 5C17.7491 5.72906 17.459 6.428 16.9435 6.94352C16.428 7.45905 15.7291 7.74907 15 7.75ZM4.5 0.75C3.65943 0.75 2.83774 0.999258 2.13883 1.46625C1.43992 1.93325 0.895186 2.59701 0.573514 3.3736C0.251841 4.15018 0.167677 5.00471 0.331664 5.82913C0.495652 6.65355 0.900425 7.41083 1.4948 8.0052C2.08917 8.59958 2.84645 9.00435 3.67087 9.16834C4.49529 9.33232 5.34982 9.24816 6.12641 8.92649C6.90299 8.60482 7.56675 8.06008 8.03375 7.36117C8.50074 6.66226 8.75 5.84057 8.75 5C8.74868 3.87324 8.30049 2.793 7.50374 1.99626C6.707 1.19951 5.62677 0.751323 4.5 0.75ZM4.5 7.75C3.9561 7.75 3.42442 7.58872 2.97218 7.28654C2.51995 6.98437 2.16747 6.55488 1.95933 6.05238C1.75119 5.54988 1.69673 4.99695 1.80284 4.4635C1.90895 3.93005 2.17086 3.44005 2.55546 3.05546C2.94005 2.67086 3.43006 2.40895 3.9635 2.30284C4.49695 2.19673 5.04988 2.25119 5.55238 2.45933C6.05488 2.66747 6.48437 3.01995 6.78654 3.47218C7.08872 3.92442 7.25 4.4561 7.25 5C7.24908 5.72906 6.95905 6.428 6.44352 6.94352C5.928 7.45905 5.22906 7.74907 4.5 7.75ZM25.5 0.75C24.6594 0.75 23.8377 0.999258 23.1388 1.46625C22.4399 1.93325 21.8952 2.59701 21.5735 3.3736C21.2518 4.15018 21.1677 5.00471 21.3317 5.82913C21.4957 6.65355 21.9004 7.41083 22.4948 8.0052C23.0892 8.59958 23.8464 9.00435 24.6709 9.16834C25.4953 9.33232 26.3498 9.24816 27.1264 8.92649C27.903 8.60482 28.5668 8.06008 29.0337 7.36117C29.5007 6.66226 29.75 5.84057 29.75 5C29.7487 3.87324 29.3005 2.793 28.5037 1.99626C27.707 1.19951 26.6268 0.751323 25.5 0.75ZM25.5 7.75C24.9561 7.75 24.4244 7.58872 23.9722 7.28654C23.5199 6.98437 23.1675 6.55488 22.9593 6.05238C22.7512 5.54988 22.6967 4.99695 22.8028 4.4635C22.909 3.93005 23.1709 3.44005 23.5555 3.05546C23.9401 2.67086 24.4301 2.40895 24.9635 2.30284C25.497 2.19673 26.0499 2.25119 26.5524 2.45933C27.0549 2.66747 27.4844 3.01995 27.7865 3.47218C28.0887 3.92442 28.25 4.4561 28.25 5C28.2491 5.72906 27.959 6.428 27.4435 6.94352C26.928 7.45905 26.2291 7.74907 25.5 7.75Z" fill="white"/>
</svg>
