<svg width="168" height="192" viewBox="0 0 168 192" fill="none" xmlns="http://www.w3.org/2000/svg">
<path d="M84 192C130.392 192 168 154.392 168 108C168 61.6081 130.392 24 84 24C37.6081 24 0 61.6081 0 108C0 154.392 37.6081 192 84 192Z" fill="#068D1A"/>
<path d="M150 159.6V156C150 142.8 139.2 132 126 132H42C28.8 132 18 142.8 18 156V159.6C33.6 179.4 57 192 84 192C111 192 134.4 179.4 150 159.6Z" fill="#213068"/>
<path d="M66 190.2C72 191.4 78 192 84 192C90 192 96 191.4 102 190.2V138H66V190.2Z" fill="#38447E"/>
<path d="M120 132L102 114V162L114 150L108 144L120 132ZM48 132L66 114V162L54 150L60 144L48 132Z" fill="#172656"/>
<path d="M66 108V138C66 148.2 73.8 156 84 156C94.2 156 102 148.2 102 138V108H66Z" fill="#BF8862"/>
<path d="M66 102L102 138V102H66Z" fill="#AF7751"/>
<path d="M90 0H78C58.2 0 42 16.2 42 36V78C42 101.4 60.6 120 84 120C107.4 120 126 101.4 126 78V36C126 16.2 109.8 0 90 0Z" fill="#D3A17D"/>
<path d="M90 0V55.8C86.4 57.6 84 61.8 84 66V72H75.6C76.8 75.6 80.4 78 84 78V120C107.4 120 126 101.4 126 78V36C126 16.2 109.8 0 90 0Z" fill="#BF8862"/>
<path d="M99 33H117V39H99V33ZM51 33H69V39H51V33Z" fill="#25374B"/>
<path d="M42 54C35.4 54 30 59.4 30 66C30 72.6 35.4 78 42 78V54ZM126 54C132.6 54 138 59.4 138 66C138 72.6 132.6 78 126 78V54Z" fill="#BF8862"/>
<path d="M90 42V48H78V42H42V54C42 64.2 49.8 72 60 72C70.2 72 78 64.2 78 54H90C90 64.2 97.8 72 108 72C118.2 72 126 64.2 126 54V42H90Z" fill="#12273A"/>
<path d="M84 108C97.2 108 108 97.2 108 84H60C60 97.2 70.8 108 84 108ZM84 156C94.2 156 102 148.2 102 138H66C66 148.2 73.8 156 84 156Z" fill="#E6E6E6"/>
</svg>
