<svg width="26" height="26" viewBox="0 0 26 26" fill="none" xmlns="http://www.w3.org/2000/svg">
<path d="M12.9999 12.48C14.0283 12.48 15.0337 12.175 15.8888 11.6036C16.744 11.0322 17.4105 10.2201 17.8041 9.26991C18.1976 8.31974 18.3006 7.27419 18.1 6.26549C17.8993 5.25679 17.4041 4.33024 16.6768 3.603C15.9496 2.87577 15.0231 2.38052 14.0144 2.17987C13.0057 1.97923 11.9601 2.08221 11.0099 2.47578C10.0598 2.86936 9.24762 3.53586 8.67624 4.39099C8.10486 5.24613 7.79988 6.2515 7.79988 7.27996C7.79988 8.65908 8.34774 9.98172 9.32293 10.9569C10.2981 11.9321 11.6208 12.48 12.9999 12.48ZM12.9999 3.11996C13.8227 3.11996 14.6269 3.36394 15.3111 3.82104C15.9952 4.27815 16.5284 4.92785 16.8432 5.688C17.1581 6.44814 17.2405 7.28457 17.08 8.09153C16.9194 8.89849 16.5232 9.63974 15.9414 10.2215C15.3597 10.8033 14.6184 11.1995 13.8115 11.36C13.0045 11.5205 12.1681 11.4382 11.4079 11.1233C10.6478 10.8084 9.99808 10.2752 9.54097 9.59113C9.08386 8.90702 8.83988 8.10273 8.83988 7.27996C8.83988 6.17666 9.27817 5.11855 10.0583 4.33839C10.8385 3.55824 11.8966 3.11996 12.9999 3.11996ZM14.1023 13.52H11.8975C10.6041 13.524 9.32422 13.7828 8.13088 14.2816C6.93753 14.7803 5.8541 15.5092 4.94245 16.4267C4.0308 17.3441 3.30879 18.4321 2.81763 19.6286C2.32646 20.8251 2.07578 22.1066 2.07988 23.4C2.07988 23.5379 2.13467 23.6701 2.23219 23.7677C2.32971 23.8652 2.46197 23.92 2.59988 23.92H23.3999C23.5442 23.9068 23.6782 23.8394 23.7747 23.7313C23.8712 23.6232 23.9231 23.4825 23.9199 23.3376C23.9144 20.7355 22.8783 18.2415 21.0383 16.4015C19.1983 14.5616 16.7044 13.5255 14.1023 13.52ZM3.11988 22.88C3.24208 20.6358 4.21848 18.5234 5.84876 16.9763C7.47903 15.4292 9.63956 14.5646 11.8871 14.56H14.0919C16.343 14.5593 18.5087 15.4215 20.1435 16.9691C21.7782 18.5168 22.7575 20.6322 22.8799 22.88H3.11988Z" fill="black"/>
</svg>
