<svg width="26" height="26" viewBox="0 0 26 26" fill="none" xmlns="http://www.w3.org/2000/svg">
<path d="M13.0001 12.4801C14.0286 12.4801 15.034 12.1751 15.8891 11.6037C16.7442 11.0323 17.4107 10.2202 17.8043 9.27003C18.1979 8.31986 18.3009 7.27431 18.1002 6.26561C17.8996 5.25691 17.4043 4.33036 16.6771 3.60313C15.9499 2.87589 15.0233 2.38064 14.0146 2.18C13.0059 1.97935 11.9604 2.08233 11.0102 2.47591C10.06 2.86948 9.24787 3.53598 8.67649 4.39112C8.1051 5.24625 7.80013 6.25162 7.80013 7.28008C7.80013 8.65921 8.34798 9.98185 9.32317 10.957C10.2984 11.9322 11.621 12.4801 13.0001 12.4801ZM13.0001 3.12008C13.8229 3.12008 14.6272 3.36406 15.3113 3.82117C15.9954 4.27827 16.5286 4.92798 16.8435 5.68812C17.1583 6.44826 17.2407 7.28469 17.0802 8.09166C16.9197 8.89862 16.5235 9.63986 15.9417 10.2216C15.3599 10.8034 14.6187 11.1996 13.8117 11.3601C13.0047 11.5207 12.1683 11.4383 11.4082 11.1234C10.648 10.8086 9.99832 10.2754 9.54121 9.59125C9.08411 8.90714 8.84013 8.10285 8.84013 7.28008C8.84013 6.17678 9.27841 5.11867 10.0586 4.33852C10.8387 3.55836 11.8968 3.12008 13.0001 3.12008ZM14.1025 13.5201H11.8977C10.6044 13.5242 9.32447 13.783 8.13112 14.2817C6.93778 14.7804 5.85435 15.5093 4.9427 16.4268C4.03105 17.3442 3.30903 18.4322 2.81787 19.6287C2.32671 20.8252 2.07602 22.1067 2.08013 23.4001C2.08013 23.538 2.13491 23.6703 2.23243 23.7678C2.32995 23.8653 2.46222 23.9201 2.60013 23.9201H23.4001C23.5445 23.9069 23.6784 23.8395 23.7749 23.7314C23.8715 23.6233 23.9234 23.4826 23.9201 23.3377C23.9146 20.7356 22.8785 18.2416 21.0386 16.4017C19.1986 14.5617 16.7046 13.5256 14.1025 13.5201ZM3.12013 22.8801C3.24233 20.6359 4.21873 18.5235 5.849 16.9764C7.47928 15.4293 9.63981 14.5647 11.8873 14.5601H14.0921C16.3432 14.5594 18.509 15.4216 20.1437 16.9693C21.7784 18.5169 22.7577 20.6323 22.8801 22.8801H3.12013Z" fill="black"/>
</svg>
