<svg width="32" height="32" viewBox="0 0 32 32" fill="none" xmlns="http://www.w3.org/2000/svg">
<g clip-path="url(#clip0_13_63)">
<path d="M0.75 30.5H31.25C31.4489 30.5 31.6397 30.421 31.7803 30.2803C31.921 30.1397 32 29.9489 32 29.75C32 29.5511 31.921 29.3603 31.7803 29.2197C31.6397 29.079 31.4489 29 31.25 29H27.4922V12.4375C27.4922 12.2386 27.4132 12.0478 27.2725 11.9072C27.1319 11.7665 26.9411 11.6875 26.7422 11.6875H22.2109C22.012 11.6875 21.8213 11.7665 21.6806 11.9072C21.54 12.0478 21.4609 12.2386 21.4609 12.4375V29H19.0156V16.0938C19.0156 15.8948 18.9366 15.7041 18.796 15.5634C18.6553 15.4228 18.4645 15.3438 18.2656 15.3438H13.7344C13.5355 15.3438 13.3447 15.4228 13.204 15.5634C13.0634 15.7041 12.9844 15.8948 12.9844 16.0938V29H10.5391V19.75C10.5391 19.5511 10.46 19.3603 10.3194 19.2197C10.1787 19.079 9.98798 19 9.78906 19H5.25781C5.0589 19 4.86813 19.079 4.72748 19.2197C4.58683 19.3603 4.50781 19.5511 4.50781 19.75V29H0.75C0.551088 29 0.360322 29.079 0.21967 29.2197C0.0790176 29.3603 0 29.5511 0 29.75C0 29.9489 0.0790176 30.1397 0.21967 30.2803C0.360322 30.421 0.551088 30.5 0.75 30.5ZM22.9609 13.1875H25.9922V29H22.9609V13.1875ZM14.4844 16.8438H17.5156V29H14.4844V16.8438ZM6.00781 20.5H9.03906V29H6.00781V20.5ZM4.47069 17.5956C4.44171 17.5015 4.43156 17.4025 4.44083 17.3045C4.45009 17.2064 4.47858 17.1111 4.52468 17.0241C4.57077 16.937 4.63356 16.8599 4.70947 16.7971C4.78537 16.7343 4.87291 16.6871 4.96706 16.6581C12.9238 14.2257 19.9713 9.46915 25.2036 3H22.1797C21.9808 3 21.79 2.92098 21.6494 2.78033C21.5087 2.63968 21.4297 2.44891 21.4297 2.25C21.4297 2.05109 21.5087 1.86032 21.6494 1.71967C21.79 1.57902 21.9808 1.5 22.1797 1.5H26.7422C26.9411 1.5 27.1319 1.57902 27.2725 1.71967C27.4132 1.86032 27.4922 2.05109 27.4922 2.25V6.8125C27.4922 7.01141 27.4132 7.20218 27.2725 7.34283C27.1319 7.48348 26.9411 7.5625 26.7422 7.5625C26.5433 7.5625 26.3525 7.48348 26.2119 7.34283C26.0712 7.20218 25.9922 7.01141 25.9922 6.8125V4.40206C23.4963 7.39415 20.6087 10.0364 17.4073 12.2575C13.7322 14.8092 9.68466 16.7773 5.40806 18.0919C5.31392 18.121 5.21496 18.1312 5.11686 18.122C5.01876 18.1128 4.92345 18.0843 4.83637 18.0382C4.74929 17.9921 4.67216 17.9292 4.60939 17.8533C4.54662 17.7773 4.49944 17.6898 4.47056 17.5956L4.47069 17.5956Z" fill="white"/>
</g>
<defs>
<clipPath id="clip0_13_63">
<rect width="32" height="32" fill="white"/>
</clipPath>
</defs>
</svg>
