<svg width="16" height="20" viewBox="0 0 16 20" fill="none" xmlns="http://www.w3.org/2000/svg">
<path fill-rule="evenodd" clip-rule="evenodd" d="M12.484 13.3668C13.6596 12.3781 14.5082 11.0546 14.9131 9.54422C15.4347 7.59009 15.17 5.54253 14.1579 3.79082C12.0636 0.170616 7.41573 -1.07505 3.79552 1.01144C2.04381 2.02354 0.782578 3.65847 0.260957 5.62039C-0.260664 7.57452 0.00404046 9.62208 1.01614 11.3738C2.41751 13.8028 4.97112 15.1653 7.59479 15.1653C8.51347 15.1653 9.44772 14.994 10.343 14.6437L13.0757 19.3772C13.3093 19.7742 13.7219 20 14.1579 20C14.3681 20 14.5861 19.9455 14.7807 19.8365C15.3802 19.494 15.5826 18.731 15.24 18.1315L12.484 13.3668ZM10.125 11.9811C7.696 13.3824 4.57406 12.5494 3.17269 10.1203C1.77132 7.68352 2.60436 4.56936 5.0334 3.1602C5.8353 2.70087 6.70726 2.48288 7.57144 2.48288C9.33094 2.48288 11.0515 3.39377 11.9935 5.0287C12.6709 6.20429 12.8577 7.57452 12.4996 8.89025C12.1492 10.206 11.3084 11.3037 10.125 11.9811Z" fill="#010101"/>
</svg>
