<svg width="11" height="15" viewBox="0 0 11 15" fill="none" xmlns="http://www.w3.org/2000/svg">
<path fill-rule="evenodd" clip-rule="evenodd" d="M8.76924 9.38938C9.59503 8.69485 10.1911 7.76516 10.4755 6.70422C10.8419 5.33157 10.656 3.89328 9.94503 2.66282C8.47393 0.119847 5.20909 -0.755153 2.66612 0.710472C1.43565 1.42141 0.549713 2.56985 0.183306 3.94797C-0.1831 5.32063 0.00283817 6.75891 0.713776 7.98938C1.69815 9.69563 3.4919 10.6527 5.33487 10.6527C5.98018 10.6527 6.63643 10.5323 7.26534 10.2863L9.18487 13.6113C9.34893 13.8902 9.63878 14.0488 9.94503 14.0488C10.0927 14.0488 10.2458 14.0105 10.3825 13.9339C10.8036 13.6933 10.9458 13.1573 10.7052 12.7363L8.76924 9.38938ZM7.11221 8.41594C5.40596 9.40032 3.21299 8.81516 2.22862 7.10891C1.24424 5.39719 1.8294 3.20969 3.53565 2.21985C4.09893 1.89719 4.71143 1.74407 5.31846 1.74407C6.5544 1.74407 7.76299 2.38391 8.42471 3.53235C8.90049 4.35813 9.03174 5.32063 8.78018 6.24485C8.53409 7.16907 7.94346 7.94016 7.11221 8.41594Z" fill="white"/>
</svg>
