<svg width="23" height="23" viewBox="0 0 23 23" fill="none" xmlns="http://www.w3.org/2000/svg">
<path fill-rule="evenodd" clip-rule="evenodd" d="M11.5 0C5.15703 0 0 5.15703 0 11.5C0 17.843 5.15703 23 11.5 23C17.843 23 23 17.843 23 11.5C23 5.15703 17.843 0 11.5 0Z" fill="#06991B"/>
<path fill-rule="evenodd" clip-rule="evenodd" d="M14.258 13.4451C14.9363 12.8746 15.426 12.1109 15.6596 11.2395C15.9605 10.1119 15.8078 8.93048 15.2238 7.91974C14.0154 5.83087 11.3336 5.11212 9.24471 6.31602C8.23397 6.90001 7.50624 7.84337 7.20526 8.9754C6.90428 10.1029 7.05702 11.2844 7.641 12.2951C8.4496 13.6967 9.92303 14.4828 11.4369 14.4828C11.967 14.4828 12.506 14.384 13.0226 14.1818L14.5994 16.9131C14.7342 17.1422 14.9723 17.2725 15.2238 17.2725C15.3451 17.2725 15.4709 17.241 15.5832 17.1781C15.9291 16.9805 16.0459 16.5402 15.8482 16.1943L14.258 13.4451ZM12.8969 12.6455C11.4953 13.4541 9.69393 12.9734 8.88534 11.5719C8.07675 10.1658 8.55741 8.36895 9.95897 7.55587C10.4217 7.29083 10.9248 7.16505 11.4234 7.16505C12.4387 7.16505 13.4314 7.69063 13.975 8.63399C14.3658 9.31231 14.4736 10.1029 14.267 10.8621C14.0648 11.6213 13.5797 12.2547 12.8969 12.6455Z" fill="white"/>
</svg>
