<svg width="47" height="47" viewBox="0 0 47 47" fill="none" xmlns="http://www.w3.org/2000/svg">
<g clip-path="url(#clip0_994_58)">
<path d="M44.201 19.3082L6.28023 3.57339C4.68269 2.91044 2.87796 3.20208 1.57022 4.33411C0.262486 5.46634 -0.28444 7.21075 0.142967 8.88678L3.86937 23.5001L0.142967 38.1134C-0.28444 39.7895 0.262394 41.5339 1.57013 42.6661C2.88035 43.8005 4.68553 44.0885 6.28023 43.4268L44.201 27.692C45.9275 26.9756 47 25.3694 47 23.5001C47 21.6308 45.9275 20.0246 44.201 19.3082ZM43.1454 25.1483L5.22475 40.8831C4.58704 41.1476 3.8948 41.036 3.37275 40.584C2.85079 40.1321 2.64103 39.4629 2.81159 38.7938L6.36037 24.8771H20.0441C20.8046 24.8771 21.4211 24.2606 21.4211 23.5C21.4211 22.7395 20.8046 22.123 20.0441 22.123H6.36046L2.81159 8.20638C2.64103 7.53737 2.85079 6.86817 3.37275 6.41625C3.8947 5.96434 4.58676 5.85253 5.22466 6.11709L43.1454 21.8519C44.1666 22.2756 44.246 23.2206 44.246 23.5001C44.246 23.7796 44.1666 24.7246 43.1454 25.1483Z" fill="white"/>
</g>
<defs>
<clipPath id="clip0_994_58">
<rect width="47" height="47" fill="white"/>
</clipPath>
</defs>
</svg>
