<svg width="32" height="32" viewBox="0 0 32 32" fill="none" xmlns="http://www.w3.org/2000/svg">
<path d="M1.74 17.59C1.74 15.81 2 14.24 2.52 12.88C3.06 11.52 3.78 10.39 4.68 9.49C5.6 8.57 6.66 7.88 7.86 7.42C9.08 6.96 10.37 6.73 11.73 6.73C13.07 6.73 14.33 6.96 15.51 7.42C16.71 7.88 17.76 8.57 18.66 9.49C19.56 10.39 20.27 11.52 20.79 12.88C21.33 14.24 21.6 15.81 21.6 17.59C21.6 19.37 21.33 20.94 20.79 22.3C20.27 23.66 19.56 24.8 18.66 25.72C17.76 26.62 16.71 27.3 15.51 27.76C14.33 28.22 13.07 28.45 11.73 28.45C10.37 28.45 9.08 28.22 7.86 27.76C6.66 27.3 5.6 26.62 4.68 25.72C3.78 24.8 3.06 23.66 2.52 22.3C2 20.94 1.74 19.37 1.74 17.59ZM4.8 17.59C4.8 18.85 4.96 20 5.28 21.04C5.6 22.06 6.05 22.93 6.63 23.65C7.23 24.37 7.95 24.93 8.79 25.33C9.65 25.71 10.61 25.9 11.67 25.9C12.73 25.9 13.68 25.71 14.52 25.33C15.36 24.93 16.07 24.37 16.65 23.65C17.25 22.93 17.71 22.06 18.03 21.04C18.35 20 18.51 18.85 18.51 17.59C18.51 16.33 18.35 15.19 18.03 14.17C17.71 13.13 17.25 12.25 16.65 11.53C16.07 10.81 15.36 10.26 14.52 9.88C13.68 9.48 12.73 9.28 11.67 9.28C10.61 9.28 9.65 9.48 8.79 9.88C7.95 10.26 7.23 10.81 6.63 11.53C6.05 12.25 5.6 13.13 5.28 14.17C4.96 15.19 4.8 16.33 4.8 17.59Z" fill="#149326"/>
<path d="M25.65 20.59C25.65 22.39 25.37 23.96 24.81 25.3C24.25 26.62 23.46 27.72 22.44 28.6C21.42 29.46 20.2 30.11 18.78 30.55C17.36 30.97 15.8 31.18 14.1 31.18C13.26 31.18 12.33 31.14 11.31 31.06C10.31 31 9.4 30.87 8.58 30.67V10.51C9.4 10.31 10.31 10.18 11.31 10.12C12.33 10.04 13.26 10 14.1 10C15.8 10 17.36 10.22 18.78 10.66C20.2 11.08 21.42 11.73 22.44 12.61C23.46 13.47 24.25 14.57 24.81 15.91C25.37 17.23 25.65 18.79 25.65 20.59ZM14.34 28.63C17.1 28.63 19.16 27.93 20.52 26.53C21.88 25.11 22.56 23.13 22.56 20.59C22.56 18.05 21.88 16.08 20.52 14.68C19.16 13.26 17.1 12.55 14.34 12.55C13.52 12.55 12.88 12.56 12.42 12.58C11.98 12.6 11.67 12.62 11.49 12.64V28.54C11.67 28.56 11.98 28.58 12.42 28.6C12.88 28.62 13.52 28.63 14.34 28.63Z" fill="#36CF4C"/>
</svg>
