<svg width="212" height="212" viewBox="0 0 212 212" fill="none" xmlns="http://www.w3.org/2000/svg">
<mask id="mask0_39_366" style="mask-type:luminance" maskUnits="userSpaceOnUse" x="0" y="0" width="212" height="212">
<path d="M0 0H212V212H0V0Z" fill="white"/>
</mask>
<g mask="url(#mask0_39_366)">
<path d="M184.946 176.727C201.765 157.966 212 133.179 212 106C212 47.4575 164.542 -0.000213623 106 -0.000213623C47.4577 -0.000213623 0 47.4575 0 106C0 133.179 10.2343 157.966 27.0535 176.727H184.946Z" fill="#5DC46C"/>
<path d="M58.923 200.987H153.076C165.14 194.991 175.954 186.759 184.946 176.727C180.926 164.979 176.41 154.027 172.664 150.719C163.554 142.676 124.092 136.178 124.092 136.178V89.7737H87.9073V136.178C87.9073 136.178 48.4452 142.676 39.3358 150.719C35.5898 154.027 31.0736 164.979 27.0539 176.727C36.0452 186.759 46.8598 194.991 58.923 200.987Z" fill="#FFAEA1"/>
<path d="M165.285 180.633L160.517 196.919C163.556 195.094 166.501 193.118 169.343 190.999V181.215C169.343 178.822 165.958 178.337 165.285 180.633Z" fill="#F4958C"/>
<path d="M42.6574 181.214V190.998C45.4986 193.117 48.4441 195.093 51.4827 196.918L46.7148 180.633C46.0424 178.336 42.6574 178.821 42.6574 181.214Z" fill="#F4958C"/>
<path d="M142.023 46.3747C142.023 46.3747 144.019 31.4833 136.849 23.1686C135.774 21.9231 133.734 22.7711 133.864 24.4103L133.949 25.4646C133.949 25.4646 129.834 17.4355 119.242 14.2828C117.772 13.8452 116.535 15.4629 117.318 16.7825L117.8 17.5974C117.8 17.5974 111.416 11.213 90.2571 10.772C88.7032 10.7397 87.933 12.6493 89.0684 13.7106L90.2803 14.8439C90.2791 14.8439 82.3125 16.2488 71.7573 22.6394C70.4546 23.4278 70.7797 25.4058 72.2637 25.7449L73.1282 25.9424C69.0431 30.6403 66.784 35.5325 65.6329 38.6847C65.1323 40.0548 66.4739 41.3757 67.8357 40.854C67.8357 40.854 64.5936 55.8981 68.521 68.8789L106 77.3452L143.479 68.8789C143.479 68.8789 145.75 57.9684 142.023 46.3747Z" fill="#8C4F5C"/>
<path d="M90.6691 45.6241C79.6269 43.2561 71.7705 38.9217 67.8357 40.8537C67.8357 40.8537 64.5936 55.8982 68.521 68.879L91.655 74.1045L90.6691 45.6241Z" fill="#7B3C47"/>
<path d="M134.601 76.0498C134.601 76.0498 138.285 67.0804 144.852 69.1627C151.419 71.2446 144.693 90.6815 131.878 91.9062L134.601 76.0498Z" fill="#FFAEA1"/>
<path d="M77.3984 76.0498C77.3984 76.0498 73.7145 67.0804 67.1479 69.1627C60.5809 71.245 67.3065 90.6815 80.1213 91.9062L77.3984 76.0498Z" fill="#F4958C"/>
<path d="M87.9073 89.7739V136.178C107.34 136.178 118.236 121.263 118.236 121.263L124.092 89.7739H87.9073Z" fill="#F4958C"/>
<path d="M135.519 64.7315C135.144 63.8164 134.841 62.5068 134.554 60.9934L106 52.7121L77.4461 60.9934C77.1583 62.5068 76.8556 63.8164 76.4805 64.7315C74.7932 68.8465 72.6732 69.6849 72.3912 69.7806C72.3705 70.424 72.3577 71.0712 72.3577 71.7242C72.3577 96.4979 87.42 125.552 106 125.552C124.58 125.552 139.642 96.4979 139.642 71.7242C139.642 71.0712 139.629 70.424 139.609 69.7806C139.327 69.6849 137.207 68.8465 135.519 64.7315Z" fill="#FFCFC2"/>
<path d="M83.9261 71.7247C83.9261 67.1087 84.4557 62.7395 85.4284 58.6788L77.4453 60.9939C77.1579 62.5072 76.8552 63.8169 76.4801 64.732C74.7924 68.8469 72.6728 69.6854 72.3908 69.7811C72.3701 70.4241 72.3573 71.0713 72.3573 71.7247C72.3573 96.498 87.4192 125.552 105.999 125.552C107.972 125.552 109.904 125.222 111.784 124.607C95.9604 119.428 83.9261 93.8678 83.9261 71.7247Z" fill="#FFAEA1"/>
<path d="M58.923 142.523V200.987C73.1063 208.032 89.0882 212 106 212C122.911 212 138.893 208.032 153.076 200.987V142.523C147.423 140.944 141.513 139.59 136.514 138.543V156.642C136.514 173.494 122.852 187.156 106 187.156C89.147 187.156 75.4855 173.494 75.4855 156.642V138.543C70.4861 139.59 64.5766 140.944 58.923 142.523Z" fill="#3E4A68"/>
<path d="M93.5779 199.578C93.5779 192.717 99.1391 187.156 106 187.156C89.147 187.156 75.4855 173.494 75.4855 156.642V138.543C70.4861 139.59 64.5766 140.944 58.923 142.523V200.987C73.1063 208.032 89.0882 212 106 212C99.1391 212 93.5779 206.438 93.5779 199.578Z" fill="#303A59"/>
<path d="M106 48.1689C94.24 48.1689 89.5333 44.4406 85.4643 44.4307H85.4602C84.6949 44.4253 83.936 44.5699 83.2263 44.8564C79.4174 46.3838 78.5458 55.2025 77.4456 60.9932H134.554C133.454 55.2025 132.582 46.3838 128.773 44.8564C128.063 44.5699 127.305 44.4253 126.539 44.4307H126.535C122.466 44.4406 117.759 48.1689 106 48.1689Z" fill="white"/>
<path d="M99.5876 54.5815C99.5876 51.04 102.458 48.1693 106 48.1693C94.24 48.1693 89.5333 44.4407 85.4647 44.4312H85.4602C84.6949 44.4256 83.9359 44.5702 83.2263 44.8568C79.4174 46.3843 78.5458 55.203 77.4456 60.9937H106C102.458 60.9937 99.5876 58.123 99.5876 54.5815Z" fill="#EBF0F3"/>
<path d="M75.4855 168.298H58.923C55.4929 168.298 52.7121 165.517 52.7121 162.087C52.7121 158.657 55.4929 155.876 58.923 155.876H75.4855C78.9156 155.876 81.6964 158.657 81.6964 162.087C81.6964 165.517 78.9156 168.298 75.4855 168.298Z" fill="white"/>
<path d="M66.1691 162.087C66.1691 158.657 68.9499 155.876 72.38 155.876H58.923C55.4929 155.876 52.7121 158.657 52.7121 162.087C52.7121 165.517 55.4929 168.298 58.923 168.298H72.38C68.9499 168.298 66.1691 165.517 66.1691 162.087Z" fill="#EBF0F3"/>
</g>
</svg>
