<svg width="31" height="31" viewBox="0 0 31 31" fill="none" xmlns="http://www.w3.org/2000/svg">
<path d="M10.0827 14.663C9.40833 14.6623 8.76176 14.3941 8.28489 13.9172C7.80802 13.4403 7.5398 12.7938 7.53906 12.1194C7.53906 11.3233 7.91826 10.566 8.55376 10.0933C8.61201 10.0498 8.67829 10.0182 8.74878 10.0003C8.81927 9.98246 8.89259 9.97869 8.96454 9.98924C9.0365 9.99978 9.10566 10.0244 9.16806 10.0618C9.23047 10.0991 9.28489 10.1484 9.32821 10.2068C9.37166 10.2651 9.4032 10.3313 9.42102 10.4018C9.43884 10.4723 9.44258 10.5456 9.43204 10.6175C9.4215 10.6895 9.39688 10.7586 9.35959 10.821C9.3223 10.8834 9.27307 10.9379 9.21472 10.9812C9.03712 11.113 8.89309 11.2848 8.79431 11.4826C8.69553 11.6804 8.64479 11.8988 8.64621 12.1199C8.64664 12.5008 8.79813 12.8659 9.06744 13.1352C9.33674 13.4045 9.70187 13.556 10.0827 13.5564C10.2264 13.561 10.3627 13.6213 10.4628 13.7245C10.5628 13.8278 10.6188 13.966 10.6188 14.1097C10.6188 14.2535 10.5628 14.3917 10.4628 14.4949C10.3627 14.5982 10.2264 14.6585 10.0827 14.663ZM20.9172 14.663C20.7704 14.663 20.6296 14.6047 20.5258 14.5009C20.422 14.3971 20.3637 14.2563 20.3637 14.1095C20.3637 13.9626 20.422 13.8218 20.5258 13.718C20.6296 13.6142 20.7704 13.5559 20.9172 13.5559C21.2982 13.5556 21.6634 13.4042 21.9329 13.1349C22.2023 12.8655 22.3539 12.5003 22.3543 12.1194C22.3543 11.6809 22.1583 11.2724 21.8151 10.9989C21.7003 10.9073 21.6266 10.7739 21.6102 10.6279C21.5938 10.4819 21.636 10.3354 21.7277 10.2206C21.8193 10.1058 21.9527 10.0321 22.0987 10.0157C22.2447 9.99929 22.3912 10.0415 22.506 10.1332C22.8048 10.3706 23.046 10.6725 23.2114 11.0164C23.3769 11.3603 23.4624 11.7372 23.4614 12.1188C23.4606 12.7933 23.1922 13.4399 22.7153 13.9169C22.2383 14.3938 21.5917 14.6622 20.9172 14.663Z" fill="black"/>
<path d="M15.4883 19.4309C15.3399 19.4309 15.191 19.4248 15.0415 19.4138C12.897 19.2466 11.0409 17.8599 10.1983 15.7945C9.90196 15.0699 9.74984 14.2945 9.75049 13.5116V9.62939H10.8576V13.5116C10.8576 14.1537 10.9805 14.7809 11.2235 15.3766C11.9072 17.0511 13.4035 18.176 15.1279 18.3099C17.2093 18.4699 19.1557 17.2211 19.8653 15.2686C20.0497 14.7616 20.1432 14.2279 20.1432 13.6821V9.62995H21.2504V13.6821C21.2504 14.3574 21.1341 15.019 20.9055 15.6473C20.0774 17.9241 17.8891 19.4309 15.4883 19.4309Z" fill="black"/>
<path d="M5.64589 28.8899C5.49907 28.8899 5.35827 28.8316 5.25445 28.7277C5.15064 28.6239 5.09231 28.4831 5.09231 28.3363V24.9994C5.08934 24.3064 5.31098 23.631 5.72404 23.0746C6.1371 22.5181 6.71935 22.1104 7.38355 21.9127L11.9904 20.5199C12.1514 20.4718 12.2926 20.3728 12.3927 20.2378C12.4927 20.1028 12.5464 19.939 12.5456 19.7709V18.5907C12.5456 18.4439 12.6039 18.3031 12.7077 18.1992C12.8116 18.0954 12.9524 18.0371 13.0992 18.0371C13.246 18.0371 13.3868 18.0954 13.4906 18.1992C13.5944 18.3031 13.6527 18.4439 13.6527 18.5907V19.7709C13.6544 20.1769 13.5246 20.5726 13.2826 20.8986C13.0406 21.2246 12.6995 21.4635 12.3103 21.5794L7.70406 22.9722C7.26794 23.1022 6.88564 23.37 6.61441 23.7354C6.34318 24.1008 6.1976 24.5443 6.19946 24.9994V28.3363C6.19946 28.4831 6.14113 28.6239 6.03732 28.7277C5.93351 28.8316 5.7927 28.8899 5.64589 28.8899ZM25.3541 28.8899C25.2073 28.8899 25.0665 28.8316 24.9627 28.7277C24.8589 28.6239 24.8006 28.4831 24.8006 28.3363V24.9994C24.8024 24.5442 24.6567 24.1007 24.3854 23.7353C24.1141 23.3698 23.7316 23.1021 23.2954 22.9722L18.6897 21.5794C18.3004 21.4638 17.959 21.225 17.7169 20.8989C17.4748 20.5728 17.3449 20.177 17.3467 19.7709V18.5907C17.3467 18.4439 17.405 18.3031 17.5089 18.1992C17.6127 18.0954 17.7535 18.0371 17.9003 18.0371C18.0471 18.0371 18.1879 18.0954 18.2917 18.1992C18.3955 18.3031 18.4539 18.4439 18.4539 18.5907V19.7709C18.4539 20.1185 18.677 20.4191 19.0097 20.5199L23.6159 21.9127C24.2802 22.1103 24.8626 22.518 25.2758 23.0744C25.6889 23.6309 25.9106 24.3063 25.9077 24.9994V28.3363C25.9077 28.4831 25.8494 28.6239 25.7456 28.7277C25.6418 28.8316 25.501 28.8899 25.3541 28.8899Z" fill="black"/>
<path d="M9.28791 28.8899C9.1974 28.8898 9.10829 28.8676 9.02839 28.8251C8.94848 28.7826 8.88022 28.7211 8.82958 28.6461C8.77893 28.5711 8.74745 28.4848 8.73789 28.3948C8.72833 28.3048 8.74099 28.2138 8.77475 28.1299C9.49382 26.3485 9.49382 24.3577 8.77475 22.5764C8.7455 22.5086 8.73012 22.4356 8.72951 22.3618C8.7289 22.2879 8.74307 22.2147 8.77119 22.1464C8.79931 22.0781 8.84082 22.0162 8.89325 21.9642C8.94569 21.9122 9.008 21.8712 9.07652 21.8436C9.14504 21.8161 9.21837 21.8025 9.29222 21.8037C9.36606 21.8049 9.43891 21.8209 9.50648 21.8507C9.57405 21.8805 9.63497 21.9236 9.68566 21.9773C9.73635 22.031 9.77577 22.0943 9.80162 22.1635C10.6281 24.2096 10.6281 26.4967 9.80162 28.5428C9.76041 28.6453 9.68946 28.7332 9.59791 28.795C9.50636 28.8569 9.3984 28.8899 9.28791 28.8899ZM21.7123 28.8899C21.6018 28.8899 21.4938 28.8569 21.4023 28.795C21.3107 28.7332 21.2398 28.6453 21.1985 28.5428C20.3721 26.4967 20.3721 24.2096 21.1985 22.1635C21.2533 22.0272 21.36 21.9183 21.495 21.8607C21.6301 21.8031 21.7825 21.8015 21.9187 21.8562C22.055 21.911 22.1639 22.0176 22.2215 22.1527C22.2791 22.2878 22.2807 22.4402 22.226 22.5764C21.5063 24.3576 21.5063 26.3487 22.226 28.1299C22.2598 28.2139 22.2724 28.3049 22.2628 28.3949C22.2532 28.485 22.2217 28.5713 22.171 28.6463C22.1203 28.7214 22.0519 28.7828 21.972 28.8253C21.892 28.8677 21.8028 28.8899 21.7123 28.8899ZM15.494 25.0271C14.4679 25.0315 13.4679 24.704 12.6432 24.0934C11.8185 23.4829 11.2134 22.622 10.9182 21.6392C10.8953 21.5692 10.8866 21.4953 10.8926 21.4219C10.8986 21.3485 10.9193 21.277 10.9533 21.2117C10.9873 21.1464 11.0339 21.0885 11.0906 21.0414C11.1473 20.9943 11.2127 20.959 11.2832 20.9376C11.3537 20.9162 11.4277 20.909 11.501 20.9165C11.5743 20.9241 11.6453 20.9462 11.7099 20.9815C11.7746 21.0168 11.8315 21.0647 11.8774 21.1223C11.9233 21.18 11.9572 21.2462 11.9772 21.317C12.2042 22.0722 12.6693 22.7337 13.3031 23.2028C13.9369 23.6719 14.7055 23.9235 15.494 23.9199C16.4511 23.9221 17.3708 23.5486 18.0554 22.8798C18.1073 22.8283 18.169 22.7875 18.2367 22.76C18.3045 22.7324 18.3771 22.7186 18.4503 22.7192C18.5234 22.7199 18.5957 22.7351 18.663 22.7639C18.7303 22.7926 18.7912 22.8345 18.8422 22.8869C18.8931 22.9394 18.9332 23.0015 18.9601 23.0695C18.987 23.1376 19.0001 23.2103 18.9987 23.2834C18.9973 23.3566 18.9814 23.4287 18.9519 23.4957C18.9225 23.5627 18.88 23.6231 18.827 23.6736C17.9361 24.5438 16.7394 25.0298 15.494 25.0271ZM20.6965 10.4034H10.3037C10.1569 10.4034 10.0161 10.3451 9.91228 10.2413C9.80846 10.1374 9.75014 9.99663 9.75014 9.84982V7.50987C9.75014 7.36305 9.80846 7.22225 9.91228 7.11844C10.0161 7.01462 10.1569 6.9563 10.3037 6.9563H20.6959C20.8427 6.9563 20.9835 7.01462 21.0873 7.11844C21.1912 7.22225 21.2495 7.36305 21.2495 7.50987V9.84982C21.2496 9.92249 21.2353 9.99446 21.2075 10.0616C21.1798 10.1288 21.1391 10.1898 21.0877 10.2412C21.0363 10.2926 20.9754 10.3334 20.9082 10.3612C20.8411 10.3891 20.7691 10.4034 20.6965 10.4034ZM10.8573 9.29625H20.1423V8.06344H10.8573V9.29625Z" fill="black"/>
<path d="M20.6964 8.06342C20.5496 8.06342 20.4088 8.0051 20.3049 7.90128C20.2011 7.79747 20.1428 7.65667 20.1428 7.50985V6.71935C20.1428 6.16578 19.6396 5.69469 19.6346 5.69026C19.5799 5.64198 19.5354 5.58335 19.5035 5.51775C19.4715 5.45216 19.4529 5.38089 19.4487 5.30807C19.4445 5.23524 19.4548 5.1623 19.4789 5.09346C19.503 5.02461 19.5405 4.96123 19.5892 4.90696C19.9933 4.45524 19.9169 3.8823 19.778 3.47708C18.0226 4.40708 14.549 4.65287 12.5334 4.56651C11.8713 4.54824 11.2574 4.91637 10.9901 5.52751C10.9615 5.59496 10.9198 5.65607 10.8674 5.7073C10.8151 5.75852 10.7531 5.79885 10.685 5.82593C10.6169 5.85302 10.5442 5.86632 10.4709 5.86508C10.3977 5.86384 10.3254 5.84808 10.2583 5.8187C10.1912 5.78932 10.1306 5.74692 10.08 5.69395C10.0294 5.64098 9.98985 5.57849 9.96358 5.51011C9.93731 5.44173 9.92487 5.36881 9.92699 5.29559C9.92911 5.22237 9.94574 5.15029 9.97591 5.08355C10.1934 4.58051 10.559 4.1557 11.024 3.86572C11.489 3.57575 12.0314 3.43439 12.5788 3.46047C15.1546 3.5651 18.6847 3.09456 19.6346 2.25037C19.694 2.19797 19.764 2.1589 19.8397 2.13577C19.9155 2.11264 19.9953 2.10599 20.0739 2.11626C20.1524 2.12654 20.2279 2.15351 20.2951 2.19535C20.3624 2.2372 20.4199 2.29295 20.4639 2.35887C20.5093 2.42806 21.4681 3.91053 20.7097 5.23744C20.9588 5.56515 21.2505 6.0844 21.2505 6.71935V7.50985C21.2499 7.81542 21.0019 8.06342 20.6964 8.06342Z" fill="black"/>
</svg>
