<svg width="280" height="430" viewBox="0 0 280 430" fill="none" xmlns="http://www.w3.org/2000/svg">
<path d="M273.792 11.0549C270.765 9.953 266.673 10.1232 262.062 11.8074L29.2472 422.572C29.2472 425.86 31.0971 428.216 33.998 429.309L6.19418 418.953C3.29328 417.851 1.44344 415.495 1.31731 412.207L0 99.9928C0 93.2562 7.38537 85.1669 16.4665 81.8075L234.258 1.45158C238.743 -0.232579 242.947 -0.402786 245.988 0.690127L273.792 11.0549Z" fill="#5B5E71"/>
<path d="M262.062 11.7896C271.171 8.4392 278.598 11.0819 278.612 17.8185L280 329.979C280.028 336.653 272.657 344.823 263.561 348.183L45.7838 428.556C36.6747 431.916 29.2613 429.21 29.2332 422.536L27.8458 110.367C27.8178 103.63 35.1892 95.5228 44.2843 92.1724L262.062 11.7896Z" fill="#525566"/>
<path d="M42.8268 314.069L42.3503 208.469L265.033 126.285L265.495 231.886L42.8268 314.069ZM63.2172 237.655C57.9339 243.693 54.6686 250.465 54.6967 256.584C54.7527 269.367 69.019 274.563 86.4384 268.14C94.6786 265.094 102.232 259.898 107.936 253.95L101.279 251.522C97.4113 255.544 92.03 259.199 86.3963 261.287C74.1201 265.811 64.072 262.156 64.044 253.135C64.016 248.924 66.2862 244.266 69.8738 240.02L63.2172 237.655ZM86.2282 221.799C80.5105 223.904 75.2973 226.887 70.5886 230.667L77.5115 233.176C80.2022 231.384 83.1451 229.807 86.2562 228.652C98.4484 224.155 108.496 227.756 108.538 236.714C108.538 238.998 107.88 241.346 106.801 243.728L113.724 246.308C116.386 241.856 117.9 237.467 117.872 233.265C117.816 220.473 103.564 215.402 86.2282 221.799ZM216.783 173.863C201.563 181.146 189.918 195.04 189.974 206.65C190.016 218.269 201.746 223.662 216.993 219.64L216.965 212.661C206.945 214.811 199.335 211.058 199.307 203.21C199.265 195.363 206.819 186.082 216.825 180.778L216.783 173.863ZM226.298 209.221L226.326 216.2C241.545 208.97 253.191 194.959 253.149 183.341C253.093 171.722 241.363 166.463 226.13 170.414L226.158 177.33C236.178 175.242 243.774 178.942 243.816 186.789C243.844 194.637 236.304 203.98 226.298 209.221ZM153.776 196.859C137.968 202.699 124.795 216.164 122.735 228.123L132.166 224.647C134.31 216.495 143.125 207.671 153.804 203.721C164.496 199.779 173.423 202.054 175.666 208.594L185.069 205.118C182.757 194.771 169.598 191.018 153.776 196.859ZM153.986 243.209C169.794 237.368 182.799 223.966 185.097 211.98L175.596 215.483C173.451 223.644 164.637 232.414 153.958 236.356C143.279 240.297 134.492 238.022 132.278 231.473L122.861 234.949C125.173 245.233 138.178 249.05 153.986 243.209Z" fill="white"/>
<path d="M196.757 48.9849L196.785 54.0553L123.688 81.0287L123.674 75.9672L196.757 48.9849ZM117.606 78.2068L117.634 83.2683L109.73 86.1887L109.702 81.1183L117.606 78.2068Z" fill="#C5C5C5"/>
<path d="M226.13 170.413C241.363 166.463 253.093 171.721 253.149 183.34C253.191 194.959 241.546 208.97 226.326 216.199L226.298 209.212C236.304 203.98 243.844 194.637 243.816 186.789C243.774 178.942 236.178 175.242 226.158 177.329L226.13 170.413Z" fill="#E74C3C"/>
<path d="M189.974 206.659C189.918 195.04 201.563 181.146 216.783 173.863L216.811 180.779C206.819 186.082 199.265 195.363 199.293 203.21C199.335 211.058 206.945 214.811 216.951 212.661L216.993 219.649C201.76 223.662 190.016 218.269 189.974 206.659Z" fill="#F1C40F"/>
<path d="M153.804 203.721C143.125 207.662 134.324 216.486 132.166 224.647L122.735 228.123C124.795 216.164 137.968 202.7 153.776 196.859C169.584 191.018 182.757 194.771 185.069 205.118L175.652 208.594C173.437 202.055 164.496 199.779 153.804 203.721Z" fill="#30B265"/>
<path d="M264.963 121.555L42.2943 203.676L41.9019 106.729C41.9019 104.875 43.8639 102.608 46.5125 101.677L95.9119 83.4018C97.9019 82.6403 99.4714 83.2316 99.4714 84.6559L99.6116 92.4945C99.6116 95.2715 102.639 96.3734 106.338 95.0207L201.984 59.725C204.745 58.6411 206.987 56.1954 206.987 54.1709V45.0782C207.065 44.2969 207.413 43.5363 208.007 42.8515C208.601 42.1668 209.425 41.5749 210.42 41.1186L259.96 22.9333C262.454 21.921 264.57 22.7541 264.57 24.6085L264.963 121.555Z" fill="white"/>
<path d="M249.225 98.0124L249.253 102.895L137.029 144.309L137.015 139.427L249.225 98.0124ZM249.169 85.9097L249.197 90.783L136.973 132.197L136.959 127.315L249.169 85.9097ZM245.61 62.4569C247.459 61.7761 249.071 62.2956 249.071 63.72L249.113 71.8721C249.047 72.6342 248.702 73.3758 248.106 74.0371C247.509 74.6984 246.678 75.2609 245.68 75.6793L140.35 114.558C138.5 115.239 136.903 114.711 136.889 113.295L136.861 105.143C136.861 103.71 138.444 102.008 140.294 101.327L245.61 62.4569ZM265.005 121.528L265.019 126.285L42.3503 208.468L42.3363 203.711L265.005 121.528Z" fill="#D4D6D6"/>
<path d="M121.081 129.385C121.081 142.105 106.983 157.773 89.5916 164.17C72.074 170.655 57.8358 165.513 57.8358 152.721C57.6957 139.83 71.9339 124.162 89.3253 117.676C106.843 111.28 120.955 116.503 121.081 129.385Z" fill="#2BA83D"/>
<path d="M265.888 333.464C266.028 335.399 263.912 337.764 261.263 338.767L47.97 417.43C45.4474 418.361 43.2052 417.609 43.2052 415.665L42.8268 318.808L265.495 236.606L265.888 333.464ZM89.4094 140.78C99.4995 137.053 107.6 140.135 107.628 147.48L71.3033 160.9C71.2612 153.545 79.4875 144.443 89.4094 140.78ZM89.3393 124.905C94.6366 122.944 98.9389 124.511 98.9529 128.399C98.9809 132.233 94.6927 136.972 89.3954 138.925C84.1822 140.851 79.7958 139.319 79.7817 135.485C79.7677 131.588 84.1261 126.823 89.3393 124.905Z" fill="white"/>
<path d="M86.2282 221.799C103.564 215.403 117.816 220.474 117.872 233.266C117.9 237.467 116.4 241.857 113.724 246.309L106.801 243.729C107.88 241.346 108.552 238.999 108.538 236.715C108.496 227.757 98.4484 224.155 86.2562 228.653C83.0229 229.894 80.0791 231.42 77.5115 233.185L70.5886 230.659C74.8822 227.1 80.1883 224.091 86.2282 221.79V221.799Z" fill="#E67E22"/>
<path d="M153.958 236.348C164.637 232.406 173.437 223.645 175.596 215.484L185.111 211.981C182.799 223.967 169.794 237.369 153.986 243.21C138.178 249.05 125.173 245.234 122.861 234.95L132.278 231.474C134.492 238.023 143.265 240.289 153.958 236.348Z" fill="#9B59B6"/>
<path d="M241.756 280.063C245.203 278.8 248.763 278.684 251.131 279.705C254.677 281.246 256.12 284.793 256.386 288.591L256.596 335.497L57.5695 408.955L57.4014 370.085C58.3403 353.772 67.4214 350.475 70.1961 349.454L70.7847 349.239C71.9619 348.746 73.1811 348.254 74.4004 347.797C78.3103 346.363 82.2202 345.378 84.9249 346.31C86.9569 347.044 87.8818 348.746 89.2412 350.099C90.8191 351.569 93.1975 352.61 95.9119 353.019C97.6216 353.261 99.5555 352.948 101.447 352.249C106.17 350.502 110.823 346.337 112.126 342.153C112.967 339.492 113.948 336.895 116.386 334.386C118.516 332.191 121.263 330.597 124.108 329.549C126.631 328.617 129.223 328.115 131.535 327.999C133.592 327.845 135.677 327.991 137.633 328.425C139.589 328.86 141.366 329.571 142.831 330.507C144.26 331.529 145.872 332.415 147.385 333.464C149.207 334.682 151.435 334.771 153.776 333.902C159.031 331.967 164.847 325.267 167.706 315.574C169.037 311.095 174.348 307.35 179.533 305.433C184.018 303.785 188.39 303.489 190.072 305.209C191.936 307.252 193.463 309.348 195.243 311.417C197.612 314.069 202.587 314.517 207.716 313.612C209.257 313.379 210.659 312.985 212.018 312.492C218.801 309.984 225.023 304.51 227.447 298.723C228.54 296.152 229.704 293.617 231.035 290.956C232.38 288.233 233.964 285.295 236.823 282.885C238.308 281.649 240.018 280.708 241.756 280.063Z" fill="#196525"/>
<path d="M265.495 231.885L265.509 236.642L42.8408 318.826L42.8268 314.069L265.495 231.885Z" fill="#D4D6D6"/>
<path d="M86.3963 261.277C92.044 259.199 97.4113 255.544 101.279 251.513L107.936 253.949C102.232 259.889 94.6786 265.094 86.4384 268.139C69.019 274.562 54.7667 269.367 54.6967 256.583C54.6686 250.465 57.9199 243.683 63.2172 237.654L69.8738 240.019C66.2722 244.266 64.016 248.933 64.044 253.134C64.072 262.155 74.1341 265.801 86.3963 261.277Z" fill="#3293C9"/>
<path d="M22.8989 180.026L22.7167 209.607C22.7167 210.789 22.1561 211.622 21.035 211.981L16.5505 213.701C17.4754 213.342 18.2322 212.509 18.2322 211.327V181.63C18.4144 179.372 15.8078 176.407 12.4584 175.216C10.973 174.624 9.48746 174.624 8.38036 174.983L12.8648 173.37C13.986 172.904 15.4574 173.021 17.1391 173.612C20.2923 174.804 22.8989 177.652 22.8989 180.026Z" fill="#C4C6C6"/>
<path d="M12.5285 175.261C9.31932 174.079 6.69871 175.028 6.6847 177.384L6.55856 207.009C6.55856 209.365 9.15117 212.241 12.3464 213.423C15.5556 214.606 18.1762 213.656 18.1902 211.3L18.3163 181.675C18.2088 180.39 17.6286 179.14 16.623 178.025C15.6173 176.911 14.2145 175.964 12.5285 175.261Z" fill="#ECF0F1"/>
<path d="M23.0811 135.719L22.8989 165.425C22.8989 166.491 22.3383 167.324 21.2172 167.673L16.7327 169.286C17.6717 168.928 18.4144 168.095 18.4144 167.02L18.5966 137.448C18.5181 136.131 17.9354 134.846 16.8995 133.705C15.8636 132.565 14.4061 131.605 12.6546 130.909C11.1692 130.317 9.68368 130.201 8.56256 130.676L13.2292 128.956C14.1682 128.597 15.6536 128.597 17.3213 129.198C20.4745 130.38 23.0811 133.345 23.0811 135.719Z" fill="#C4C6C6"/>
<path d="M12.7247 130.899C9.5155 129.717 6.89488 130.675 6.88087 133.112L6.75475 162.746C6.75475 165.004 9.34734 167.888 12.5566 169.071C15.7517 170.253 18.3724 169.295 18.3864 167.037L18.5125 137.403C18.4234 136.103 17.8521 134.836 16.8457 133.705C15.8394 132.574 14.4269 131.612 12.7247 130.899Z" fill="#ECF0F1"/>
</svg>
