<svg width="21" height="21" viewBox="0 0 21 21" fill="none" xmlns="http://www.w3.org/2000/svg">
<path d="M10.5 21C16.299 21 21 16.299 21 10.5C21 4.70101 16.299 0 10.5 0C4.70101 0 0 4.70101 0 10.5C0 16.299 4.70101 21 10.5 21Z" fill="url(#paint0_linear_274_496)"/>
<path fill-rule="evenodd" clip-rule="evenodd" d="M4.75289 10.3895C7.81385 9.05583 9.85499 8.17662 10.8762 7.75186C13.7922 6.53903 14.3981 6.32833 14.793 6.32136C14.8799 6.31984 15.0741 6.34138 15.1999 6.44347C15.3865 6.5949 15.3876 6.92359 15.3669 7.14114C15.2088 8.80145 14.5251 12.8305 14.1773 14.6901C14.0301 15.477 13.7402 15.7408 13.4597 15.7666C12.85 15.8227 12.3869 15.3636 11.7963 14.9765C10.8722 14.3707 10.3501 13.9936 9.45308 13.4025C8.41641 12.7193 9.08845 12.3439 9.67924 11.7303C9.83387 11.5697 12.5204 9.12601 12.5724 8.90432C12.579 8.87659 12.585 8.77324 12.5236 8.71868C12.4622 8.66413 12.3716 8.68275 12.3062 8.6976C12.2135 8.71864 10.7372 9.69445 7.87726 11.625C7.4582 11.9127 7.07864 12.0529 6.73858 12.0456C6.36366 12.0375 5.64252 11.8336 5.10641 11.6593C4.44885 11.4456 3.92622 11.3326 3.97175 10.9696C3.99546 10.7805 4.25583 10.5871 4.75289 10.3895Z" fill="white"/>
<defs>
<linearGradient id="paint0_linear_274_496" x1="10.5" y1="0" x2="10.5" y2="20.8359" gradientUnits="userSpaceOnUse">
<stop stop-color="#2AABEE"/>
<stop offset="1" stop-color="#229ED9"/>
</linearGradient>
</defs>
</svg>
