<svg width="21" height="21" viewBox="0 0 21 21" fill="none" xmlns="http://www.w3.org/2000/svg">
<g clip-path="url(#clip0_588_58)">
<path d="M10.5 21C16.289 21 21 16.289 21 10.5C21 4.71101 16.289 0 10.5 0C4.71095 0 0 4.71101 0 10.5C0 16.289 4.71101 21 10.5 21ZM10.5 1.39998C15.519 1.39998 19.6 5.48096 19.6 10.5C19.6 15.519 15.519 19.6 10.5 19.6C5.48096 19.6 1.39998 15.519 1.39998 10.5C1.39998 5.48096 5.48102 1.39998 10.5 1.39998Z" fill="black"/>
<path d="M13.5625 13.8461C13.6921 13.951 13.846 14.0001 14 14.0001C14.1049 14.0003 14.2085 13.9768 14.3031 13.9313C14.3976 13.8859 14.4807 13.8197 14.546 13.7376C14.7875 13.4366 14.7385 12.9956 14.4375 12.7541L11.2 10.1641V4.90006C11.2 4.51506 10.885 4.20007 10.5 4.20007C10.115 4.20007 9.80005 4.51506 9.80005 4.90006V10.5001C9.80005 10.7136 9.89807 10.9131 10.0625 11.0461L13.5625 13.8461Z" fill="black"/>
</g>
<defs>
<clipPath id="clip0_588_58">
<rect width="21" height="21" fill="white"/>
</clipPath>
</defs>
</svg>
