<svg width="21" height="21" viewBox="0 0 21 21" fill="none" xmlns="http://www.w3.org/2000/svg">
<g clip-path="url(#clip0_274_500)">
<path d="M10.5 21C16.299 21 21 16.299 21 10.5C21 4.70101 16.299 0 10.5 0C4.70101 0 0 4.70101 0 10.5C0 16.299 4.70101 21 10.5 21Z" fill="#4169E1"/>
<path d="M16.5518 14.609C16.2464 14.652 14.7525 14.609 14.6749 14.609C14.2888 14.614 13.9162 14.4665 13.6381 14.1986C13.3231 13.8955 13.0415 13.5614 12.7336 13.244C12.6426 13.1477 12.544 13.0587 12.4389 12.978C12.1931 12.7882 11.9497 12.8312 11.834 13.1211C11.7436 13.4345 11.6805 13.755 11.6455 14.0793C11.6252 14.3728 11.439 14.5565 11.1097 14.5768C10.9057 14.5876 10.7017 14.5911 10.5 14.5864C9.76512 14.5817 9.0418 14.403 8.38927 14.0649C7.68322 13.6715 7.06808 13.1336 6.58398 12.4864C5.78813 11.4698 5.15216 10.353 4.58421 9.20153C4.55438 9.14426 3.97211 7.90574 3.95779 7.84727C3.90529 7.65159 3.95779 7.46426 4.11887 7.39983C4.22148 7.36045 6.14012 7.39983 6.17233 7.39983C6.31497 7.39859 6.4543 7.44279 6.57014 7.52602C6.68598 7.60926 6.77232 7.72721 6.81665 7.86278C7.17133 8.77094 7.65692 9.62233 8.25802 10.3899C8.34214 10.4926 8.44059 10.5826 8.55035 10.6572C8.70665 10.7634 8.85461 10.7264 8.91904 10.5462C8.99539 10.2963 9.04028 10.0377 9.05267 9.77665C9.06341 9.25881 9.05267 8.91756 9.02404 8.40091C9.00495 8.0692 8.88802 7.77807 8.39881 7.685C8.24847 7.65875 8.23535 7.53466 8.33199 7.41057C8.53364 7.15284 8.80927 7.11227 9.1183 7.09676C9.57887 7.07051 10.0394 7.08841 10.5 7.09676H10.6002C10.8007 7.09603 11.0006 7.11643 11.1968 7.15761C11.3128 7.18107 11.4181 7.24136 11.497 7.32952C11.5759 7.41768 11.6242 7.52897 11.6347 7.64682C11.6583 7.77748 11.6683 7.91023 11.6645 8.04295C11.6526 8.60852 11.6252 9.1729 11.6192 9.73847C11.6137 9.9624 11.6341 10.1862 11.6801 10.4055C11.7457 10.7061 11.9521 10.7813 12.1573 10.5641C12.4231 10.2834 12.6668 9.98264 12.8864 9.66449C13.2746 9.08465 13.5949 8.46209 13.8409 7.80909C13.9745 7.47381 14.0795 7.39983 14.4375 7.39983H16.4731C16.5941 7.39771 16.7148 7.41379 16.831 7.44756C16.8722 7.45837 16.9106 7.47756 16.944 7.50393C16.9774 7.5303 17.005 7.56328 17.025 7.6008C17.0451 7.63833 17.0572 7.67959 17.0605 7.722C17.0639 7.76441 17.0585 7.80706 17.0446 7.84727C16.9444 8.29352 16.7034 8.67415 16.448 9.04045C16.034 9.6275 15.5973 10.199 15.1737 10.7765C15.1201 10.8531 15.0711 10.9328 15.0269 11.0152C14.867 11.3027 14.879 11.4638 15.1105 11.7036C15.4803 12.0831 15.8753 12.4398 16.232 12.8312C16.494 13.1157 16.7304 13.4227 16.9384 13.7488C17.1997 14.1532 17.0386 14.5398 16.5518 14.609Z" fill="white"/>
</g>
<defs>
<clipPath id="clip0_274_500">
<rect width="21" height="21" fill="white"/>
</clipPath>
</defs>
</svg>
