<svg width="255" height="291" viewBox="0 0 255 291" fill="none" xmlns="http://www.w3.org/2000/svg">
<path d="M282.453 50.4293C262.406 52.5526 246.781 69.5165 246.781 90.1307V116.541C244.604 116.97 242.474 117.614 240.424 118.464C236.332 120.157 232.614 122.642 229.485 125.776C226.354 128.906 223.87 132.622 222.176 136.712C220.481 140.802 219.609 145.185 219.609 149.612V174.301L208.921 169.14C190.067 160.042 169.402 155.317 148.467 155.316L117.165 154.465V190.464L119.339 192.295C119.339 192.295 191.499 255.009 225.84 253.579C255.131 252.354 278.729 230.94 285.042 224.661C285.57 224.136 285.989 223.511 286.275 222.823C286.56 222.135 286.707 221.397 286.706 220.652V54.2753C286.706 51.9884 284.727 50.1884 282.453 50.4293Z" fill="#FED2A4"/>
<path d="M228.814 177.592C233.76 179.98 239.502 176.376 239.502 170.884V158.064C239.502 153.637 240.374 149.253 242.069 145.164C243.763 141.074 246.247 137.358 249.377 134.228C252.868 130.732 257.086 128.048 261.731 126.367C264.689 125.295 266.674 122.504 266.674 119.357V98.5826C266.674 83.7763 274.735 70.8536 286.706 63.9602V54.2753C286.706 51.9879 284.727 50.1884 282.453 50.4293C262.406 52.5526 246.781 69.5165 246.781 90.1307V116.541C244.604 116.97 242.474 117.614 240.424 118.464C236.332 120.157 232.614 122.642 229.485 125.776C226.354 128.906 223.87 132.622 222.176 136.712C220.481 140.802 219.609 145.185 219.609 149.612V173.568C222.725 174.798 225.795 176.14 228.814 177.592ZM166.058 162.947C166.937 160.917 167.745 158.857 168.479 156.77C161.852 155.804 155.164 155.319 148.467 155.316L117.165 154.465V190.464L119.339 192.295C119.339 192.295 124.492 196.773 132.696 203.307C147.29 193.32 158.934 179.345 166.058 162.947Z" fill="#FFBD86"/>
<path d="M117.164 190.458C106.082 196.889 93.2083 200.574 79.4765 200.574C37.9551 200.574 4.28943 166.914 4.28943 125.393C4.28943 83.8713 37.9551 50.2056 79.4765 50.2056C120.998 50.2056 154.658 83.8713 154.658 125.393C154.658 136.023 152.449 146.145 148.467 155.316C142.042 170.107 131.005 182.425 117.164 190.458Z" fill="#2A8D38"/>
<path d="M43.3746 125.393C43.3746 90.6319 66.972 61.3815 99.0191 52.7768C92.6458 51.0666 86.0753 50.2021 79.4765 50.2056C37.9551 50.2056 4.28943 83.8713 4.28943 125.393C4.28943 166.914 37.9551 200.574 79.4765 200.574C86.236 200.574 92.786 199.677 99.0185 198.003C66.972 189.399 43.3746 160.153 43.3746 125.393Z" fill="#2A8D38"/>
<path d="M79.4759 179.449C109.331 179.449 133.533 155.247 133.533 125.392C133.533 95.5371 109.331 71.3348 79.4759 71.3348C49.6209 71.3348 25.4186 95.5371 25.4186 125.392C25.4186 155.247 49.6209 179.449 79.4759 179.449Z" fill="#1E6F29"/>
<path d="M79.476 145.763C90.7267 145.763 99.8471 136.643 99.8471 125.392C99.8471 114.141 90.7267 105.021 79.476 105.021C68.2254 105.021 59.105 114.141 59.105 125.392C59.105 136.643 68.2254 145.763 79.476 145.763Z" fill="#16511E"/>
<path d="M126.743 91.1795C126.069 90.2728 125.065 89.6683 123.949 89.497C122.832 89.3257 121.693 89.6015 120.779 90.2645C119.865 90.9275 119.248 91.9242 119.064 93.0386C118.88 94.153 119.142 95.2951 119.794 96.2173C125.975 104.743 129.242 114.832 129.242 125.392C129.242 152.833 106.917 175.158 79.476 175.158C52.0353 175.158 29.7098 152.833 29.7098 125.392C29.7098 97.9515 52.0353 75.626 79.476 75.626C90.0185 75.626 100.093 78.8827 108.611 85.0448C109.067 85.3751 109.585 85.6122 110.133 85.7426C110.681 85.8729 111.25 85.8941 111.806 85.8047C112.362 85.7153 112.896 85.5172 113.375 85.2217C113.855 84.9262 114.272 84.5391 114.602 84.0824C114.933 83.6259 115.17 83.1088 115.3 82.5605C115.431 82.0123 115.452 81.4438 115.363 80.8874C115.273 80.3309 115.075 79.7976 114.78 79.3177C114.484 78.8379 114.097 78.421 113.641 78.0908C103.651 70.8633 91.8369 67.043 79.476 67.043C47.3025 67.043 21.1274 93.2181 21.1274 125.392C21.1274 157.565 47.3025 183.74 79.476 183.74C111.649 183.74 137.825 157.565 137.825 125.392C137.825 113.011 133.992 101.18 126.743 91.1795Z" fill="black"/>
<path d="M54.8137 125.392C54.8137 138.991 65.8775 150.055 79.476 150.055C93.0744 150.055 104.138 138.991 104.138 125.392C104.138 111.793 93.075 100.73 79.476 100.73C65.8769 100.73 54.8137 111.793 54.8137 125.392ZM95.5558 125.392C95.5558 134.259 88.3427 141.472 79.476 141.472C70.6093 141.472 63.3961 134.259 63.3961 125.392C63.3961 116.525 70.6093 109.312 79.476 109.312C88.3421 109.312 95.5558 116.525 95.5558 125.392ZM229.815 129.751C230.933 129.752 232.008 129.315 232.808 128.534C238.336 123.154 245.622 120.19 253.324 120.19H254.246C256.617 120.19 258.538 118.269 258.538 115.899C258.538 113.528 256.617 111.608 254.246 111.608H253.324C252.57 111.608 251.82 111.637 251.073 111.68V90.133C251.073 70.4834 267.059 54.4979 286.708 54.4979C289.078 54.4979 290.999 52.5772 290.999 50.2067C290.999 47.8363 289.078 45.9156 286.708 45.9156C262.326 45.9156 242.491 65.7517 242.491 90.133V113.173C236.66 114.903 231.294 118.03 226.821 122.384C226.005 123.178 225.538 124.263 225.523 125.401C225.508 126.539 225.945 127.636 226.739 128.452C227.138 128.864 227.617 129.191 228.145 129.414C228.674 129.637 229.242 129.752 229.815 129.751Z" fill="black"/>
<path d="M283.532 220.061C283.279 220.34 257.843 247.945 225.663 249.289C212.564 249.834 190.635 239.703 162.221 219.989C144.777 207.887 129.822 195.54 124.367 190.938C135.824 183.067 145.124 172.277 151.182 159.646C170.447 160.042 189.708 164.634 207.055 173.006L221.057 179.763C225.609 181.96 229.818 184.807 233.551 188.215C234.341 188.939 235.373 189.339 236.444 189.338C237.309 189.338 238.154 189.076 238.868 188.588C239.582 188.099 240.132 187.406 240.445 186.599C240.758 185.792 240.82 184.91 240.622 184.068C240.425 183.225 239.978 182.462 239.339 181.878C234.992 177.908 230.09 174.592 224.787 172.033L223.902 171.606V149.613C223.902 146.87 224.293 144.125 225.064 141.455C225.37 140.365 225.232 139.198 224.682 138.209C224.131 137.219 223.211 136.487 222.123 136.173C221.035 135.859 219.867 135.987 218.874 136.53C217.88 137.073 217.141 137.987 216.819 139.073C215.826 142.499 215.322 146.047 215.319 149.613V167.465L210.785 165.277C193.324 156.85 174.041 152.028 154.656 151.176C157.438 143.087 158.951 134.413 158.951 125.392C158.951 81.5689 123.299 45.9161 79.476 45.9161C35.6534 45.9161 0 81.5689 0 125.392C0 169.215 35.6528 204.868 79.476 204.868C92.8919 204.868 105.539 201.522 116.636 195.627C120.767 199.209 189.023 257.891 224.723 257.891C225.16 257.891 225.595 257.882 226.021 257.864C261.746 256.373 288.753 227.079 289.885 225.833C290.627 224.986 291.006 223.883 290.942 222.76C290.878 221.637 290.375 220.584 289.543 219.827C288.71 219.071 287.614 218.671 286.49 218.715C285.366 218.759 284.304 219.242 283.532 220.061ZM8.58235 125.392C8.58235 86.3007 40.3851 54.4979 79.476 54.4979C118.566 54.4979 150.369 86.3007 150.369 125.392C150.369 164.482 118.566 196.285 79.476 196.285C40.3851 196.286 8.58235 164.483 8.58235 125.392Z" fill="black"/>
</svg>
