<svg width="271" height="291" viewBox="0 0 271 291" fill="none" xmlns="http://www.w3.org/2000/svg">
<g clip-path="url(#clip0_35_17)">
<path d="M-11.4525 50.4293C8.59411 52.5526 24.2191 69.5165 24.2191 90.1307V116.541C26.3964 116.97 28.5257 117.614 30.5758 118.464C34.6682 120.157 38.3859 122.642 41.5154 125.776C44.6462 128.906 47.1297 132.622 48.8241 136.712C50.5186 140.802 51.3907 145.185 51.3908 149.612V174.301L62.0787 169.14C80.9332 160.042 101.598 155.317 122.533 155.316L153.835 154.465V190.464L151.661 192.295C151.661 192.295 79.5009 255.009 45.16 253.579C15.8691 252.354 -7.72895 230.94 -14.0421 224.661C-14.5702 224.136 -14.989 223.511 -15.2745 222.823C-15.5601 222.135 -15.7067 221.397 -15.706 220.652V54.2753C-15.706 51.9884 -13.7269 50.1884 -11.4525 50.4293Z" fill="#FED2A4"/>
<path d="M42.186 177.592C37.2397 179.98 31.4981 176.376 31.4981 170.884V158.064C31.498 153.637 30.6258 149.253 28.9314 145.164C27.2369 141.074 24.7534 137.358 21.6227 134.228C18.1322 130.732 13.9144 128.048 9.26923 126.367C6.31062 125.295 4.32639 122.504 4.32639 119.357V98.5826C4.32639 83.7763 -3.7353 70.8536 -15.706 63.9602V54.2753C-15.706 51.9879 -13.7269 50.1884 -11.4525 50.4293C8.59411 52.5526 24.2191 69.5165 24.2191 90.1307V116.541C26.3964 116.97 28.5257 117.614 30.5758 118.464C34.6682 120.157 38.3859 122.642 41.5154 125.776C44.6462 128.906 47.1297 132.622 48.8241 136.712C50.5186 140.802 51.3907 145.185 51.3908 149.612V173.568C48.2751 174.798 45.2048 176.14 42.186 177.592ZM104.942 162.947C104.063 160.917 103.255 158.857 102.521 156.77C109.148 155.804 115.836 155.319 122.533 155.316L153.835 154.465V190.464L151.661 192.295C151.661 192.295 146.508 196.773 138.304 203.307C123.71 193.32 112.066 179.345 104.942 162.947Z" fill="#FFBD86"/>
<path d="M153.835 190.458C164.918 196.889 177.792 200.574 191.523 200.574C233.045 200.574 266.711 166.914 266.711 125.393C266.711 83.8713 233.045 50.2056 191.523 50.2056C150.002 50.2056 116.342 83.8713 116.342 125.393C116.342 136.023 118.551 146.145 122.533 155.316C128.958 170.107 139.995 182.425 153.835 190.458Z" fill="#32A042"/>
<path d="M227.625 125.393C227.625 90.6319 204.028 61.3815 171.981 52.7768C178.354 51.0666 184.925 50.2021 191.523 50.2056C233.045 50.2056 266.711 83.8713 266.711 125.393C266.711 166.914 233.045 200.574 191.523 200.574C184.764 200.574 178.214 199.677 171.981 198.003C204.028 189.399 227.625 160.153 227.625 125.393Z" fill="#32A042"/>
<path d="M191.524 179.449C161.669 179.449 137.467 155.247 137.467 125.392C137.467 95.5371 161.669 71.3348 191.524 71.3348C221.379 71.3348 245.581 95.5371 245.581 125.392C245.581 155.247 221.379 179.449 191.524 179.449Z" fill="#1D6227"/>
<path d="M191.524 145.763C180.273 145.763 171.153 136.643 171.153 125.392C171.153 114.141 180.273 105.021 191.524 105.021C202.775 105.021 211.895 114.141 211.895 125.392C211.895 136.643 202.775 145.763 191.524 145.763Z" fill="#184E1F"/>
<path d="M144.257 91.1795C144.931 90.2728 145.935 89.6683 147.051 89.497C148.168 89.3257 149.307 89.6015 150.221 90.2645C151.135 90.9275 151.752 91.9242 151.936 93.0386C152.12 94.153 151.858 95.2951 151.206 96.2173C145.025 104.743 141.758 114.832 141.758 125.392C141.758 152.833 164.083 175.158 191.524 175.158C218.965 175.158 241.29 152.833 241.29 125.392C241.29 97.9515 218.965 75.626 191.524 75.626C180.981 75.626 170.907 78.8827 162.389 85.0448C161.933 85.3751 161.415 85.6122 160.867 85.7426C160.319 85.8729 159.75 85.8941 159.194 85.8047C158.638 85.7153 158.104 85.5172 157.625 85.2217C157.145 84.9262 156.728 84.5391 156.398 84.0824C156.067 83.6259 155.83 83.1088 155.7 82.5605C155.569 82.0123 155.548 81.4438 155.637 80.8874C155.727 80.3309 155.925 79.7976 156.22 79.3177C156.516 78.8379 156.903 78.421 157.359 78.0908C167.349 70.8633 179.163 67.043 191.524 67.043C223.698 67.043 249.873 93.2181 249.873 125.392C249.873 157.565 223.698 183.74 191.524 183.74C159.35 183.74 133.175 157.565 133.175 125.392C133.175 113.011 137.008 101.18 144.257 91.1795Z" fill="black"/>
<path d="M216.186 125.392C216.186 138.991 205.122 150.055 191.524 150.055C177.926 150.055 166.862 138.991 166.862 125.392C166.862 111.793 177.925 100.73 191.524 100.73C205.123 100.73 216.186 111.793 216.186 125.392ZM175.444 125.392C175.444 134.259 182.657 141.472 191.524 141.472C200.391 141.472 207.604 134.259 207.604 125.392C207.604 116.525 200.391 109.312 191.524 109.312C182.658 109.312 175.444 116.525 175.444 125.392ZM41.1847 129.751C40.0666 129.752 38.9925 129.315 38.1923 128.534C32.6641 123.154 25.3777 120.19 17.6759 120.19H16.7536C14.3832 120.19 12.4624 118.269 12.4624 115.899C12.4624 113.528 14.3832 111.608 16.7536 111.608H17.6759C18.43 111.608 19.1796 111.637 19.9268 111.68V90.133C19.9268 70.4834 3.9413 54.4979 -15.7077 54.4979C-18.0782 54.4979 -19.9989 52.5772 -19.9989 50.2067C-19.9989 47.8363 -18.0782 45.9156 -15.7077 45.9156C8.6736 45.9156 28.5091 65.7517 28.5091 90.133V113.173C34.34 114.903 39.7057 118.03 44.1794 122.384C44.9948 123.178 45.4615 124.263 45.4768 125.401C45.4922 126.539 45.0549 127.636 44.2612 128.452C43.8616 128.864 43.3834 129.191 42.8549 129.414C42.3263 129.637 41.7584 129.752 41.1847 129.751Z" fill="black"/>
<path d="M-12.5322 220.061C-12.2793 220.34 13.157 247.945 45.3368 249.289C58.4364 249.834 80.3648 239.703 108.779 219.989C126.223 207.887 141.178 195.54 146.633 190.938C135.176 183.067 125.876 172.277 119.818 159.646C100.553 160.042 81.2923 164.634 63.9451 173.006L49.9433 179.763C45.3906 181.96 41.1817 184.807 37.4491 188.215C36.6593 188.939 35.627 189.339 34.5563 189.338C33.691 189.338 32.846 189.076 32.132 188.588C31.418 188.099 30.8685 187.406 30.5554 186.599C30.2424 185.792 30.1805 184.91 30.3778 184.068C30.5751 183.225 31.0224 182.462 31.6611 181.878C36.0084 177.908 40.9103 174.592 46.2128 172.033L47.0985 171.606V149.613C47.0985 146.87 46.7072 144.125 45.9365 141.455C45.6304 140.365 45.7677 139.198 46.3184 138.209C46.8692 137.219 47.7887 136.487 48.8766 136.173C49.9646 135.859 51.1327 135.987 52.1263 136.53C53.12 137.073 53.8586 137.987 54.1812 139.073C55.1735 142.499 55.6784 146.047 55.6808 149.613V167.465L60.2146 165.277C77.6757 156.85 96.9591 152.028 116.344 151.176C113.562 143.087 112.049 134.413 112.049 125.392C112.049 81.5689 147.701 45.9161 191.524 45.9161C235.347 45.9161 271 81.5689 271 125.392C271 169.215 235.347 204.868 191.524 204.868C178.108 204.868 165.461 201.522 154.364 195.627C150.233 199.209 81.9772 257.891 46.2769 257.891C45.8403 257.891 45.4055 257.882 44.9787 257.864C9.25433 256.373 -17.7532 227.079 -18.8855 225.833C-19.6267 224.986 -20.0061 223.883 -19.942 222.76C-19.8779 221.637 -19.3755 220.584 -18.5428 219.827C-17.7101 219.071 -16.6138 218.671 -15.4897 218.715C-14.3656 218.759 -13.3036 219.242 -12.5322 220.061ZM262.418 125.392C262.418 86.3007 230.615 54.4979 191.524 54.4979C152.434 54.4979 120.631 86.3007 120.631 125.392C120.631 164.482 152.434 196.285 191.524 196.285C230.615 196.286 262.418 164.483 262.418 125.392Z" fill="black"/>
</g>
<defs>
<clipPath id="clip0_35_17">
<rect width="291" height="291" fill="white" transform="matrix(-1 0 0 1 271 0)"/>
</clipPath>
</defs>
</svg>
