<svg width="496" height="369" viewBox="0 0 496 369" fill="none" xmlns="http://www.w3.org/2000/svg">
<path d="M272 129C278.283 129.001 284.316 126.539 288.803 122.141C293.29 117.744 295.874 111.762 296 105.48C296.126 111.762 298.71 117.744 303.197 122.141C307.684 126.539 313.717 129.001 320 129L320.48 127.72C322.889 128.597 325.437 129.031 328 129H360C360 129 334.8 129 324.4 145H128V97H152V105C152 111.365 154.529 117.47 159.029 121.971C163.53 126.471 169.635 129 176 129C182.365 129 188.47 126.471 192.971 121.971C197.471 117.47 200 111.365 200 105C200 111.365 202.529 117.47 207.029 121.971C211.53 126.471 217.635 129 224 129C230.365 129 236.47 126.471 240.971 121.971C245.471 117.47 248 111.365 248 105C248 111.365 250.529 117.47 255.029 121.971C259.53 126.471 265.635 129 272 129Z" fill="#545C70"/>
<path d="M48 9H16C7.16344 9 0 16.1634 0 25V217C0 225.837 7.16344 233 16 233H48C56.8366 233 64 225.837 64 217V25C64 16.1634 56.8366 9 48 9Z" fill="#434959"/>
<path d="M128 145V217C127.987 221.24 126.298 225.302 123.3 228.3C120.302 231.298 116.24 232.987 112 233H80C75.7604 232.987 71.6981 231.298 68.7003 228.3C65.7024 225.302 64.0127 221.24 64 217V25C64.0127 20.7604 65.7024 16.6981 68.7003 13.7003C71.6981 10.7024 75.7604 9.01266 80 9H112C116.24 9.01266 120.302 10.7024 123.3 13.7003C126.298 16.6981 127.987 20.7604 128 25V145ZM432 25V217C431.987 221.24 430.298 225.302 427.3 228.3C424.302 231.298 420.24 232.987 416 233H384C379.76 232.987 375.698 231.298 372.7 228.3C369.702 225.302 368.013 221.24 368 217V193L366.88 192.36L374.24 178.92C380.639 167.161 383.994 153.987 384 140.6V97C383.987 92.7604 382.298 88.6981 379.3 85.7003C376.302 82.7024 372.24 81.0127 368 81V25C368.013 20.7604 369.702 16.6981 372.7 13.7003C375.698 10.7024 379.76 9.01266 384 9H416C420.24 9.01266 424.302 10.7024 427.3 13.7003C430.298 16.6981 431.987 20.7604 432 25Z" fill="#434959"/>
<path d="M480 9H448C439.163 9 432 16.1634 432 25V217C432 225.837 439.163 233 448 233H480C488.837 233 496 225.837 496 217V25C496 16.1634 488.837 9 480 9Z" fill="#434959"/>
<path d="M200 41V105C200 111.365 197.471 117.47 192.971 121.971C188.47 126.471 182.365 129 176 129C169.635 129 163.53 126.471 159.029 121.971C154.529 117.47 152 111.365 152 105V41C152 34.6348 154.529 28.5303 159.029 24.0294C163.53 19.5286 169.635 17 176 17C182.365 17 188.47 19.5286 192.971 24.0294C197.471 28.5303 200 34.6348 200 41ZM248 33V105C248 111.365 245.471 117.47 240.971 121.971C236.47 126.471 230.365 129 224 129C217.635 129 211.53 126.471 207.029 121.971C202.529 117.47 200 111.365 200 105V33C200 26.6348 202.529 20.5303 207.029 16.0294C211.53 11.5286 217.635 9 224 9C230.365 9 236.47 11.5286 240.971 16.0294C245.471 20.5303 248 26.6348 248 33ZM304 105C303.989 110.044 305.579 114.961 308.541 119.043C311.502 123.126 315.682 126.164 320.48 127.72L320 129C313.717 129.001 307.684 126.539 303.197 122.141C298.71 117.744 296.126 111.762 296 105.48V41C296 34.6348 298.529 28.5303 303.029 24.0294C307.53 19.5286 313.635 17 320 17C326.365 17 332.47 19.5286 336.971 24.0294C341.471 28.5303 344 34.6348 344 41V81H328C321.635 81 315.53 83.5286 311.029 88.0294C306.529 92.5303 304 98.6348 304 105Z" fill="#F5A680"/>
<path d="M296 105V105.48C295.936 111.845 293.347 117.924 288.801 122.38C284.255 126.836 278.125 129.304 271.76 129.24C265.395 129.176 259.316 126.587 254.86 122.041C250.404 117.495 247.936 111.365 248 105V25C248 18.6348 250.529 12.5303 255.029 8.02943C259.53 3.52856 265.635 1 272 1C278.365 1 284.47 3.52856 288.971 8.02943C293.471 12.5303 296 18.6348 296 25V105Z" fill="#F5A680"/>
<path d="M384 97V140.6C383.994 153.987 380.639 167.161 374.24 178.92L366.88 192.36L358.72 207.32C349.213 224.962 333.725 238.634 315.04 245.88C311.866 246.98 309.105 249.027 307.131 251.745C305.157 254.463 304.064 257.721 304 261.08V369H192V258.6C192.009 255.871 191.315 253.186 189.983 250.803C188.652 248.421 186.729 246.422 184.4 245C172.003 236.562 161.847 225.233 154.809 211.992C147.77 198.751 144.06 183.996 144 169V145H324.4C334.8 129 360 129 360 129H328C325.437 129.031 322.889 128.597 320.48 127.72C315.114 125.894 310.568 122.229 307.646 117.372C304.724 112.515 303.615 106.781 304.515 101.185C305.416 95.5892 308.268 90.4927 312.567 86.7982C316.865 83.1037 322.332 81.0497 328 81H368C372.24 81.0127 376.302 82.7024 379.3 85.7003C382.298 88.6981 383.987 92.7604 384 97Z" fill="#F5A680"/>
<path d="M342.64 129C342.16 130.28 341.6 131.48 341.04 132.68C334.492 134.774 328.796 138.927 324.8 144.52H324.72C323.167 144.842 321.586 145.003 320 145C313.717 145.001 307.684 142.539 303.197 138.141C298.71 133.744 296.126 127.762 296 121.48C295.968 124.632 295.316 127.746 294.081 130.646C292.846 133.546 291.052 136.174 288.801 138.38C286.55 140.587 283.887 142.328 280.963 143.505C278.039 144.682 274.912 145.272 271.76 145.24C268.608 145.208 265.494 144.556 262.594 143.321C259.694 142.086 257.066 140.292 254.86 138.041C250.404 133.495 247.936 127.365 248 121C248 127.365 245.471 133.47 240.971 137.971C236.47 142.471 230.365 145 224 145C217.635 145 211.53 142.471 207.029 137.971C202.529 133.47 200 127.365 200 121C200 127.365 197.471 133.47 192.971 137.971C188.47 142.471 182.365 145 176 145C169.635 145 163.53 142.471 159.029 137.971C154.529 133.47 152 127.365 152 121V105C152 111.365 154.529 117.47 159.029 121.971C163.53 126.471 169.635 129 176 129C182.365 129 188.47 126.471 192.971 121.971C197.471 117.47 200 111.365 200 105C200 111.365 202.529 117.47 207.029 121.971C211.53 126.471 217.635 129 224 129C230.365 129 236.47 126.471 240.971 121.971C245.471 117.47 248 111.365 248 105C247.936 111.365 250.404 117.495 254.86 122.041C259.316 126.587 265.395 129.176 271.76 129.24C278.125 129.304 284.255 126.836 288.801 122.38C293.347 117.924 295.936 111.845 296 105.48C296.126 111.762 298.71 117.744 303.197 122.141C307.684 126.539 313.717 129.001 320 129L320.48 127.72C322.889 128.597 325.437 129.031 328 129H342.64Z" fill="#545C70"/>
<path d="M368 131.96V132.68C367.977 136.176 366.995 139.598 365.161 142.575C363.327 145.551 360.712 147.967 357.6 149.56C351.052 152.865 345.159 157.332 340.208 162.744C338.682 164.644 336.759 166.188 334.575 167.269C332.39 168.349 329.996 168.94 327.56 169H199.44C197.296 168.992 195.172 169.417 193.196 170.249C191.22 171.08 189.432 172.302 187.938 173.84C186.445 175.378 185.276 177.202 184.504 179.202C183.731 181.202 183.369 183.337 183.44 185.48C184.24 203.24 190 230.6 216 241V281C216 300.096 223.586 318.409 237.088 331.912C250.591 345.414 268.904 353 288 353C292.234 352.969 296.285 351.273 299.279 348.279C302.273 345.285 303.969 341.234 304 337V369H192V258.6C191.997 255.855 191.287 253.157 189.939 250.765C188.591 248.373 186.651 246.369 184.304 244.944C171.935 236.498 161.805 225.173 154.784 211.944C147.763 198.714 144.062 183.977 144 169V145H324.4C334.8 129 360 129 360 129H328C325.437 129.031 322.889 128.597 320.48 127.72C315.682 126.164 311.502 123.126 308.541 119.043C305.579 114.961 303.989 110.044 304 105C304.01 103.525 304.144 102.053 304.4 100.6C305.231 104.118 307.222 107.254 310.052 109.503C312.881 111.752 316.385 112.984 320 113H349.04C354.069 113 358.891 114.998 362.447 118.553C366.002 122.109 368 126.931 368 131.96Z" fill="#D18764"/>
<path d="M476 209C470.696 209 465.609 206.893 461.858 203.142C458.107 199.391 456 194.304 456 189V25C456 20.7565 457.686 16.6869 460.686 13.6863C463.687 10.6857 467.757 9 472 9H448C443.76 9.01266 439.698 10.7024 436.7 13.7003C433.702 16.6981 432.013 20.7604 432 25V217C432.013 221.24 433.702 225.302 436.7 228.3C439.698 231.298 443.76 232.987 448 233H480C484.24 232.987 488.302 231.298 491.3 228.3C494.298 225.302 495.987 221.24 496 217V189C496 194.304 493.893 199.391 490.142 203.142C486.391 206.893 481.304 209 476 209ZM108 209C102.696 209 97.6086 206.893 93.8579 203.142C90.1071 199.391 88 194.304 88 189V25C88 20.7565 89.6857 16.6869 92.6863 13.6863C95.6869 10.6857 99.7565 9 104 9H80C75.7604 9.01266 71.6981 10.7024 68.7003 13.7003C65.7024 16.6981 64.0127 20.7604 64 25V217C64.0127 221.24 65.7024 225.302 68.7003 228.3C71.6981 231.298 75.7604 232.987 80 233H112C116.24 232.987 120.302 231.298 123.3 228.3C126.298 225.302 127.987 221.24 128 217V189C128 194.304 125.893 199.391 122.142 203.142C118.391 206.893 113.304 209 108 209ZM44 209C38.6957 209 33.6086 206.893 29.8579 203.142C26.1071 199.391 24 194.304 24 189V25C24 20.7565 25.6857 16.6869 28.6863 13.6863C31.6869 10.6857 35.7565 9 40 9H16C11.7604 9.01266 7.69812 10.7024 4.70028 13.7003C1.70244 16.6981 0.0126618 20.7604 0 25V217C0.0126618 221.24 1.70244 225.302 4.70028 228.3C7.69812 231.298 11.7604 232.987 16 233H48C52.2396 232.987 56.3019 231.298 59.2997 228.3C62.2976 225.302 63.9873 221.24 64 217V189C64 194.304 61.8929 199.391 58.1421 203.142C54.3914 206.893 49.3043 209 44 209ZM412 209C406.696 209 401.609 206.893 397.858 203.142C394.107 199.391 392 194.304 392 189V25C392 20.7565 393.686 16.6869 396.686 13.6863C399.687 10.6857 403.757 9 408 9H384C379.76 9.01266 375.698 10.7024 372.7 13.7003C369.702 16.6981 368.013 20.7604 368 25V81C372.24 81.0127 376.302 82.7024 379.3 85.7003C382.298 88.6981 383.987 92.7604 384 97V140.6C383.994 153.987 380.639 167.161 374.24 178.92L366.88 192.36L368 193V217C368.013 221.24 369.702 225.302 372.7 228.3C375.698 231.298 379.76 232.987 384 233H416C420.24 232.987 424.302 231.298 427.3 228.3C430.298 225.302 431.987 221.24 432 217V189C432 194.304 429.893 199.391 426.142 203.142C422.391 206.893 417.304 209 412 209Z" fill="#2E3442"/>
<path d="M496 97C496 88.1634 488.837 81 480 81C471.163 81 464 88.1634 464 97V177C464 185.837 471.163 193 480 193C488.837 193 496 185.837 496 177V97Z" fill="#545C70"/>
<path d="M496 41C496 32.1634 488.837 25 480 25C471.163 25 464 32.1634 464 41V57C464 65.8366 471.163 73 480 73C488.837 73 496 65.8366 496 57V41Z" fill="#545C70"/>
<path d="M432 97C432 88.1634 424.837 81 416 81C407.163 81 400 88.1634 400 97V177C400 185.837 407.163 193 416 193C424.837 193 432 185.837 432 177V97Z" fill="#545C70"/>
<path d="M432 41C432 32.1634 424.837 25 416 25C407.163 25 400 32.1634 400 41V57C400 65.8366 407.163 73 416 73C424.837 73 432 65.8366 432 57V41Z" fill="#545C70"/>
<path d="M128 97C128 88.1634 120.837 81 112 81C103.163 81 96 88.1634 96 97V177C96 185.837 103.163 193 112 193C120.837 193 128 185.837 128 177V97Z" fill="#545C70"/>
<path d="M128 41C128 32.1634 120.837 25 112 25C103.163 25 96 32.1634 96 41V57C96 65.8366 103.163 73 112 73C120.837 73 128 65.8366 128 57V41Z" fill="#545C70"/>
<path d="M64 97C64 88.1634 56.8366 81 48 81C39.1634 81 32 88.1634 32 97V177C32 185.837 39.1634 193 48 193C56.8366 193 64 185.837 64 177V97Z" fill="#545C70"/>
<path d="M64 41C64 32.1634 56.8366 25 48 25C39.1634 25 32 32.1634 32 41V57C32 65.8366 39.1634 73 48 73C56.8366 73 64 65.8366 64 57V41Z" fill="#545C70"/>
<path d="M184 105C179.757 105 175.687 103.314 172.686 100.314C169.686 97.3131 168 93.2435 168 89V33C168.008 29.3909 169.235 25.8905 171.483 23.0672C173.732 20.2439 176.868 18.2636 180.384 17.448C176.919 16.7648 173.345 16.8618 169.922 17.7321C166.5 18.6024 163.313 20.224 160.595 22.4792C157.878 24.7345 155.696 27.5667 154.209 30.7703C152.722 33.9739 151.968 37.4684 152 41V105C152 111.365 154.529 117.47 159.029 121.971C163.53 126.471 169.635 129 176 129C182.365 129 188.47 126.471 192.971 121.971C197.471 117.47 200 111.365 200 105V89C200 93.2435 198.314 97.3131 195.314 100.314C192.313 103.314 188.243 105 184 105Z" fill="#D18764"/>
<path d="M232 105C227.757 105 223.687 103.314 220.686 100.314C217.686 97.3131 216 93.2435 216 89V25C216.008 21.3909 217.235 17.8905 219.483 15.0672C221.732 12.2439 224.868 10.2636 228.384 9.44799C224.919 8.76477 221.345 8.86183 217.922 9.73209C214.5 10.6024 211.313 12.224 208.595 14.4792C205.878 16.7345 203.696 19.5667 202.209 22.7703C200.722 25.9739 199.968 29.4684 200 33V105C200 111.365 202.529 117.47 207.029 121.971C211.53 126.471 217.635 129 224 129C230.365 129 236.47 126.471 240.971 121.971C245.471 117.47 248 111.365 248 105V89C248 93.2435 246.314 97.3131 243.314 100.314C240.313 103.314 236.243 105 232 105Z" fill="#D18764"/>
<path d="M280 105C275.757 105 271.687 103.314 268.686 100.314C265.686 97.3131 264 93.2435 264 89V17C264.008 13.3909 265.235 9.8905 267.483 7.06721C269.732 4.24391 272.868 2.26363 276.384 1.44799C272.919 0.764772 269.345 0.861825 265.922 1.73209C262.499 2.60236 259.313 4.224 256.595 6.47925C253.877 8.7345 251.696 11.5667 250.209 14.7703C248.722 17.9739 247.968 21.4684 248 25V105C247.936 111.365 250.404 117.495 254.86 122.041C259.316 126.587 265.395 129.176 271.76 129.24C278.125 129.304 284.255 126.836 288.801 122.38C293.347 117.924 295.936 111.845 296 105.48V89C296 93.2435 294.314 97.3131 291.314 100.314C288.313 103.314 284.243 105 280 105Z" fill="#D18764"/>
<path d="M328 73C323.757 73 319.687 71.3143 316.686 68.3137C313.686 65.3131 312 61.2435 312 57V33C312.008 29.3909 313.235 25.8905 315.484 23.0672C317.732 20.2439 320.868 18.2636 324.384 17.448C320.919 16.7648 317.345 16.8618 313.922 17.7321C310.5 18.6024 307.313 20.224 304.595 22.4792C301.878 24.7345 299.696 27.5667 298.209 30.7703C296.722 33.9739 295.968 37.4684 296 41V105.48C296.126 111.762 298.71 117.744 303.197 122.141C307.684 126.539 313.717 129.001 320 129L320.48 127.72C315.114 125.894 310.568 122.229 307.646 117.372C304.724 112.515 303.615 106.781 304.515 101.185C305.416 95.5892 308.268 90.4927 312.567 86.7982C316.865 83.1037 322.332 81.0497 328 81H344V57C344 61.2435 342.314 65.3131 339.314 68.3137C336.313 71.3143 332.243 73 328 73Z" fill="#D18764"/>
<path d="M364 81H332C325.373 81 320 86.3726 320 93C320 99.6274 325.373 105 332 105H364C370.627 105 376 99.6274 376 93C376 86.3726 370.627 81 364 81Z" fill="#FFB996"/>
<path d="M256 257C256.399 251.967 258.078 247.12 260.879 242.919C263.679 238.718 267.508 235.304 272 233H224C228.492 235.304 232.321 238.718 235.121 242.919C237.922 247.12 239.601 251.967 240 257V265C240 267.122 240.843 269.157 242.343 270.657C243.843 272.157 245.878 273 248 273C250.122 273 252.157 272.157 253.657 270.657C255.157 269.157 256 267.122 256 265V257Z" fill="#E59B78"/>
</svg>
