<svg width="32" height="32" viewBox="0 0 32 32" fill="none" xmlns="http://www.w3.org/2000/svg">
<path d="M20.7304 8.562H24.0561V12.312H21.6396M10.3772 12.312H7.94394V8.562H10.3244M11.7168 12.2884H11.7158C11.0093 12.2884 10.4366 11.7157 10.4366 11.0092V8.84375C10.4366 8.13725 11.0093 7.56456 11.7158 7.56456H11.7168C12.4233 7.56456 12.9959 8.13725 12.9959 8.84375V11.0091C12.996 11.7156 12.4233 12.2884 11.7168 12.2884Z" stroke="white" stroke-width="1.2" stroke-miterlimit="10" stroke-linecap="round" stroke-linejoin="round"/>
<path d="M17.9548 11.629C17.7365 12.0223 17.3168 12.2884 16.8349 12.2884C16.1282 12.2884 15.5553 11.7159 15.5553 11.0096V7.63469C15.5553 6.92844 16.1283 6.35594 16.8349 6.35594C17.5417 6.35594 18.1146 6.92844 18.1146 7.63469V10.0138M18.1146 9.92644V7.63463C18.1146 6.92838 18.6876 6.35588 19.3943 6.35588C20.101 6.35588 20.6739 6.92838 20.6739 7.63463V10.2596M14.2761 12.2884H14.2751C13.5686 12.2884 12.9959 11.7157 12.9959 11.0092V7.63513C12.9959 6.92863 13.5686 6.35594 14.2751 6.35594H14.2761C14.9826 6.35594 15.5553 6.92863 15.5553 7.63513V11.0092C15.5553 11.7156 14.9826 12.2884 14.2761 12.2884Z" stroke="white" stroke-width="1.2" stroke-miterlimit="10" stroke-linecap="round" stroke-linejoin="round"/>
<path d="M18.1164 17.4191C20.0593 17.2624 21.5561 15.6399 21.5561 13.6908V11.5175C21.5561 11.3141 21.5026 11.1143 21.4009 10.9382C21.2992 10.7621 21.1529 10.6158 20.9768 10.5141L19.7277 9.79294C19.1161 9.43981 18.334 9.64938 17.9809 10.261C17.6277 10.8726 17.8373 11.6547 18.4489 12.0078L19.0667 12.3628M13.8763 17.4191C11.9334 17.2624 10.4366 15.6399 10.4366 13.6908V11.0096M12.2774 16.9782V28.7167M19.7153 16.9413V28.7167M24.0561 3.28325H27.7155V17.5908H24.0561V3.28325ZM31.375 13.2495V14.9373H27.7156V5.93681H31.375V13.2495Z" stroke="white" stroke-width="1.2" stroke-miterlimit="10" stroke-linecap="round" stroke-linejoin="round"/>
<path d="M7.94394 17.5908H4.2845L4.2845 3.28319H7.94394L7.94394 17.5908Z" stroke="white" stroke-width="1.2" stroke-miterlimit="10" stroke-linecap="round" stroke-linejoin="round"/>
<path d="M4.28448 14.9372H0.625047L0.625047 5.93675H4.28448L4.28448 14.9372Z" stroke="white" stroke-width="1.2" stroke-miterlimit="10" stroke-linecap="round" stroke-linejoin="round"/>
</svg>
