<svg width="32" height="32" viewBox="0 0 32 32" fill="none" xmlns="http://www.w3.org/2000/svg">
<path d="M20.7303 8.56201H24.056V12.312H21.6395M10.3771 12.312H7.94385V8.56201H10.3243M11.7167 12.2884H11.7157C11.0092 12.2884 10.4365 11.7157 10.4365 11.0092V8.84376C10.4365 8.13726 11.0092 7.56458 11.7157 7.56458H11.7167C12.4232 7.56458 12.9958 8.13726 12.9958 8.84376V11.0091C12.9959 11.7156 12.4232 12.2884 11.7167 12.2884Z" stroke="black" stroke-width="1.2" stroke-miterlimit="10" stroke-linecap="round" stroke-linejoin="round"/>
<path d="M17.9547 11.629C17.7364 12.0222 17.3167 12.2883 16.8349 12.2883C16.1281 12.2883 15.5552 11.7158 15.5552 11.0096V7.63465C15.5552 6.9284 16.1282 6.3559 16.8349 6.3559C17.5416 6.3559 18.1145 6.9284 18.1145 7.63465V10.0137M18.1145 9.9264V7.63458C18.1145 6.92833 18.6875 6.35583 19.3942 6.35583C20.1009 6.35583 20.6738 6.92833 20.6738 7.63458V10.2595M14.276 12.2883H14.275C13.5685 12.2883 12.9958 11.7156 12.9958 11.0091V7.63509C12.9958 6.92859 13.5685 6.3559 14.275 6.3559H14.276C14.9825 6.3559 15.5552 6.92859 15.5552 7.63509V11.0091C15.5552 11.7156 14.9825 12.2883 14.276 12.2883Z" stroke="black" stroke-width="1.2" stroke-miterlimit="10" stroke-linecap="round" stroke-linejoin="round"/>
<path d="M18.1163 17.4192C20.0592 17.2624 21.556 15.64 21.556 13.6908V11.5176C21.556 11.3142 21.5025 11.1144 21.4008 10.9383C21.2991 10.7621 21.1528 10.6159 20.9767 10.5142L19.7276 9.79301C19.116 9.43989 18.3339 9.64945 17.9808 10.2611C17.6276 10.8727 17.8372 11.6548 18.4488 12.0079L19.0666 12.3628M13.8762 17.4192C11.9333 17.2624 10.4365 15.64 10.4365 13.6908V11.0097M12.2773 16.9783V28.7168M19.7152 16.9413V28.7168M24.056 3.28333H27.7154V17.5909H24.056V3.28333ZM31.3749 13.2496V14.9373H27.7155V5.93689H31.3749V13.2496Z" stroke="black" stroke-width="1.2" stroke-miterlimit="10" stroke-linecap="round" stroke-linejoin="round"/>
<path d="M7.94385 17.5908H4.28441L4.28441 3.28326H7.94385L7.94385 17.5908Z" stroke="black" stroke-width="1.2" stroke-miterlimit="10" stroke-linecap="round" stroke-linejoin="round"/>
<path d="M4.28442 14.9373H0.624986L0.624986 5.93682H4.28442L4.28442 14.9373Z" stroke="black" stroke-width="1.2" stroke-miterlimit="10" stroke-linecap="round" stroke-linejoin="round"/>
</svg>
